Lexend wght100.ufo
<glyph name="exclam" format="2">
  <advance width="254"/>
  <unicode hex="0021"/>
  <note>
exclam
</note>
  <outline>
    <contour>
      <point x="137" y="241.0" type="qcurve"/>
      <point x="127" y="241.0" type="line"/>
      <point x="123" y="335.0"/>
      <point x="122" y="537.0"/>
      <point x="122" y="630.0" type="qcurve"/>
      <point x="122" y="700.0" type="line"/>
      <point x="142" y="700.0" type="line"/>
      <point x="142" y="630.0" type="line" smooth="yes"/>
      <point x="142" y="537"/>
      <point x="142" y="335.0"/>
    </contour>
    <contour>
      <point x="161" y="28" type="qcurve" smooth="yes"/>
      <point x="161" y="12"/>
      <point x="144" y="-10"/>
      <point x="129" y="-10" type="qcurve" smooth="yes"/>
      <point x="114" y="-10"/>
      <point x="97" y="10"/>
      <point x="97" y="28" type="qcurve" smooth="yes"/>
      <point x="97" y="45"/>
      <point x="114" y="66"/>
      <point x="129" y="66" type="qcurve" smooth="yes"/>
      <point x="144" y="66"/>
      <point x="161" y="46"/>
    </contour>
  </outline>
</glyph>
<glyph name="quotedbl" format="2">
  <advance width="366"/>
  <unicode hex="0022"/>
  <note>
quotedbl
</note>
  <outline>
    <contour>
      <point x="56" y="442.0" type="line"/>
      <point x="94" y="700.0" type="line"/>
      <point x="136" y="700.0" type="line"/>
      <point x="76" y="442.0" type="line"/>
    </contour>
    <contour>
      <point x="209" y="442.0" type="line"/>
      <point x="247" y="700.0" type="line"/>
      <point x="289" y="700.0" type="line"/>
      <point x="229" y="442.0" type="line"/>
    </contour>
  </outline>
</glyph>
<glyph name="hyphen" format="2">
  <advance width="394"/>
  <unicode hex="002D"/>
  <note>
hyphen
</note>
  <outline>
    <contour>
      <point x="334" y="262" type="line"/>
      <point x="60" y="262" type="line"/>
      <point x="60" y="286" type="line"/>
      <point x="334" y="286" type="line"/>
    </contour>
  </outline>
</glyph>
<glyph name="two" format="2">
  <advance width="548"/>
  <unicode hex="0032"/>
  <outline>
    <contour>
      <point x="112" y="22" type="line"/>
      <point x="516.0" y="22" type="line"/>
      <point x="516.0" y="0.0" type="line"/>
      <point x="93.0" y="0.0" type="line"/>
      <point x="86.99945258029868" y="13.001398961458918" type="line"/>
      <point x="362.4982056798679" y="323.0" type="line" smooth="yes"/>
      <point x="392" y="357"/>
      <point x="471" y="468"/>
      <point x="471" y="535" type="qcurve"/>
      <point x="471" y="600"/>
      <point x="367" y="688"/>
      <point x="288" y="688" type="qcurve"/>
      <point x="226" y="688"/>
      <point x="103" y="617"/>
      <point x="72.50124690043077" y="513.4991788704481" type="qcurve"/>
      <point x="51.0" y="523.5000304122057" type="line"/>
      <point x="80.49990876338312" y="622.4997871145606"/>
      <point x="208" y="710.0"/>
      <point x="290" y="710.0" type="qcurve"/>
      <point x="376" y="710.0"/>
      <point x="494.0" y="612"/>
      <point x="494.0" y="536" type="qcurve"/>
      <point x="494.0" y="471"/>
      <point x="422.0" y="361"/>
      <point x="386" y="317" type="qcurve"/>
      <point x="112" y="5" type="line"/>
    </contour>
  </outline>
</glyph>
<glyph name="three" format="2">
  <advance width="529"/>
  <unicode hex="0033"/>
  <outline>
    <contour>
      <point x="20.0" y="138.0" type="qcurve"/>
      <point x="40" y="150" type="line"/>
      <point x="90" y="68"/>
      <point x="202" y="12.0"/>
      <point x="266" y="12" type="qcurve"/>
      <point x="353.57073170731707" y="12.0"/>
      <point x="470.0" y="135.0"/>
      <point x="470" y="221" type="qcurve" smooth="yes"/>
      <point x="470.0" y="303.0"/>
      <point x="363.5431472081218" y="423.0"/>
      <point x="274" y="423" type="qcurve"/>
      <point x="248" y="423.0"/>
      <point x="178.8242974549987" y="403.67356635948573"/>
      <point x="141" y="361" type="qcurve"/>
      <point x="127" y="383" type="line"/>
      <point x="447" y="687" type="line"/>
      <point x="444" y="678" type="line"/>
      <point x="89" y="678" type="line"/>
      <point x="89" y="700.0" type="line"/>
      <point x="452" y="700.0" type="line"/>
      <point x="465" y="676.0" type="line"/>
      <point x="172" y="400" type="line"/>
      <point x="165" y="406" type="line"/>
      <point x="191.46538016244978" y="424.9038429731784"/>
      <point x="242" y="445.0"/>
      <point x="274" y="445.0" type="qcurve"/>
      <point x="378" y="445.0"/>
      <point x="493.0" y="315.0"/>
      <point x="493" y="221" type="qcurve" smooth="yes"/>
      <point x="493.0" y="125"/>
      <point x="362.0" y="-10.0"/>
      <point x="264" y="-10.0" type="qcurve"/>
      <point x="190" y="-10.0"/>
      <point x="68" y="57"/>
    </contour>
  </outline>
</glyph>
<glyph name="four" format="2">
  <advance width="620"/>
  <unicode hex="0034"/>
  <outline>
    <contour>
      <point x="456.0" y="0.0" type="line"/>
      <point x="432.99835774089604" y="0.0" type="line"/>
      <point x="432.99835774089604" y="688.4974757869328" type="line"/>
      <point x="448.99854021412983" y="680.9975061991385" type="line"/>
      <point x="45.00206802998275" y="187.00182473233772" type="line"/>
      <point x="30.502280915422148" y="215.50149019807583" type="line"/>
      <point x="578.0" y="215.50149019807583" type="line"/>
      <point x="578.0" y="190.0" type="line"/>
      <point x="74.50003041220563" y="190.0" type="line"/>
      <point x="53.999513404709944" y="233.50094277837448" type="line"/>
      <point x="435.9987226873636" y="700.0" type="line"/>
      <point x="456.0" y="700.0" type="line"/>
    </contour>
  </outline>
</glyph>
<glyph name="five" format="2">
  <advance width="568"/>
  <unicode hex="0035"/>
  <outline>
    <contour>
      <point x="508.0" y="237" type="qcurve"/>
      <point x="508.0" y="132.12301587301587"/>
      <point x="364.0" y="-10.0"/>
      <point x="257.0" y="-10.0" type="qcurve"/>
      <point x="188.0" y="-10.0"/>
      <point x="77" y="55"/>
      <point x="39.0" y="115.0" type="qcurve"/>
      <point x="58" y="133" type="line"/>
      <point x="93" y="73"/>
      <point x="202" y="12"/>
      <point x="258" y="12" type="qcurve"/>
      <point x="354.0" y="12.0"/>
      <point x="485.0" y="144.0905172413793"/>
      <point x="485" y="239" type="qcurve"/>
      <point x="485.0" y="322.04545454545456"/>
      <point x="370.0" y="442.0"/>
      <point x="281" y="442" type="qcurve"/>
      <point x="227.0" y="442.0"/>
      <point x="116" y="396"/>
      <point x="78" y="361" type="qcurve"/>
      <point x="65.0" y="377.0" type="line"/>
      <point x="111.0" y="700.0" type="line"/>
      <point x="487.0" y="700.0" type="line"/>
      <point x="487.0" y="678" type="line"/>
      <point x="116" y="678" type="line"/>
      <point x="133" y="690" type="line"/>
      <point x="87" y="379" type="line"/>
      <point x="77" y="387" type="line"/>
      <point x="120.25531842652485" y="422.2078173239156"/>
      <point x="223.42857142857144" y="464.0"/>
      <point x="282" y="464.0" type="qcurve"/>
      <point x="378.14912280701753" y="464.0"/>
      <point x="508.0" y="337.2072072072072"/>
    </contour>
  </outline>
</glyph>
<glyph name="seven" format="2">
  <advance width="466"/>
  <unicode hex="0037"/>
  <outline>
    <contour>
      <point x="123.00212885439402" y="0.0" type="line"/>
      <point x="97.00030412205629" y="0.0" type="line"/>
      <point x="400.5000304122056" y="694.9987226873636" type="line"/>
      <point x="414.0" y="679.4983881531017" type="line"/>
      <point x="0.0012164882251468612" y="679.4983881531017" type="line"/>
      <point x="0.0012164882251468612" y="700.0" type="line"/>
      <point x="401.50185514454336" y="700.0" type="line"/>
      <point x="412.5019159689546" y="654.9995134047099" type="line"/>
    </contour>
  </outline>
</glyph>
<glyph name="eight" format="2">
  <advance width="580"/>
  <unicode hex="0038"/>
  <outline>
    <contour>
      <point x="495" y="530" type="qcurve"/>
      <point x="495.0" y="477.35"/>
      <point x="416.0131098678077" y="386.00227997701006"/>
      <point x="347" y="374" type="qcurve"/>
      <point x="351" y="386" type="line"/>
      <point x="427.97727578548796" y="367.0056072737108"/>
      <point x="526.0" y="266.6185567010309"/>
      <point x="526.0" y="193" type="qcurve"/>
      <point x="526.0" y="109"/>
      <point x="389.0" y="-3.0"/>
      <point x="290" y="-3.0" type="qcurve"/>
      <point x="192.41525423728814" y="-3.0"/>
      <point x="55.0" y="110.0"/>
      <point x="55" y="193" type="qcurve"/>
      <point x="55.0" y="265.62371134020617"/>
      <point x="147.0214840228477" y="367.004978005294"/>
      <point x="229" y="386" type="qcurve"/>
      <point x="233" y="374" type="line"/>
      <point x="164.99242335207572" y="383.00100279163706"/>
      <point x="86.0" y="477.35"/>
      <point x="86" y="530" type="qcurve"/>
      <point x="86.0" y="610.0"/>
      <point x="205.0" y="710.0"/>
      <point x="290" y="710.0" type="qcurve"/>
      <point x="376.0" y="710.0"/>
      <point x="495.0" y="610.0"/>
    </contour>
    <contour>
      <point x="290" y="688" type="qcurve"/>
      <point x="212.0" y="688.0"/>
      <point x="109.0" y="600"/>
      <point x="109" y="537" type="qcurve"/>
      <point x="109.0" y="473"/>
      <point x="212.0" y="388.0"/>
      <point x="290" y="388" type="qcurve" smooth="yes"/>
      <point x="369.0" y="388.0"/>
      <point x="472.0" y="471"/>
      <point x="472" y="537" type="qcurve"/>
      <point x="472.0" y="600"/>
      <point x="369.0" y="688.0"/>
    </contour>
    <contour>
      <point x="78" y="191" type="qcurve"/>
      <point x="78.0" y="124.0"/>
      <point x="203" y="19.0"/>
      <point x="290" y="19" type="qcurve"/>
      <point x="378.0" y="19.0"/>
      <point x="503.0" y="123"/>
      <point x="503" y="191" type="qcurve"/>
      <point x="503.0" y="269"/>
      <point x="382.0" y="368.0"/>
      <point x="290" y="368" type="qcurve" smooth="yes"/>
      <point x="199.0" y="368.0"/>
      <point x="78.0" y="269"/>
    </contour>
  </outline>
</glyph>
<glyph name="question" format="2">
  <advance width="492"/>
  <unicode hex="003F"/>
  <note>
question
</note>
  <outline>
    <contour>
      <point x="218.4994829925043" y="196.0003041220563" type="line"/>
      <point x="219.498935572803" y="314.5007603051407" type="line"/>
      <point x="318.99890516059736" y="339.0007907173464"/>
      <point x="413.49887474839176" y="440.00030412205626"/>
      <point x="413.49887474839176" y="511.0" type="qcurve" smooth="yes"/>
      <point x="413.49887474839176" y="580.4994829925043"/>
      <point x="321.4993613436818" y="673.4987530995692"/>
      <point x="249.4997871145606" y="673.4987530995692" type="qcurve"/>
      <point x="196.00006082441126" y="673.4987530995692"/>
      <point x="98.50051700749569" y="619.9987226873636"/>
      <point x="58.00079071734635" y="559.498935572803" type="qcurve"/>
      <point x="41.499604641326826" y="574.4999087633831" type="line"/>
      <point x="81.49966546573808" y="634.5000304122057"/>
      <point x="188.4999087633831" y="700.0001824732337"/>
      <point x="247.50003041220563" y="700.0001824732337" type="qcurve"/>
      <point x="328.00030412205626" y="700.0001824732337"/>
      <point x="436.50069948072945" y="590.5000912366169"/>
      <point x="436.50069948072945" y="511.0" type="qcurve" smooth="yes"/>
      <point x="436.50069948072945" y="429.00024329764506"/>
      <point x="317.0007907173464" y="306.00030412205626"/>
      <point x="226.50088195396324" y="289.0001216488225" type="qcurve"/>
      <point x="251.00079071734635" y="328.99969587794374" type="line"/>
      <point x="241.50057783190695" y="196.0003041220563" type="line"/>
    </contour>
    <contour>
      <point x="269.0005474197013" y="28.00072989293509" type="qcurve" smooth="yes"/>
      <point x="269.0005474197013" y="11.500395358673174"/>
      <point x="252.00012164882253" y="-9.500030412205628"/>
      <point x="237.4997871145606" y="-9.500030412205628" type="qcurve" smooth="yes"/>
      <point x="222.49942216809305" y="-9.500030412205628"/>
      <point x="205.9990268094199" y="10.000364946467545"/>
      <point x="205.9990268094199" y="28.00072989293509" type="qcurve" smooth="yes"/>
      <point x="205.9990268094199" y="44.50106442719701"/>
      <point x="222.99945258029868" y="65.50149019807581"/>
      <point x="237.4997871145606" y="65.50149019807581" type="qcurve" smooth="yes"/>
      <point x="252.50015206102813" y="65.50149019807581"/>
      <point x="269.0005474197013" y="46.00109483940263"/>
    </contour>
  </outline>
</glyph>
<glyph name="B" format="2">
  <advance width="651"/>
  <unicode hex="0042"/>
  <note>
B
</note>
  <anchor x="339.39750653660644" y="0" name="bottom"/>
  <anchor x="339.39750653660644" y="700.0" name="top"/>
  <outline>
    <contour>
      <point x="113" y="700.0" type="line"/>
      <point x="381" y="700.0" type="line"/>
      <point x="464" y="700.0"/>
      <point x="563.0" y="601"/>
      <point x="563" y="531.0" type="qcurve"/>
      <point x="563.0" y="459.25142857142856"/>
      <point x="453.88082901554407" y="359.0"/>
      <point x="368" y="359" type="qcurve"/>
      <point x="371" y="375" type="line"/>
      <point x="484" y="375.0"/>
      <point x="600.0" y="270.13483146067415"/>
      <point x="600" y="192.0" type="qcurve"/>
      <point x="600.0" y="111.10659898477158"/>
      <point x="495.07142857142856" y="0.0"/>
      <point x="374" y="0.0" type="qcurve"/>
      <point x="113" y="0.0" type="line"/>
    </contour>
    <contour>
      <point x="540" y="532" type="qcurve" smooth="yes"/>
      <point x="540.0" y="593"/>
      <point x="453.0" y="678.0"/>
      <point x="378" y="678" type="qcurve"/>
      <point x="127" y="678" type="line"/>
      <point x="134" y="691" type="line"/>
      <point x="134" y="364" type="line"/>
      <point x="128" y="378" type="line"/>
      <point x="375" y="378" type="line"/>
      <point x="443" y="378"/>
      <point x="540.0" y="468"/>
    </contour>
    <contour>
      <point x="577" y="188" type="qcurve"/>
      <point x="577" y="262"/>
      <point x="474.0" y="356.0"/>
      <point x="380" y="356" type="qcurve"/>
      <point x="128" y="356" type="line"/>
      <point x="134" y="370" type="line"/>
      <point x="134" y="13" type="line"/>
      <point x="125" y="22" type="line"/>
      <point x="375" y="22" type="line"/>
      <point x="484.0" y="22.0"/>
      <point x="577.0" y="118.10526315789474"/>
    </contour>
  </outline>
</glyph>
<glyph name="C" format="2">
  <advance width="672"/>
  <unicode hex="0043"/>
  <note>
C
</note>
  <guideline x="374" y="528" angle="270" identifier="5EdTKgWqn4"/>
  <anchor x="372.50009123661687" y="0" name="bottom"/>
  <anchor x="367.50009123661687" y="700.0" name="top"/>
  <outline>
    <contour>
      <point x="634" y="81" type="line"/>
      <point x="589" y="38"/>
      <point x="466" y="-10"/>
      <point x="394" y="-10" type="qcurve"/>
      <point x="243" y="-10"/>
      <point x="50" y="189"/>
      <point x="50" y="346" type="qcurve"/>
      <point x="50.0" y="505.05882352941177"/>
      <point x="243.0" y="710.0"/>
      <point x="394" y="710" type="qcurve"/>
      <point x="473.0" y="710.0"/>
      <point x="603.3530914146213" y="646.8664963967626"/>
      <point x="650" y="594" type="qcurve"/>
      <point x="632" y="578" type="line"/>
      <point x="588.3604342077427" y="627.8737894768655"/>
      <point x="467.0" y="688.0"/>
      <point x="394" y="688" type="qcurve" smooth="yes"/>
      <point x="255.0" y="688.0"/>
      <point x="73.0" y="494.0298507462686"/>
      <point x="73" y="346" type="qcurve"/>
      <point x="73" y="200"/>
      <point x="255" y="12"/>
      <point x="394" y="12" type="qcurve" smooth="yes"/>
      <point x="462" y="12"/>
      <point x="577" y="58"/>
      <point x="619" y="99" type="qcurve"/>
    </contour>
  </outline>
</glyph>
<glyph name="D" format="2">
  <advance width="735"/>
  <unicode hex="0044"/>
  <note>
D
</note>
  <anchor x="322.1966753821419" y="0" name="bottom"/>
  <anchor x="134.19667538214193" y="350.0" name="center"/>
  <anchor x="312.1966753821419" y="700.0" name="top"/>
  <outline>
    <contour>
      <point x="112" y="700.0" type="line"/>
      <point x="359" y="700.0" type="line" smooth="yes"/>
      <point x="487.0" y="700.0"/>
      <point x="684" y="502"/>
      <point x="684" y="350.0" type="qcurve" smooth="yes"/>
      <point x="684" y="199"/>
      <point x="487" y="0.0"/>
      <point x="359" y="0.0" type="qcurve"/>
      <point x="112" y="0.0" type="line"/>
    </contour>
    <contour>
      <point x="124" y="22" type="line"/>
      <point x="354" y="22" type="line" smooth="yes"/>
      <point x="475.0" y="22.0"/>
      <point x="661.0" y="211.0"/>
      <point x="661" y="350.0" type="qcurve" smooth="yes"/>
      <point x="661.0" y="490.0"/>
      <point x="475" y="678.0"/>
      <point x="354" y="678" type="qcurve"/>
      <point x="123" y="678" type="line"/>
      <point x="134" y="689" type="line"/>
      <point x="134" y="13" type="line"/>
    </contour>
  </outline>
</glyph>
<glyph name="E" format="2">
  <advance width="571"/>
  <unicode hex="0045"/>
  <note>
E
</note>
  <anchor x="312.39750653660644" y="0" name="bottom"/>
  <anchor x="466.0001824732338" y="10.0" name="ogonek"/>
  <anchor x="307.39750653660644" y="700.0" name="top"/>
  <anchor x="36.39750653660644" y="700.0" name="topleft"/>
  <outline>
    <contour>
      <point x="134" y="0.0" type="line"/>
      <point x="112" y="0.0" type="line"/>
      <point x="112" y="700.0" type="line"/>
      <point x="134" y="700.0" type="line"/>
    </contour>
    <contour>
      <point x="497" y="0.0" type="line"/>
      <point x="126" y="0.0" type="line"/>
      <point x="126" y="22" type="line"/>
      <point x="497" y="22" type="line"/>
    </contour>
    <contour>
      <point x="445" y="351" type="line"/>
      <point x="125" y="351" type="line"/>
      <point x="125" y="373" type="line"/>
      <point x="445" y="373" type="line"/>
    </contour>
    <contour>
      <point x="503" y="678" type="line"/>
      <point x="125" y="678" type="line"/>
      <point x="125" y="700.0" type="line"/>
      <point x="503" y="700.0" type="line"/>
    </contour>
  </outline>
</glyph>
<glyph name="F" format="2">
  <advance width="577"/>
  <unicode hex="0046"/>
  <note>
F
</note>
  <outline>
    <contour>
      <point x="112" y="0.0" type="line"/>
      <point x="112" y="700.0" type="line"/>
      <point x="134" y="700.0" type="line"/>
      <point x="134" y="0.0" type="line"/>
    </contour>
    <contour>
      <point x="476" y="341" type="line"/>
      <point x="124" y="341" type="line"/>
      <point x="124" y="363" type="line"/>
      <point x="476" y="363" type="line"/>
    </contour>
    <contour>
      <point x="527" y="678" type="line"/>
      <point x="124" y="678" type="line"/>
      <point x="124" y="700.0" type="line"/>
      <point x="527" y="700.0" type="line"/>
    </contour>
  </outline>
</glyph>
<glyph name="G" format="2">
  <advance width="760"/>
  <unicode hex="0047"/>
  <note>
G
</note>
  <anchor x="421.9998175267662" y="0" name="bottom"/>
  <anchor x="408.9998175267662" y="700.0" name="top"/>
  <outline>
    <contour>
      <point x="718" y="339" type="line"/>
      <point x="718.0" y="168.0"/>
      <point x="544.5386996904025" y="-10.0"/>
      <point x="396" y="-10" type="qcurve"/>
      <point x="244.5610465116279" y="-10.0"/>
      <point x="51.0" y="189.0"/>
      <point x="51" y="346" type="qcurve"/>
      <point x="51.0" y="502.436974789916"/>
      <point x="244.0" y="704.0"/>
      <point x="395" y="704" type="qcurve"/>
      <point x="480.0" y="704.0"/>
      <point x="617.7731571803072" y="637.2810878417934"/>
      <point x="664" y="580" type="qcurve"/>
      <point x="647" y="564" type="line"/>
      <point x="605" y="619"/>
      <point x="474.31474103585657" y="682.0"/>
      <point x="395" y="682" type="qcurve" smooth="yes"/>
      <point x="256.0" y="682.0"/>
      <point x="74.0" y="491.43283582089555"/>
      <point x="74" y="346" type="qcurve"/>
      <point x="74.0" y="200.0"/>
      <point x="256.5669781931464" y="12.0"/>
      <point x="396" y="12" type="qcurve"/>
      <point x="539.52" y="12.0"/>
      <point x="695.0" y="184.0"/>
      <point x="695" y="322" type="qcurve"/>
      <point x="695" y="341" type="line"/>
      <point x="701" y="336" type="line"/>
      <point x="405" y="336" type="line"/>
      <point x="405" y="358" type="line"/>
      <point x="718" y="358" type="line"/>
    </contour>
  </outline>
</glyph>
<glyph name="H" format="2">
  <advance width="731"/>
  <unicode hex="0048"/>
  <note>
H
</note>
  <anchor x="361" y="0" name="bottom"/>
  <anchor x="361" y="350.0" name="center"/>
  <anchor x="361" y="700.0" name="top"/>
  <anchor x="21" y="700.0" name="topleft"/>
  <outline>
    <contour>
      <point x="110" y="700" type="line"/>
      <point x="132" y="700" type="line"/>
      <point x="132" y="0" type="line"/>
      <point x="110" y="0" type="line"/>
    </contour>
    <contour>
      <point x="599" y="700" type="line"/>
      <point x="621" y="700" type="line"/>
      <point x="621" y="0" type="line"/>
      <point x="599" y="0" type="line"/>
    </contour>
    <contour>
      <point x="121" y="338" type="line"/>
      <point x="121" y="360" type="line"/>
      <point x="610" y="360" type="line"/>
      <point x="610" y="338" type="line"/>
    </contour>
  </outline>
</glyph>
<glyph name="I" format="2">
  <advance width="378"/>
  <unicode hex="0049"/>
  <note>
I
</note>
  <anchor x="189" y="0" name="bottom"/>
  <anchor x="256" y="10.0" name="ogonek"/>
  <anchor x="189" y="700.0" name="top"/>
  <anchor x="116" y="700.0" name="topleft"/>
  <outline>
    <contour>
      <point x="200" y="700" type="qcurve"/>
      <point x="200" y="0" type="line"/>
      <point x="178" y="0" type="line"/>
      <point x="178" y="700" type="line"/>
      <point x="206" y="700"/>
      <point x="172" y="700"/>
    </contour>
    <contour>
      <point x="332" y="700" type="line"/>
      <point x="332" y="678" type="line"/>
      <point x="46" y="678" type="line"/>
      <point x="46" y="700" type="line"/>
    </contour>
    <contour>
      <point x="332" y="22" type="line"/>
      <point x="332" y="0" type="line"/>
      <point x="46" y="0" type="line"/>
      <point x="46" y="22" type="line"/>
    </contour>
  </outline>
</glyph>
<glyph name="J" format="2">
  <advance width="614"/>
  <unicode hex="004A"/>
  <note>
J
</note>
  <anchor x="284.50051700749566" y="0" name="bottom"/>
  <anchor x="451.0001216488225" y="700.0" name="top"/>
  <outline>
    <contour>
      <point x="265" y="-10.0" type="qcurve"/>
      <point x="201.04545454545456" y="-10.0"/>
      <point x="100" y="58"/>
      <point x="64" y="120.0" type="qcurve"/>
      <point x="80" y="138" type="line"/>
      <point x="114" y="76"/>
      <point x="212.97777777777776" y="12.0"/>
      <point x="267" y="12" type="qcurve" smooth="yes"/>
      <point x="345.0" y="12.0"/>
      <point x="445" y="107"/>
      <point x="445" y="213" type="qcurve"/>
      <point x="445" y="700.0" type="line"/>
      <point x="467" y="700.0" type="line"/>
      <point x="467" y="213.0" type="line"/>
      <point x="467" y="97"/>
      <point x="353" y="-10.0"/>
    </contour>
    <contour>
      <point x="573" y="700.0" type="line"/>
      <point x="573" y="678" type="line"/>
      <point x="316" y="678" type="line"/>
      <point x="316" y="700.0" type="line"/>
    </contour>
  </outline>
</glyph>
<glyph name="K" format="2">
  <advance width="638"/>
  <unicode hex="004B"/>
  <note>
K
</note>
  <anchor x="327.0001824732338" y="0" name="bottom"/>
  <anchor x="339.0001824732338" y="700.0" name="top"/>
  <outline>
    <contour>
      <point x="112" y="0.0" type="line"/>
      <point x="112" y="700.0" type="line"/>
      <point x="134" y="700.0" type="line"/>
      <point x="134" y="0.0" type="line"/>
    </contour>
    <contour>
      <point x="122" y="234" type="line"/>
      <point x="122" y="265" type="line"/>
      <point x="568" y="700.0" type="line"/>
      <point x="600" y="700.0" type="line"/>
    </contour>
    <contour>
      <point x="589" y="0.0" type="line"/>
      <point x="284" y="404" type="line"/>
      <point x="301" y="420" type="line"/>
      <point x="617.5016118468983" y="0.0" type="line"/>
    </contour>
  </outline>
</glyph>
<glyph name="L" format="2">
  <advance width="505"/>
  <unicode hex="004C"/>
  <note>
L
</note>
  <anchor x="288.39750653660644" y="0" name="bottom"/>
  <anchor x="316.49948299250434" y="350.0" name="center"/>
  <anchor x="131.39750653660641" y="700.0" name="top"/>
  <anchor x="190.00723810493963" y="700.0" name="topright"/>
  <outline>
    <contour>
      <point x="104" y="22" type="line"/>
      <point x="465" y="22" type="line"/>
      <point x="465" y="0.0" type="line"/>
      <point x="92" y="0.0" type="line"/>
      <point x="92" y="700.0" type="line"/>
      <point x="114" y="700.0" type="line"/>
      <point x="114" y="13" type="line"/>
    </contour>
  </outline>
</glyph>
<glyph name="M" format="2">
  <advance width="846"/>
  <unicode hex="004D"/>
  <note>
M
</note>
  <anchor x="423.39750653660644" y="0" name="bottom"/>
  <anchor x="423.39750653660644" y="700.0" name="top"/>
  <outline>
    <contour>
      <point x="112" y="700.0" type="line"/>
      <point x="129" y="700.0" type="line"/>
      <point x="423" y="232" type="line"/>
      <point x="420" y="232" type="line"/>
      <point x="713" y="700.0" type="line"/>
      <point x="730" y="700.0" type="line"/>
      <point x="730" y="0.0" type="line"/>
      <point x="708" y="0.0" type="line"/>
      <point x="708" y="383" type="line" smooth="yes"/>
      <point x="708" y="472.2966666666667"/>
      <point x="707.9900183032739" y="613.7670937430574"/>
      <point x="711" y="684" type="qcurve"/>
      <point x="727" y="679" type="line"/>
      <point x="429" y="204" type="line"/>
      <point x="414" y="204" type="line"/>
      <point x="121" y="672" type="line"/>
      <point x="131" y="684" type="line"/>
      <point x="134.009979415623" y="617.7804528562938"/>
      <point x="134.0" y="472.2966666666667"/>
      <point x="134" y="383" type="qcurve"/>
      <point x="134" y="0.0" type="line"/>
      <point x="112" y="0.0" type="line"/>
    </contour>
  </outline>
</glyph>
<glyph name="N" format="2">
  <advance width="754"/>
  <unicode hex="004E"/>
  <note>
N
</note>
  <anchor x="384" y="0" name="bottom"/>
  <anchor x="384" y="700.0" name="top"/>
  <outline>
    <contour>
      <point x="610" y="241" type="qcurve"/>
      <point x="610" y="700" type="line"/>
      <point x="632" y="700" type="line"/>
      <point x="632" y="0" type="line"/>
      <point x="612" y="0" type="line"/>
      <point x="127" y="686" type="line"/>
      <point x="142" y="686" type="line"/>
      <point x="143" y="661"/>
      <point x="145" y="525"/>
      <point x="144" y="470" type="qcurve" smooth="yes"/>
      <point x="144" y="0" type="line"/>
      <point x="122" y="0" type="line"/>
      <point x="122" y="700" type="line"/>
      <point x="144" y="700" type="line"/>
      <point x="617" y="31" type="line"/>
      <point x="613" y="31" type="line"/>
      <point x="613" y="75"/>
      <point x="611" y="177"/>
    </contour>
  </outline>
</glyph>
<glyph name="O" format="2">
  <advance width="789"/>
  <unicode hex="004F"/>
  <note>
O
</note>
  <anchor x="394" y="0" name="bottom"/>
  <anchor x="397.99975670235494" y="350.0" name="center"/>
  <anchor x="692.9999391755888" y="10.0" name="ogonek"/>
  <anchor x="396.4997871145606" y="700.0" name="top"/>
  <anchor x="27.999939175588743" y="700.0" name="topleft"/>
  <anchor x="389.99993917558874" y="706.0" name="topright"/>
  <outline>
    <contour>
      <point x="394" y="710" type="qcurve"/>
      <point x="545.0" y="710.0"/>
      <point x="738.0" y="507.68131868131866"/>
      <point x="738" y="349" type="qcurve"/>
      <point x="738.0" y="190.67696629213484"/>
      <point x="545.0" y="-10.0"/>
      <point x="394" y="-10.0" type="qcurve"/>
      <point x="243.0" y="-10.0"/>
      <point x="50.0" y="190.67696629213484"/>
      <point x="50" y="349" type="qcurve"/>
      <point x="50.0" y="506.6895604395604"/>
      <point x="243.0" y="710.0"/>
    </contour>
    <contour>
      <point x="394" y="12" type="qcurve" smooth="yes"/>
      <point x="534.0" y="12.0"/>
      <point x="715.0" y="201.688622754491"/>
      <point x="715" y="349" type="qcurve"/>
      <point x="715.0" y="495.70175438596493"/>
      <point x="534.0" y="688.0"/>
      <point x="394" y="688" type="qcurve" smooth="yes"/>
      <point x="255.0" y="688.0"/>
      <point x="73.0" y="495.70175438596493"/>
      <point x="73" y="349" type="qcurve"/>
      <point x="73.0" y="201.688622754491"/>
      <point x="255.0" y="12.0"/>
    </contour>
  </outline>
</glyph>
<glyph name="P" format="2">
  <advance width="600"/>
  <unicode hex="0050"/>
  <note>
P
</note>
  <anchor x="312.0001824732338" y="0" name="bottom"/>
  <anchor x="312.0001824732338" y="700.0" name="top"/>
  <outline>
    <contour>
      <point x="112" y="700.0" type="line"/>
      <point x="363" y="700.0" type="line" smooth="yes"/>
      <point x="446" y="700.0"/>
      <point x="547.0" y="593"/>
      <point x="547" y="507" type="qcurve" smooth="yes"/>
      <point x="547.0" y="411"/>
      <point x="446" y="291.0"/>
      <point x="363" y="291" type="qcurve"/>
      <point x="120" y="291" type="line"/>
      <point x="134" y="300" type="line"/>
      <point x="134" y="0.0" type="line"/>
      <point x="112" y="0.0" type="line"/>
    </contour>
    <contour>
      <point x="119" y="313" type="line"/>
      <point x="369" y="313" type="line" smooth="yes"/>
      <point x="439" y="313"/>
      <point x="524.0" y="421.0"/>
      <point x="524" y="507" type="qcurve" smooth="yes"/>
      <point x="524.0" y="582.0"/>
      <point x="439" y="678.0"/>
      <point x="369" y="678" type="qcurve"/>
      <point x="121" y="678" type="line"/>
      <point x="134" y="690" type="line"/>
      <point x="134" y="305" type="line"/>
    </contour>
  </outline>
</glyph>
<glyph name="Q" format="2">
  <advance width="789"/>
  <unicode hex="0051"/>
  <note>
Q
</note>
  <anchor x="387.0" y="0" name="bottom"/>
  <anchor x="387.0" y="700.0" name="top"/>
  <outline>
    <contour>
      <point x="413" y="273" type="line"/>
      <point x="666" y="-64" type="line"/>
      <point x="648" y="-78" type="line"/>
      <point x="394" y="260" type="line"/>
    </contour>
    <contour>
      <point x="395" y="710" type="qcurve"/>
      <point x="546" y="710"/>
      <point x="739" y="508"/>
      <point x="739" y="349" type="qcurve"/>
      <point x="739" y="191"/>
      <point x="546" y="-10"/>
      <point x="395" y="-10" type="qcurve"/>
      <point x="244" y="-10"/>
      <point x="51" y="191"/>
      <point x="51" y="349" type="qcurve"/>
      <point x="51" y="507"/>
      <point x="244" y="710"/>
    </contour>
    <contour>
      <point x="395" y="12" type="qcurve" smooth="yes"/>
      <point x="535" y="12"/>
      <point x="716" y="202"/>
      <point x="716" y="349" type="qcurve"/>
      <point x="716" y="496"/>
      <point x="535" y="688"/>
      <point x="395" y="688" type="qcurve" smooth="yes"/>
      <point x="256" y="688"/>
      <point x="74" y="496"/>
      <point x="74" y="349" type="qcurve"/>
      <point x="74" y="202"/>
      <point x="256" y="12"/>
    </contour>
  </outline>
</glyph>
<glyph name="R" format="2">
  <advance width="593"/>
  <unicode hex="0052"/>
  <note>
R
</note>
  <anchor x="317.0009731905801" y="0" name="bottom"/>
  <anchor x="316.0001824732338" y="700.0" name="top"/>
  <outline>
    <contour>
      <point x="370" y="298" type="line"/>
      <point x="393" y="305" type="line"/>
      <point x="571" y="0" type="line"/>
      <point x="545" y="0.0" type="line"/>
    </contour>
    <contour>
      <point x="112" y="700.0" type="line"/>
      <point x="363" y="700.0" type="line" smooth="yes"/>
      <point x="446" y="700.0"/>
      <point x="547.0" y="593"/>
      <point x="547" y="507" type="qcurve" smooth="yes"/>
      <point x="547.0" y="411"/>
      <point x="446" y="291.0"/>
      <point x="363" y="291" type="qcurve"/>
      <point x="120" y="291" type="line"/>
      <point x="134" y="300" type="line"/>
      <point x="134" y="0.0" type="line"/>
      <point x="112" y="0.0" type="line"/>
    </contour>
    <contour>
      <point x="119" y="313" type="line"/>
      <point x="369" y="313" type="line" smooth="yes"/>
      <point x="439" y="313"/>
      <point x="524.0" y="421.0"/>
      <point x="524" y="507" type="qcurve" smooth="yes"/>
      <point x="524.0" y="582.0"/>
      <point x="439" y="678.0"/>
      <point x="369" y="678" type="qcurve"/>
      <point x="121" y="678" type="line"/>
      <point x="134" y="690" type="line"/>
      <point x="134" y="305" type="line"/>
    </contour>
  </outline>
</glyph>
<glyph name="S" format="2">
  <advance width="578"/>
  <unicode hex="0053"/>
  <note>
S
</note>
  <anchor x="302" y="0" name="bottom"/>
  <anchor x="302" y="700.0" name="top"/>
  <outline>
    <contour>
      <point x="63" y="128" type="line" smooth="yes"/>
      <point x="100" y="72"/>
      <point x="213" y="12.0"/>
      <point x="305" y="12" type="qcurve" smooth="yes"/>
      <point x="389" y="12.0"/>
      <point x="506.0" y="102.0"/>
      <point x="506" y="172" type="qcurve" smooth="yes"/>
      <point x="506.0" y="244"/>
      <point x="372" y="312"/>
      <point x="266" y="342" type="qcurve" smooth="yes"/>
      <point x="172.25109650619493" y="368.49425533520576"/>
      <point x="67.0" y="448.0"/>
      <point x="67" y="521" type="qcurve" smooth="yes"/>
      <point x="67.0" y="602.0"/>
      <point x="190" y="710.0"/>
      <point x="280" y="710" type="qcurve" smooth="yes"/>
      <point x="364" y="710.0"/>
      <point x="469" y="654"/>
      <point x="509" y="592" type="qcurve"/>
      <point x="493" y="576" type="line"/>
      <point x="444" y="646"/>
      <point x="345" y="688.0"/>
      <point x="280" y="688" type="qcurve" smooth="yes"/>
      <point x="200" y="688"/>
      <point x="90.0" y="594.0"/>
      <point x="90" y="521" type="qcurve" smooth="yes"/>
      <point x="90.0" y="455.0"/>
      <point x="190.2988931751558" y="385.45639451398256"/>
      <point x="274" y="363" type="qcurve" smooth="yes"/>
      <point x="393" y="331"/>
      <point x="529.0" y="249.0"/>
      <point x="529" y="172" type="qcurve" smooth="yes"/>
      <point x="529.0" y="94"/>
      <point x="400" y="-10.0"/>
      <point x="305" y="-10" type="qcurve" smooth="yes"/>
      <point x="206" y="-10.0"/>
      <point x="87" y="53"/>
      <point x="48" y="111" type="qcurve" smooth="yes"/>
      <point x="42" y="120" type="line"/>
      <point x="57" y="137" type="line"/>
    </contour>
  </outline>
</glyph>
<glyph name="U" format="2">
  <advance width="760"/>
  <unicode hex="0055"/>
  <note>
U
</note>
  <anchor x="378.9998175267662" y="0" name="bottom"/>
  <anchor x="492.50325410600226" y="10.0" name="ogonek"/>
  <anchor x="378.9998175267662" y="700.0" name="top"/>
  <anchor x="517.9998783511775" y="696.000243297645" name="topright"/>
  <outline>
    <contour>
      <point x="620" y="700.0" type="line"/>
      <point x="642" y="700.0" type="line"/>
      <point x="642" y="269.0" type="line"/>
      <point x="642" y="149"/>
      <point x="492.0" y="-6.0"/>
      <point x="376" y="-6.0" type="qcurve"/>
      <point x="263" y="-6.0"/>
      <point x="119.0" y="149.0"/>
      <point x="118" y="269.0" type="qcurve"/>
      <point x="118" y="700.0" type="line"/>
      <point x="140" y="700.0" type="line"/>
      <point x="140" y="278.0" type="line"/>
      <point x="140.0" y="162.5593869731801"/>
      <point x="271.0" y="16.0"/>
      <point x="376" y="16" type="qcurve"/>
      <point x="484.0" y="16.0"/>
      <point x="620.0" y="162.5593869731801"/>
      <point x="620" y="278.0" type="qcurve"/>
    </contour>
  </outline>
</glyph>
<glyph name="V" format="2">
  <advance width="611"/>
  <unicode hex="0056"/>
  <note>
V
</note>
  <anchor x="301" y="0" name="bottom"/>
  <anchor x="301" y="700.0" name="top"/>
  <outline>
    <contour>
      <point x="287" y="0" type="line"/>
      <point x="24" y="700" type="line"/>
      <point x="50" y="700" type="line"/>
      <point x="237" y="201" type="line" smooth="yes"/>
      <point x="261" y="136"/>
      <point x="303" y="28"/>
      <point x="307" y="18" type="qcurve"/>
      <point x="307" y="18" type="line"/>
      <point x="310" y="28"/>
      <point x="350" y="133"/>
      <point x="376" y="202" type="qcurve" smooth="yes"/>
      <point x="562" y="700" type="line"/>
      <point x="588" y="700" type="line"/>
      <point x="325" y="0" type="line"/>
    </contour>
  </outline>
</glyph>
<glyph name="W" format="2">
  <advance width="878"/>
  <unicode hex="0057"/>
  <note>
W
</note>
  <anchor x="438.5011860760195" y="0" name="bottom"/>
  <anchor x="435.5012469004308" y="700.0" name="top"/>
  <outline>
    <contour>
      <point x="224" y="0.0" type="line"/>
      <point x="28" y="700.0" type="line"/>
      <point x="54" y="700.0" type="line"/>
      <point x="196" y="193" type="line" smooth="yes"/>
      <point x="217.20656109232294" y="117.28361638163571"/>
      <point x="223.0374976118559" y="90.87609484778044"/>
      <point x="246" y="15" type="qcurve"/>
      <point x="232" y="15" type="line"/>
      <point x="262.05458847503985" y="89.13465157176505"/>
      <point x="296.3745435556653" y="167.10417409772776"/>
      <point x="311" y="202" type="qcurve" smooth="yes"/>
      <point x="425" y="474" type="line"/>
      <point x="440" y="474" type="line"/>
      <point x="554" y="202" type="line" smooth="yes"/>
      <point x="568.625817974532" y="167.10331149936235"/>
      <point x="603.0821597104683" y="88.79733938084476"/>
      <point x="633" y="15" type="qcurve"/>
      <point x="618" y="15" type="line"/>
      <point x="640.9632170656266" y="90.87845639076636"/>
      <point x="647.7634261731365" y="117.17645823788887"/>
      <point x="669" y="193" type="qcurve" smooth="yes"/>
      <point x="811.0" y="700.0" type="line"/>
      <point x="837.0" y="700.0" type="line"/>
      <point x="641.0" y="0.0" type="line"/>
      <point x="615.0" y="0.0" type="line"/>
      <point x="423" y="453" type="line"/>
      <point x="442" y="453" type="line"/>
      <point x="250" y="0.0" type="line"/>
    </contour>
  </outline>
</glyph>
<glyph name="X" format="2">
  <advance width="591"/>
  <unicode hex="0058"/>
  <note>
X
</note>
  <anchor x="296.00091236616885" y="0" name="bottom"/>
  <anchor x="297.50088195396324" y="700.0" name="top"/>
  <outline>
    <contour>
      <point x="527" y="700.0" type="line"/>
      <point x="555.0019463811602" y="700.0" type="line"/>
      <point x="300" y="349" type="line"/>
      <point x="284" y="366" type="line"/>
    </contour>
    <contour>
      <point x="30.49996958779437" y="700.0" type="line"/>
      <point x="59" y="700.0" type="line"/>
      <point x="282.0019463811602" y="390.0" type="line"/>
      <point x="565.0019463811602" y="0.0" type="line"/>
      <point x="536" y="0.0" type="line"/>
      <point x="308.4999695877944" y="314.0" type="line"/>
    </contour>
    <contour>
      <point x="53" y="0.0" type="line"/>
      <point x="25.49996958779437" y="0.0" type="line"/>
      <point x="285.0001216488225" y="370.5002128854394" type="line"/>
      <point x="300" y="353" type="line"/>
    </contour>
  </outline>
</glyph>
<glyph name="grave" format="2">
  <advance width="243"/>
  <unicode hex="0060"/>
  <anchor x="101.00109483940264" y="522.4998479389718" name="_top"/>
  <outline>
    <contour>
      <point x="215.49996958779437" y="618.0001216488225" type="line"/>
      <point x="200.9995742291212" y="596.9995134047099" type="line"/>
      <point x="56.998965985008624" y="701.4993005192705" type="line"/>
      <point x="73.99993917558874" y="728.0004257708788" type="line"/>
    </contour>
  </outline>
</glyph>
<glyph name="a" format="2">
  <advance width="594"/>
  <unicode hex="0061"/>
  <note>
a
</note>
  <anchor x="300.5002128854394" y="9.999391755887427" name="bottom"/>
  <anchor x="506.00109483940264" y="13.499787114560599" name="ogonek"/>
  <anchor x="296.5002128854394" y="515.0003041220563" name="top"/>
  <outline>
    <contour>
      <point x="500.49911804603676" y="517.5001520610282" type="line"/>
      <point x="520.5008211295519" y="517.5001520610282" type="line"/>
      <point x="520.5008211295519" y="0.0" type="line"/>
      <point x="497.499178870448" y="0.0" type="line"/>
      <point x="497.499178870448" y="132.49984793897187" type="line"/>
      <point x="510.9993917558874" y="157.4994829925043" type="line"/>
      <point x="488.4996046413268" y="83.99987835117749"/>
      <point x="364.99969587794374" y="-10.0"/>
      <point x="282.9998175267662" y="-10.0" type="qcurve"/>
      <point x="173.00006082441126" y="-10.0"/>
      <point x="29.00018247323377" y="141.00012164882253"/>
      <point x="29.00018247323377" y="258.0001216488225" type="qcurve"/>
      <point x="29.00018247323377" y="375.50015206102813"/>
      <point x="175.5000912366169" y="528.5001520610282"/>
      <point x="278.50009123661687" y="528.5001520610282" type="qcurve"/>
      <point x="358.0001216488225" y="528.5001520610282"/>
      <point x="487.4996654657381" y="437.50015206102813"/>
      <point x="511.4993613436818" y="367.50027370985066" type="qcurve"/>
      <point x="492.9992701070649" y="383.0001216488225" type="line"/>
    </contour>
    <contour>
      <point x="56.00176390792646" y="259.50009123661687" type="qcurve"/>
      <point x="56.00176390792646" y="156.00060824411258"/>
      <point x="179.501064427197" y="17.501368549253286"/>
      <point x="280.0004257708788" y="17.501368549253286" type="qcurve"/>
      <point x="373.99993917558874" y="17.501368549253286"/>
      <point x="501.499178870448" y="153.00066906852385"/>
      <point x="501.499178870448" y="259.50009123661687" type="qcurve"/>
      <point x="501.499178870448" y="364.99951340470994"/>
      <point x="375.49990876338313" y="500.99878351177483"/>
      <point x="280.0004257708788" y="500.99878351177483" type="qcurve"/>
      <point x="181.00103401499138" y="500.99878351177483"/>
      <point x="56.00176390792646" y="364.99951340470994"/>
    </contour>
  </outline>
</glyph>
<glyph name="b" format="2">
  <advance width="600"/>
  <unicode hex="0062"/>
  <note>
b
</note>
  <anchor x="295.0004257708788" y="0" name="bottom"/>
  <anchor x="295.0004257708788" y="524.9996958779437" name="top"/>
  <outline>
    <contour>
      <point x="97" y="0" type="line"/>
      <point x="77" y="0" type="line"/>
      <point x="77" y="740" type="line"/>
      <point x="99" y="740" type="line"/>
      <point x="99" y="353" type="line"/>
      <point x="90" y="350" type="line"/>
      <point x="110" y="431"/>
      <point x="234" y="535"/>
      <point x="315" y="535" type="qcurve"/>
      <point x="425" y="535"/>
      <point x="569" y="384"/>
      <point x="569" y="267" type="qcurve"/>
      <point x="569" y="149"/>
      <point x="422" y="-5"/>
      <point x="319" y="-5" type="qcurve"/>
      <point x="239" y="-5"/>
      <point x="107" y="98"/>
      <point x="93" y="175" type="qcurve"/>
      <point x="99" y="172" type="line"/>
    </contour>
    <contour>
      <point x="547" y="267" type="qcurve"/>
      <point x="547" y="373"/>
      <point x="419" y="513"/>
      <point x="316" y="513" type="qcurve"/>
      <point x="224" y="513"/>
      <point x="99" y="375"/>
      <point x="99" y="265" type="qcurve"/>
      <point x="99" y="157"/>
      <point x="224" y="17"/>
      <point x="318" y="17" type="qcurve"/>
      <point x="419" y="17"/>
      <point x="547" y="158"/>
    </contour>
  </outline>
</glyph>
<glyph name="c" format="2">
  <advance width="510"/>
  <unicode hex="0063"/>
  <note>
c
</note>
  <anchor x="293.49930051927055" y="0" name="bottom"/>
  <anchor x="287.00024329764506" y="515.0003041220563" name="top"/>
  <outline>
    <contour>
      <point x="492" y="77" type="line"/>
      <point x="456.39797384397514" y="37.442193159972355"/>
      <point x="356.76" y="-10.0"/>
      <point x="296" y="-10" type="qcurve"/>
      <point x="178" y="-10"/>
      <point x="28" y="144"/>
      <point x="28" y="263" type="qcurve"/>
      <point x="28" y="380"/>
      <point x="178" y="529"/>
      <point x="296" y="529" type="qcurve"/>
      <point x="358.42364532019707" y="529.0"/>
      <point x="459.3711820825793" y="483.57579190562365"/>
      <point x="494" y="444" type="qcurve"/>
      <point x="478" y="426" type="line"/>
      <point x="445.3764209744079" y="463.56654554462125"/>
      <point x="352.44919786096256" y="507.0"/>
      <point x="296" y="507" type="qcurve"/>
      <point x="189" y="507"/>
      <point x="51" y="370"/>
      <point x="50" y="263" type="qcurve" smooth="yes"/>
      <point x="51" y="153"/>
      <point x="189" y="12"/>
      <point x="296" y="12" type="qcurve"/>
      <point x="351.4594594594595" y="12.0"/>
      <point x="443.3804580584138" y="55.43810321877955"/>
      <point x="476" y="93" type="qcurve"/>
    </contour>
    <contour>
      <point x="491" y="74" type="line"/>
      <point x="476" y="93" type="line"/>
    </contour>
    <contour>
      <point x="478" y="426" type="line"/>
      <point x="494" y="444" type="line"/>
    </contour>
  </outline>
</glyph>
<glyph name="d" format="2">
  <advance width="597"/>
  <unicode hex="0064"/>
  <note>
d
</note>
  <anchor x="264.0011556638139" y="9.999391755887427" name="bottom"/>
  <anchor x="500.99969587794374" y="614.0" name="center"/>
  <anchor x="264.0011556638139" y="515.0003041220563" name="top"/>
  <anchor x="596.000243297645" y="510.0" name="topright"/>
  <outline>
    <contour>
      <point x="499" y="740" type="line"/>
      <point x="521" y="740" type="line"/>
      <point x="521" y="0.0" type="line"/>
      <point x="499" y="0.0" type="line"/>
      <point x="499" y="172" type="line"/>
      <point x="508" y="175" type="line"/>
      <point x="488" y="94"/>
      <point x="364" y="-10.0"/>
      <point x="283" y="-10.0" type="qcurve"/>
      <point x="173" y="-10.0"/>
      <point x="29" y="141"/>
      <point x="29" y="258" type="qcurve"/>
      <point x="29.0" y="376"/>
      <point x="176.0" y="530.0"/>
      <point x="279" y="530" type="qcurve"/>
      <point x="359" y="530"/>
      <point x="491" y="427"/>
      <point x="505" y="350" type="qcurve"/>
      <point x="499" y="353" type="line"/>
    </contour>
    <contour>
      <point x="51" y="258" type="qcurve"/>
      <point x="51.0" y="152"/>
      <point x="179" y="12.0"/>
      <point x="282" y="12" type="qcurve"/>
      <point x="374" y="12.0"/>
      <point x="499.0" y="150.0"/>
      <point x="499" y="260" type="qcurve"/>
      <point x="499.0" y="368.0"/>
      <point x="374" y="508.0"/>
      <point x="280" y="508" type="qcurve"/>
      <point x="179" y="508.0"/>
      <point x="51.0" y="367"/>
    </contour>
  </outline>
</glyph>
<glyph name="e" format="2">
  <advance width="517"/>
  <unicode hex="0065"/>
  <note>
e
</note>
  <anchor x="272.5003953586732" y="9.999391755887427" name="bottom"/>
  <anchor x="435.5017334957208" y="10.0" name="ogonek"/>
  <anchor x="273.5003953586732" y="515.0003041220563" name="top"/>
  <outline>
    <contour>
      <point x="498" y="286" type="qcurve"/>
      <point x="498" y="277"/>
      <point x="497.0" y="265.0"/>
      <point x="496" y="255" type="qcurve"/>
      <point x="40" y="255" type="line"/>
      <point x="40" y="277" type="line"/>
      <point x="486" y="277" type="line"/>
      <point x="474" y="265" type="line"/>
      <point x="475" y="272"/>
      <point x="476" y="285"/>
      <point x="476" y="290" type="qcurve"/>
      <point x="476" y="387"/>
      <point x="359" y="507.0"/>
      <point x="276" y="507" type="qcurve"/>
      <point x="174" y="507.0"/>
      <point x="51.00000018818552" y="370.00002013585055"/>
      <point x="50" y="263" type="qcurve" smooth="yes"/>
      <point x="51" y="153"/>
      <point x="183" y="12.0"/>
      <point x="286" y="12" type="qcurve"/>
      <point x="338" y="12.0"/>
      <point x="424" y="51"/>
      <point x="459" y="84" type="qcurve"/>
      <point x="472" y="65" type="line"/>
      <point x="435" y="31"/>
      <point x="343" y="-10.0"/>
      <point x="286" y="-10" type="qcurve"/>
      <point x="172" y="-10.0"/>
      <point x="28.0" y="144.0"/>
      <point x="28" y="263" type="qcurve"/>
      <point x="28.0" y="380.0"/>
      <point x="165.24066390041492" y="529.0"/>
      <point x="273" y="529" type="qcurve"/>
      <point x="372.23580786026196" y="529.0"/>
      <point x="498.0" y="398.0"/>
    </contour>
  </outline>
</glyph>
<glyph name="f" format="2">
  <advance width="350"/>
  <unicode hex="0066"/>
  <note>
f
</note>
  <anchor x="141.50112525160827" y="0" name="bottom"/>
  <anchor x="141.50112525160827" y="524.9996958779437" name="top"/>
  <outline>
    <contour>
      <point x="313.50088195396324" y="521.9998783511775" type="line"/>
      <point x="313.50088195396324" y="500.4983881531017" type="line"/>
      <point x="30.000304122056285" y="500.4983881531017" type="line"/>
      <point x="30.000304122056285" y="521.9998783511775" type="line"/>
    </contour>
    <contour>
      <point x="339.0010340149914" y="692.0000608244112" type="qcurve"/>
      <point x="328.0005474197013" y="671.4988747483917" type="line"/>
      <point x="306.0007298929351" y="696.9986010385411"/>
      <point x="258.501064427197" y="711.9986010385411"/>
      <point x="237.00121648822514" y="711.9986010385411" type="qcurve"/>
      <point x="202.0012773126364" y="711.9986010385411"/>
      <point x="162.50142937366456" y="672.9987835117748"/>
      <point x="162.50142937366456" y="637.9989051605974" type="qcurve"/>
      <point x="162.50142937366456" y="0.0" type="line" smooth="yes"/>
      <point x="175.5006386563182" y="0.0"/>
      <point x="146.00018247323376" y="0.0"/>
      <point x="139.4997871145606" y="0.0" type="qcurve"/>
      <point x="139.4997871145606" y="639.4988747483917" type="line"/>
      <point x="139.4997871145606" y="678.9994525802987"/>
      <point x="196.5003953586732" y="733.0001216488225"/>
      <point x="246.00079071734635" y="733.0001216488225" type="qcurve"/>
      <point x="278.0007907173464" y="733.0001216488225"/>
      <point x="322.0010340149914" y="712.0000608244112"/>
    </contour>
  </outline>
</glyph>
<glyph name="g" format="2">
  <advance width="591"/>
  <unicode hex="0067"/>
  <note>
g
</note>
  <anchor x="270.0011556638139" y="0" name="bottom"/>
  <anchor x="270.0011556638139" y="512.5004561830845" name="top"/>
  <outline>
    <contour>
      <point x="50" y="258" type="qcurve"/>
      <point x="50" y="152"/>
      <point x="179" y="12"/>
      <point x="281" y="12" type="qcurve"/>
      <point x="373" y="12"/>
      <point x="498" y="150"/>
      <point x="498" y="260" type="qcurve"/>
      <point x="498" y="368"/>
      <point x="373" y="508"/>
      <point x="279" y="508" type="qcurve"/>
      <point x="178" y="508"/>
      <point x="50" y="367"/>
    </contour>
    <contour>
      <point x="112" y="-146" type="line"/>
      <point x="142.9206218510347" y="-178.9155006801337"/>
      <point x="228.31176470588235" y="-218.0"/>
      <point x="281" y="-218" type="qcurve"/>
      <point x="367" y="-218"/>
      <point x="498.0" y="-85"/>
      <point x="498" y="30" type="qcurve" smooth="yes"/>
      <point x="498" y="172" type="line"/>
      <point x="507" y="175" type="line"/>
      <point x="487" y="94"/>
      <point x="363" y="-10"/>
      <point x="282" y="-10" type="qcurve"/>
      <point x="172" y="-10"/>
      <point x="28" y="141"/>
      <point x="28" y="258" type="qcurve"/>
      <point x="28" y="376"/>
      <point x="175" y="530"/>
      <point x="278" y="530" type="qcurve"/>
      <point x="358" y="530"/>
      <point x="490" y="427"/>
      <point x="504" y="350" type="qcurve"/>
      <point x="498" y="353" type="line"/>
      <point x="500" y="525" type="line"/>
      <point x="520" y="525" type="line"/>
      <point x="520" y="21" type="line"/>
      <point x="520" y="-101"/>
      <point x="380" y="-240"/>
      <point x="282" y="-240" type="qcurve"/>
      <point x="228" y="-240"/>
      <point x="133" y="-202"/>
      <point x="101" y="-166" type="qcurve"/>
    </contour>
  </outline>
</glyph>
<glyph name="h" format="2">
  <advance width="543"/>
  <unicode hex="0068"/>
  <note>
h
</note>
  <anchor x="271.0004257708788" y="0" name="bottom"/>
  <anchor x="92.00060824411257" y="593.0" name="center"/>
  <anchor x="88.00066906852383" y="745.4996654657381" name="top"/>
  <outline>
    <contour>
      <point x="282" y="529" type="qcurve"/>
      <point x="376.5081081081081" y="529.0"/>
      <point x="468.0" y="428"/>
      <point x="468" y="319" type="qcurve"/>
      <point x="468" y="0.0" type="line"/>
      <point x="446" y="0.0" type="line"/>
      <point x="446" y="313.0" type="line"/>
      <point x="446.0" y="411"/>
      <point x="366.06496157103487" y="505.93422127829825"/>
      <point x="284" y="507" type="qcurve" smooth="yes"/>
      <point x="206.2051282051282" y="507.0"/>
      <point x="99.0" y="391"/>
      <point x="99" y="318.0" type="qcurve"/>
      <point x="99" y="0.0" type="line"/>
      <point x="75" y="0.0"/>
      <point x="101" y="0.0"/>
      <point x="77" y="0.0" type="qcurve"/>
      <point x="77" y="740.0" type="line"/>
      <point x="99" y="740.0" type="line"/>
      <point x="100.00152061028143" y="391.50051700749566" type="line"/>
      <point x="91.00133813704767" y="369.0007298929351" type="line"/>
      <point x="107.4646116181865" y="447.82448685620915"/>
      <point x="222.3125021779726" y="529.0"/>
    </contour>
  </outline>
</glyph>
<glyph name="k" format="2">
  <advance width="483"/>
  <unicode hex="006B"/>
  <note>
k
</note>
  <anchor x="264.00030412205626" y="0" name="bottom"/>
  <anchor x="240.00079071734635" y="524.9996958779437" name="top"/>
  <outline>
    <contour>
      <point x="99.0015814346927" y="0.0" type="line"/>
      <point x="75.49996958779437" y="0.0" type="line"/>
      <point x="75.49996958779437" y="740.0" type="line"/>
      <point x="99.0015814346927" y="740.0" type="line"/>
    </contour>
    <contour>
      <point x="408.0001216488225" y="517.5001520610282" type="line"/>
      <point x="437.5023417398334" y="517.5001520610282" type="line"/>
      <point x="91.50155102248706" y="175.99975670235497" type="line"/>
      <point x="94.00139896145892" y="214.50124690043077" type="line"/>
    </contour>
    <contour>
      <point x="476.0017030835152" y="0.0" type="line"/>
      <point x="442.99969587794374" y="0.0" type="line"/>
      <point x="182.0009731905801" y="301.49857062633544" type="line"/>
      <point x="196.50215926659962" y="323.49948299250434" type="line"/>
    </contour>
  </outline>
</glyph>
<glyph name="l" format="2">
  <advance width="175"/>
  <unicode hex="006C"/>
  <note>
l
</note>
  <anchor x="89.00066906852383" y="0" name="bottom"/>
  <anchor x="89.00066906852383" y="289.0" name="center"/>
  <anchor x="88.50069948072945" y="740.0" name="top"/>
  <anchor x="196.00066906852385" y="580.0" name="topright"/>
  <outline>
    <contour>
      <point x="98" y="0.0" type="line"/>
      <point x="76" y="0.0" type="line"/>
      <point x="76" y="740.0" type="line"/>
      <point x="98" y="740.0" type="line"/>
    </contour>
  </outline>
</glyph>
<glyph name="m" format="2">
  <advance width="891"/>
  <unicode hex="006D"/>
  <note>
m
</note>
  <anchor x="453" y="0" name="bottom"/>
  <anchor x="469" y="525" name="top"/>
  <outline>
    <contour>
      <point x="285" y="530" type="qcurve"/>
      <point x="348.51428571428573" y="530.0"/>
      <point x="440" y="470"/>
      <point x="456" y="395" type="qcurve"/>
      <point x="444" y="389" type="line"/>
      <point x="467" y="458"/>
      <point x="579.3467336683416" y="530.0"/>
      <point x="645" y="530" type="qcurve"/>
      <point x="730" y="530"/>
      <point x="823" y="434"/>
      <point x="823" y="328" type="qcurve"/>
      <point x="823" y="0" type="line"/>
      <point x="801" y="0" type="line"/>
      <point x="801" y="328" type="line"/>
      <point x="801" y="423"/>
      <point x="719" y="508"/>
      <point x="643" y="508" type="qcurve"/>
      <point x="565.0" y="508.0"/>
      <point x="463" y="412"/>
      <point x="463" y="364" type="qcurve"/>
      <point x="463" y="0" type="line"/>
      <point x="441" y="0" type="line"/>
      <point x="441" y="328" type="line"/>
      <point x="441" y="423"/>
      <point x="359" y="508"/>
      <point x="283" y="508" type="qcurve"/>
      <point x="201" y="508"/>
      <point x="96" y="407"/>
      <point x="96" y="376" type="qcurve"/>
      <point x="96" y="0" type="line"/>
      <point x="74" y="0" type="line"/>
      <point x="74" y="525" type="line"/>
      <point x="94" y="525" type="line"/>
      <point x="96" y="423" type="line"/>
      <point x="119" y="468"/>
      <point x="223" y="530"/>
    </contour>
  </outline>
</glyph>
<glyph name="n" format="2">
  <advance width="540"/>
  <unicode hex="006E"/>
  <note>
n
</note>
  <anchor x="267.0007298929351" y="0" name="bottom"/>
  <anchor x="291.00024329764506" y="524.9996958779437" name="top"/>
  <outline>
    <contour>
      <point x="286" y="530" type="qcurve"/>
      <point x="372.0" y="530.0"/>
      <point x="466.0" y="434"/>
      <point x="466" y="328" type="qcurve"/>
      <point x="466" y="0.0" type="line"/>
      <point x="444" y="0.0" type="line"/>
      <point x="444" y="328.0" type="line"/>
      <point x="444.0" y="423"/>
      <point x="361.0" y="508.0"/>
      <point x="284" y="508" type="qcurve"/>
      <point x="201.0" y="508.0"/>
      <point x="95" y="407"/>
      <point x="95" y="376.0" type="qcurve"/>
      <point x="95" y="0.0" type="line"/>
      <point x="87" y="0.0"/>
      <point x="80" y="0.0"/>
      <point x="73" y="0.0" type="qcurve"/>
      <point x="73" y="525" type="line"/>
      <point x="93" y="525" type="line"/>
      <point x="95" y="404" type="line"/>
      <point x="86" y="402" type="line"/>
      <point x="103" y="454"/>
      <point x="216" y="530.0"/>
    </contour>
  </outline>
</glyph>
<glyph name="o" format="2">
  <advance width="591"/>
  <unicode hex="006F"/>
  <note>
o
</note>
  <anchor x="296.0001824732338" y="0" name="bottom"/>
  <anchor x="294.5002128854394" y="256.0" name="center"/>
  <anchor x="536.5002128854394" y="10.0" name="ogonek"/>
  <anchor x="296.0001824732338" y="523.4997871145606" name="top"/>
  <anchor x="308.5002128854394" y="531.0" name="topright"/>
  <outline>
    <contour>
      <point x="296" y="529" type="qcurve"/>
      <point x="415" y="529"/>
      <point x="563" y="380"/>
      <point x="563" y="263.0" type="qcurve"/>
      <point x="563" y="144"/>
      <point x="415" y="-10.0"/>
      <point x="296" y="-10.0" type="qcurve"/>
      <point x="178" y="-10.0"/>
      <point x="28" y="144"/>
      <point x="28" y="263.0" type="qcurve"/>
      <point x="28" y="380"/>
      <point x="178" y="529"/>
    </contour>
    <contour>
      <point x="296" y="12" type="qcurve"/>
      <point x="402" y="12.0"/>
      <point x="540" y="153"/>
      <point x="541" y="263.0" type="qcurve" smooth="yes"/>
      <point x="540" y="369"/>
      <point x="402.0" y="507.0"/>
      <point x="296" y="507" type="qcurve"/>
      <point x="189.0" y="507.0"/>
      <point x="51" y="370"/>
      <point x="50" y="263.0" type="qcurve" smooth="yes"/>
      <point x="51" y="153"/>
      <point x="189" y="12.0"/>
    </contour>
  </outline>
</glyph>
<glyph name="p" format="2">
  <advance width="605"/>
  <unicode hex="0070"/>
  <note>
p
</note>
  <anchor x="334.9996350535325" y="0" name="bottom"/>
  <anchor x="333.4996654657381" y="524.9996958779437" name="top"/>
  <outline>
    <contour>
      <point x="311" y="535" type="qcurve"/>
      <point x="421" y="535"/>
      <point x="565" y="384"/>
      <point x="565" y="267" type="qcurve"/>
      <point x="565" y="149"/>
      <point x="418" y="-5"/>
      <point x="315" y="-5" type="qcurve"/>
      <point x="235" y="-5"/>
      <point x="103" y="98"/>
      <point x="89" y="175" type="qcurve"/>
      <point x="95" y="172" type="line"/>
      <point x="95" y="-230" type="line"/>
      <point x="73" y="-230" type="line"/>
      <point x="73" y="525" type="line"/>
      <point x="93" y="525" type="line"/>
      <point x="95" y="353" type="line"/>
      <point x="86" y="350" type="line"/>
      <point x="106" y="431"/>
      <point x="230" y="535"/>
    </contour>
    <contour>
      <point x="543" y="267" type="qcurve"/>
      <point x="543" y="373"/>
      <point x="415" y="513"/>
      <point x="312" y="513" type="qcurve"/>
      <point x="220" y="513"/>
      <point x="95" y="375"/>
      <point x="95" y="265" type="qcurve"/>
      <point x="95" y="157"/>
      <point x="220" y="17"/>
      <point x="314" y="17" type="qcurve"/>
      <point x="415" y="17"/>
      <point x="543" y="158"/>
    </contour>
  </outline>
</glyph>
<glyph name="q" format="2">
  <advance width="600"/>
  <unicode hex="0071"/>
  <note>
q
</note>
  <anchor x="276.0007907173464" y="0" name="bottom"/>
  <anchor x="274.500821129552" y="524.9996958779437" name="top"/>
  <outline>
    <contour>
      <point x="502.9990268094199" y="517.0001824732337" type="line"/>
      <point x="526.5006386563182" y="517.0001824732337" type="line"/>
      <point x="526.5006386563182" y="-220.0" type="line"/>
      <point x="502.9990268094199" y="-220.0" type="line"/>
      <point x="502.9990268094199" y="133.99981752676624" type="line"/>
      <point x="513.9992092826536" y="160.99927010706492" type="line"/>
      <point x="485.4997871145606" y="83.99987835117749"/>
      <point x="361.49990876338313" y="-10.0"/>
      <point x="276.00024329764506" y="-10.0" type="qcurve"/>
      <point x="170.00024329764503" y="-10.0"/>
      <point x="28.000243297645028" y="142.00006082441126"/>
      <point x="28.000243297645028" y="258.50009123661687" type="qcurve"/>
      <point x="28.000243297645028" y="376.50009123661687"/>
      <point x="175.5000912366169" y="528.5001520610282"/>
      <point x="277.50015206102813" y="528.5001520610282" type="qcurve"/>
      <point x="359.00006082441126" y="528.5001520610282"/>
      <point x="480.50009123661687" y="439.00006082441126"/>
      <point x="508.99951340470994" y="362.5005778319069" type="qcurve"/>
      <point x="495.499178870448" y="383.0001216488225" type="line"/>
    </contour>
    <contour>
      <point x="58.001642259103946" y="260.00006082441126" type="qcurve"/>
      <point x="58.001642259103946" y="156.00060824411258"/>
      <point x="181.0009731905801" y="17.501368549253286"/>
      <point x="281.0003649464675" y="17.501368549253286" type="qcurve"/>
      <point x="376.49984793897187" y="17.501368549253286"/>
      <point x="506.9990268094199" y="153.5006386563182"/>
      <point x="506.9990268094199" y="260.00006082441126" type="qcurve"/>
      <point x="506.9990268094199" y="364.99951340470994"/>
      <point x="377.9998175267662" y="500.4988139239805"/>
      <point x="281.0003649464675" y="500.4988139239805" type="qcurve"/>
      <point x="182.50094277837448" y="500.4988139239805"/>
      <point x="58.001642259103946" y="365.49948299250434"/>
    </contour>
  </outline>
</glyph>
<glyph name="r" format="2">
  <advance width="316"/>
  <unicode hex="0072"/>
  <note>
r
</note>
  <anchor x="84.00085154175761" y="0" name="bottom"/>
  <anchor x="176.50082112955198" y="524.9996958779437" name="top"/>
  <outline>
    <contour>
      <point x="321" y="522" type="qcurve"/>
      <point x="314" y="499" type="line"/>
      <point x="298" y="504"/>
      <point x="269" y="508"/>
      <point x="258" y="508" type="qcurve"/>
      <point x="177" y="508"/>
      <point x="97.0" y="392"/>
      <point x="97" y="338" type="qcurve"/>
      <point x="97" y="0.0" type="line"/>
      <point x="75" y="0.0" type="line"/>
      <point x="75" y="525" type="line"/>
      <point x="95" y="525" type="line"/>
      <point x="96" y="398" type="line"/>
      <point x="90" y="396" type="line"/>
      <point x="100" y="445"/>
      <point x="188.2721893491124" y="530.0"/>
      <point x="263" y="530" type="qcurve"/>
      <point x="280.0" y="530.0"/>
      <point x="309" y="526"/>
    </contour>
  </outline>
</glyph>
<glyph name="s" format="2">
  <advance width="479"/>
  <unicode hex="0073"/>
  <note>
s
</note>
  <anchor x="243.99987835117747" y="0" name="bottom"/>
  <anchor x="242.4999087633831" y="515.0003041220563" name="top"/>
  <outline>
    <contour>
      <point x="40.0" y="81.0" type="qcurve"/>
      <point x="58" y="97" type="line"/>
      <point x="88.62313289692851" y="57.18992723399293"/>
      <point x="190.9230769230769" y="12.0"/>
      <point x="250" y="12" type="qcurve"/>
      <point x="319.5688622754491" y="12.0"/>
      <point x="407.0" y="76.11965811965811"/>
      <point x="407" y="133" type="qcurve"/>
      <point x="407.0" y="177.63708801599643"/>
      <point x="322" y="230"/>
      <point x="241" y="256" type="qcurve" smooth="yes"/>
      <point x="152" y="285"/>
      <point x="60.0" y="350"/>
      <point x="60" y="397.0" type="qcurve"/>
      <point x="60.0" y="457.08955223880594"/>
      <point x="154.0" y="529.0"/>
      <point x="232" y="529" type="qcurve" smooth="yes"/>
      <point x="288" y="529"/>
      <point x="391" y="487"/>
      <point x="426.50015206102813" y="444.50015206102813" type="qcurve"/>
      <point x="411" y="427" type="line"/>
      <point x="377" y="466"/>
      <point x="285" y="507.0"/>
      <point x="232" y="507" type="qcurve"/>
      <point x="168.69934640522877" y="507.0"/>
      <point x="83" y="447"/>
      <point x="83" y="398.0" type="qcurve" smooth="yes"/>
      <point x="83.0" y="361"/>
      <point x="166" y="304"/>
      <point x="245" y="279" type="qcurve" smooth="yes"/>
      <point x="338" y="249"/>
      <point x="430" y="189"/>
      <point x="430" y="133" type="qcurve" smooth="yes"/>
      <point x="430.0" y="67.0"/>
      <point x="331.4736842105263" y="-10.0"/>
      <point x="250" y="-10.0" type="qcurve" smooth="yes"/>
      <point x="177.55" y="-10.0"/>
      <point x="65.42917097521047" y="45.399160634705346"/>
    </contour>
  </outline>
</glyph>
<glyph name="t" format="2">
  <advance width="350"/>
  <unicode hex="0074"/>
  <note>
t
</note>
  <anchor x="176" y="0" name="bottom"/>
  <anchor x="176" y="256.0" name="center"/>
  <anchor x="177" y="665" name="top"/>
  <anchor x="287" y="599" name="topright"/>
  <outline>
    <contour>
      <point x="185" y="659" type="line"/>
      <point x="185" y="0" type="line"/>
      <point x="163" y="0" type="line"/>
      <point x="163" y="659" type="line"/>
    </contour>
    <contour>
      <point x="325" y="525" type="line"/>
      <point x="325" y="503" type="line"/>
      <point x="20" y="503" type="line"/>
      <point x="20" y="525" type="line"/>
    </contour>
  </outline>
</glyph>
<glyph name="v" format="2">
  <advance width="471"/>
  <unicode hex="0076"/>
  <note>
v
</note>
  <anchor x="222.50130772484204" y="0" name="bottom"/>
  <anchor x="222.50130772484204" y="524.9996958779437" name="top"/>
  <outline>
    <contour>
      <point x="234.0" y="0.0" type="line"/>
      <point x="219" y="0.0" type="line"/>
      <point x="8" y="525" type="line"/>
      <point x="33" y="525" type="line"/>
      <point x="233" y="24" type="line"/>
      <point x="220" y="24" type="line"/>
      <point x="420.0" y="525.0" type="line"/>
      <point x="445.0" y="525.0" type="line"/>
    </contour>
  </outline>
</glyph>
<glyph name="w" format="2">
  <advance width="733"/>
  <unicode hex="0077"/>
  <note>
w
</note>
  <anchor x="362" y="0" name="bottom"/>
  <anchor x="362" y="527" name="top"/>
  <outline>
    <contour>
      <point x="699" y="525" type="line"/>
      <point x="723" y="525" type="line"/>
      <point x="538" y="0" type="line"/>
      <point x="524" y="0" type="line"/>
      <point x="359" y="422" type="line"/>
      <point x="374" y="422" type="line"/>
      <point x="209" y="0" type="line"/>
      <point x="195" y="0" type="line"/>
      <point x="10" y="525" type="line"/>
      <point x="34" y="525" type="line"/>
      <point x="210" y="24" type="line"/>
      <point x="195" y="24" type="line"/>
      <point x="359" y="444" type="line"/>
      <point x="374" y="444" type="line"/>
      <point x="538" y="24" type="line"/>
      <point x="523" y="24" type="line"/>
    </contour>
  </outline>
</glyph>
<glyph name="x" format="2">
  <advance width="495"/>
  <unicode hex="0078"/>
  <note>
x
</note>
  <anchor x="250" y="0" name="bottom"/>
  <anchor x="250" y="525" name="top"/>
  <outline>
    <contour>
      <point x="32" y="525" type="line"/>
      <point x="62" y="525" type="line"/>
      <point x="261" y="267" type="line"/>
      <point x="257" y="272" type="line"/>
      <point x="475" y="0" type="line"/>
      <point x="445" y="0" type="line"/>
      <point x="240" y="255" type="line"/>
      <point x="243" y="252" type="line"/>
    </contour>
    <contour>
      <point x="50" y="0" type="line"/>
      <point x="20" y="0" type="line"/>
      <point x="242" y="277" type="line"/>
      <point x="258" y="262" type="line"/>
    </contour>
    <contour>
      <point x="432" y="525" type="line"/>
      <point x="462" y="525" type="line"/>
      <point x="257" y="261" type="line"/>
      <point x="242" y="277" type="line"/>
    </contour>
  </outline>
</glyph>
<glyph name="y" format="2">
  <advance width="490"/>
  <unicode hex="0079"/>
  <note>
y
</note>
  <anchor x="440.5010036027858" y="0" name="bottom"/>
  <anchor x="246.00079071734635" y="524.9996958779437" name="top"/>
  <outline>
    <contour>
      <point x="263.0011556638139" y="36.00018247323377" type="qcurve"/>
      <point x="265.0" y="-16.500942778374487" type="line"/>
      <point x="9.499908763383115" y="517.5001520610282" type="line"/>
      <point x="29.001946381160238" y="517.5001520610282" type="line"/>
      <point x="236.501064427197" y="89.50100360278574" type="line" smooth="yes"/>
      <point x="248.50094277837448" y="63.001277312636404"/>
      <point x="252.0012773126364" y="59.50009123661689"/>
    </contour>
    <contour>
      <point x="185.50173349572083" y="-230.0" type="line"/>
      <point x="162.99993917558874" y="-230.0" type="line"/>
      <point x="238.50015206102813" y="-28.500091236616885" type="line"/>
      <point x="252.00066906852385" y="16.000851541757605" type="line"/>
      <point x="252.50076030514072" y="18.501064427197008"/>
      <point x="251.00103401499138" y="11.001885556748974"/>
      <point x="246.50142937366456" y="-0.9970196038483721" type="qcurve"/>
      <point x="461.49984793897187" y="517.5001520610282" type="line"/>
      <point x="480.0019463811602" y="517.5001520610282" type="line"/>
      <point x="273.0017639079265" y="-13.499726290149342" type="line"/>
    </contour>
  </outline>
</glyph>
<glyph name="z" format="2">
  <advance width="426"/>
  <unicode hex="007A"/>
  <note>
z
</note>
  <anchor x="213.00054741970132" y="0" name="bottom"/>
  <anchor x="209.00079071734635" y="524.9996958779437" name="top"/>
  <outline>
    <contour>
      <point x="44" y="22" type="line"/>
      <point x="391" y="22" type="line"/>
      <point x="391" y="0.0" type="line"/>
      <point x="32.00036494646754" y="0.0" type="line"/>
      <point x="32.00036494646754" y="26.001216488225147" type="line"/>
      <point x="358" y="521" type="line"/>
      <point x="356" y="503" type="line"/>
      <point x="32" y="503" type="line"/>
      <point x="32" y="525" type="line"/>
      <point x="370" y="525" type="line"/>
      <point x="370" y="497" type="line"/>
      <point x="48" y="10" type="line"/>
    </contour>
  </outline>
</glyph>
<glyph name="bar" format="2">
  <advance width="227"/>
  <unicode hex="007C"/>
  <note>
bar
</note>
  <outline>
    <contour>
      <point x="125.00079071734635" y="740.0" type="line"/>
      <point x="125.00079071734635" y="-193.0" type="line"/>
      <point x="101.49930051927055" y="-193.0" type="line"/>
      <point x="101.49930051927055" y="740.0" type="line"/>
    </contour>
  </outline>
</glyph>
<glyph name="asciitilde" format="2">
  <advance width="510"/>
  <unicode hex="007E"/>
  <note>
asciitilde
</note>
  <outline>
    <contour>
      <point x="237.50240256424468" y="362.9972020770822" type="qcurve" smooth="yes"/>
      <point x="306.50069948072945" y="344.9975670235497"/>
      <point x="381.4982056798679" y="326.4982056798679"/>
      <point x="421.9962897109133" y="316.4988139239805" type="qcurve"/>
      <point x="479.4942520931362" y="307.99933093147615"/>
      <point x="531.4924881852097" y="341.9988443361861"/>
      <point x="536.4921840631534" y="373.4982056798679" type="qcurve"/>
      <point x="545.4916366434521" y="373.4982056798679"/>
      <point x="620.9897206744974" y="388.49729331369906"/>
      <point x="620.9897206744974" y="402.4964417719415" type="curve"/>
      <point x="620.9897206744974" y="334.9978103211947"/>
      <point x="588.9888691327399" y="262.9992701070649"/>
      <point x="521.4902376819932" y="262.9992701070649" type="qcurve"/>
      <point x="498.9906938650776" y="229.00133813704767"/>
      <point x="389.49419126872493" y="211.50319328159102"/>
      <point x="277.4976582601666" y="235.50270668630097" type="qcurve" smooth="yes"/>
      <point x="207.99939175588742" y="253.5023417398334"/>
      <point x="133.50185514454336" y="272.0017030835152"/>
      <point x="94.00371028908671" y="282.501064427197" type="qcurve"/>
      <point x="37.0057174946582" y="290.5005778319069"/>
      <point x="-13.992579421826576" y="253.50112525160827"/>
      <point x="-18.492305711975916" y="219.00182473233772" type="qcurve"/>
      <point x="-26.991788704480257" y="219.00182473233772"/>
      <point x="-102.98984232332003" y="205.5026458618897"/>
      <point x="-101.98990314773124" y="195.0032845182079" type="curve"/>
      <point x="-101.98990314773124" y="264.00188555674896"/>
      <point x="-69.98905160597371" y="342.00024329764506"/>
      <point x="-2.490420155226957" y="342.00024329764506" type="qcurve"/>
      <point x="20.00912366168859" y="373.49832732869044"/>
      <point x="125.50580873127507" y="386.9967154817921"/>
    </contour>
  </outline>
</glyph>
<glyph name="cent" format="2">
  <advance width="550"/>
  <unicode hex="00A2"/>
  <note>
cent
</note>
  <anchor x="285.9994525802987" y="88.0" name="bottom"/>
  <anchor x="325.9994525802987" y="618.0" name="top"/>
  <outline>
    <contour>
      <point x="305" y="77" type="line"/>
      <point x="305" y="0" type="line"/>
      <point x="283" y="0" type="line"/>
      <point x="283" y="78" type="line"/>
      <point x="283" y="111" type="line"/>
      <point x="283" y="579" type="line"/>
      <point x="283" y="606" type="line"/>
      <point x="283" y="700" type="line"/>
      <point x="305" y="700" type="line"/>
      <point x="305" y="605" type="line"/>
      <point x="305" y="579" type="line"/>
      <point x="305" y="111" type="line"/>
    </contour>
    <contour>
      <point x="312" y="595" type="qcurve"/>
      <point x="205" y="595"/>
      <point x="67" y="458"/>
      <point x="66" y="351" type="qcurve" smooth="yes"/>
      <point x="67" y="241"/>
      <point x="205" y="100"/>
      <point x="312" y="100" type="qcurve"/>
      <point x="367" y="100"/>
      <point x="459" y="143"/>
      <point x="492" y="181" type="qcurve"/>
      <point x="508" y="166" type="line"/>
      <point x="472" y="126"/>
      <point x="373.0" y="78.0"/>
      <point x="312" y="78" type="qcurve"/>
      <point x="194" y="78"/>
      <point x="44" y="232"/>
      <point x="44" y="351" type="qcurve"/>
      <point x="44.0" y="468.0"/>
      <point x="194.0" y="617.0"/>
      <point x="312" y="617" type="qcurve"/>
      <point x="374.0" y="617.0"/>
      <point x="475" y="571"/>
      <point x="510" y="531" type="qcurve"/>
      <point x="494" y="514" type="line"/>
      <point x="461" y="552"/>
      <point x="368" y="595"/>
    </contour>
    <contour>
      <point x="494" y="514" type="line"/>
      <point x="510" y="531" type="line"/>
    </contour>
  </outline>
</glyph>
<glyph name="sterling" format="2">
  <advance width="610"/>
  <unicode hex="00A3"/>
  <note>
sterling
</note>
  <outline>
    <contour>
      <point x="437.00030412205626" y="352.9993917558874" type="line"/>
      <point x="58.999695877943715" y="352.9993917558874" type="line"/>
      <point x="58.999695877943715" y="382.50051700749566" type="line"/>
      <point x="437.00030412205626" y="382.50051700749566" type="line"/>
    </contour>
    <contour>
      <point x="212.0003041220563" y="79.50069948072945" type="qcurve"/>
      <point x="234.00024329764503" y="79.50069948072945"/>
      <point x="285.0001216488225" y="66.50076030514072"/>
      <point x="334.0" y="50.00079071734635" type="qcurve" smooth="yes"/>
      <point x="382.9998175267662" y="33.000851541757605"/>
      <point x="429.4996046413268" y="28.000790717346348"/>
      <point x="447.49954381691555" y="28.000790717346348" type="qcurve"/>
      <point x="469.4996654657381" y="28.000790717346348"/>
      <point x="513.4999087633831" y="48.00072989293509"/>
      <point x="538.0" y="63.00079071734635" type="qcurve"/>
      <point x="561.500577831907" y="31.000121648822514" type="line"/>
      <point x="535.0004865952901" y="14.999878351177486"/>
      <point x="477.9998783511775" y="-4.500334534261917"/>
      <point x="447.49954381691555" y="-4.500334534261917" type="qcurve"/>
      <point x="428.4996046413268" y="-4.500334534261917"/>
      <point x="371.9998175267662" y="2.499726290149342"/>
      <point x="313.0" y="20.499665465738083" type="qcurve" smooth="yes"/>
      <point x="258.0001824732338" y="37.499604641326826"/>
      <point x="210.50033453426192" y="46.999574229121194"/>
      <point x="194.5003953586732" y="46.999574229121194" type="qcurve"/>
      <point x="168.50027370985066" y="46.999574229121194"/>
      <point x="109.99993917558874" y="25.499665465738083"/>
      <point x="78.99981752676622" y="13.499604641326826" type="qcurve"/>
      <point x="62.999330931476166" y="44.000425770878806" type="line"/>
      <point x="95.99945258029868" y="57.5006386563182"/>
      <point x="169.49996958779437" y="79.50069948072945"/>
    </contour>
    <contour>
      <point x="230.00091236616885" y="224.0" type="qcurve"/>
      <point x="230.00091236616885" y="180.49996958779437"/>
      <point x="216.0004257708788" y="93.00006082441126"/>
      <point x="182.0003041220563" y="57.49990876338311" type="qcurve"/>
      <point x="151.99939175588742" y="78.49990876338312" type="line"/>
      <point x="173.99939175588742" y="90.49990876338312"/>
      <point x="204.99939175588742" y="159.49996958779437"/>
      <point x="204.99939175588742" y="201.0" type="qcurve"/>
      <point x="204.99939175588742" y="229.0"/>
      <point x="192.99939175588742" y="292.0"/>
      <point x="172.99939175588742" y="352.0" type="qcurve" smooth="yes"/>
      <point x="153.49942216809305" y="413.9998783511775"/>
      <point x="143.99939175588742" y="474.99975670235494"/>
      <point x="143.99939175588742" y="501.99969587794374" type="qcurve"/>
      <point x="143.99939175588742" y="588.0"/>
      <point x="250.49972629014934" y="695.0003041220563"/>
      <point x="340.0" y="695.0003041220563" type="qcurve"/>
      <point x="399.50015206102813" y="695.0003041220563"/>
      <point x="486.5003953586732" y="651.5002737098506"/>
      <point x="509.5003953586732" y="611.5002737098506" type="qcurve"/>
      <point x="481.9994525802987" y="589.9995742291212" type="line"/>
      <point x="440.9998175267662" y="633.4991788704481"/>
      <point x="380.9998783511775" y="661.9990876338311"/>
      <point x="340.0" y="661.9990876338311" type="qcurve"/>
      <point x="264.5003953586732" y="661.9990876338311"/>
      <point x="169.00091236616885" y="571.499422168093"/>
      <point x="169.00091236616885" y="500.99969587794374" type="qcurve"/>
      <point x="169.00091236616885" y="476.99975670235494"/>
      <point x="179.50094277837448" y="415.9998783511775"/>
      <point x="200.00091236616885" y="353.0" type="qcurve" smooth="yes"/>
      <point x="219.00091236616885" y="297.0"/>
      <point x="230.00091236616885" y="244.0"/>
    </contour>
  </outline>
</glyph>
<glyph name="currency" format="2">
  <advance width="563"/>
  <unicode hex="00A4"/>
  <note>
currency
</note>
  <outline>
    <contour>
      <point x="457.0" y="302.0" type="qcurve"/>
      <point x="457.0" y="227.0"/>
      <point x="353.0" y="122.0"/>
      <point x="279.0" y="122.0" type="qcurve"/>
      <point x="205.0" y="122.0"/>
      <point x="101.0" y="227.0"/>
      <point x="101.0" y="302.0" type="qcurve"/>
      <point x="101.0" y="377.0"/>
      <point x="205.0" y="482.0"/>
      <point x="279.0" y="482.0" type="qcurve"/>
      <point x="352.0" y="482.0"/>
      <point x="457.0" y="376.0"/>
    </contour>
    <contour>
      <point x="123.50149019807581" y="302.0" type="qcurve"/>
      <point x="123.50149019807581" y="233.50057783190695"/>
      <point x="210.00066906852385" y="147.0012773126364"/>
      <point x="279.0" y="147.0012773126364" type="qcurve"/>
      <point x="348.99933093147615" y="147.0012773126364"/>
      <point x="433.99854021412983" y="233.50057783190695"/>
      <point x="433.99854021412983" y="302.0" type="qcurve"/>
      <point x="433.99854021412983" y="368.9994525802987"/>
      <point x="348.99933093147615" y="456.4987530995692"/>
      <point x="279.0" y="456.4987530995692" type="qcurve"/>
      <point x="210.00066906852385" y="456.4987530995692"/>
      <point x="123.50149019807581" y="368.9994525802987"/>
    </contour>
    <contour>
      <point x="148.0" y="409.9989659850086" type="line"/>
      <point x="76.99945258029868" y="476.49948299250434" type="line"/>
      <point x="94.50051700749569" y="495.50051700749566" type="line"/>
      <point x="167.00103401499138" y="427.5000304122056" type="line"/>
    </contour>
    <contour>
      <point x="469.9991484582424" y="113.99951340470994" type="line"/>
      <point x="397.4986314507467" y="182.0" type="line"/>
      <point x="416.4996654657381" y="199.501064427197" type="line"/>
      <point x="487.5002128854394" y="133.00054741970132" type="line"/>
    </contour>
    <contour>
      <point x="393.9988443361861" y="426.0001216488225" type="line"/>
      <point x="469.499178870448" y="491.0007907173464" type="line"/>
      <point x="486.50027370985066" y="471.99975670235494" type="line"/>
      <point x="412.9998783511775" y="408.4990572216255" type="line"/>
    </contour>
    <contour>
      <point x="72.99969587794371" y="137.0003041220563" type="line"/>
      <point x="147.00006082441126" y="200.50100360278574" type="line"/>
      <point x="165.50112525160827" y="183.4999087633831" type="line"/>
      <point x="90.00079071734635" y="117.99927010706492" type="line"/>
    </contour>
  </outline>
</glyph>
<glyph name="yen" format="2">
  <advance width="632"/>
  <unicode hex="00A5"/>
  <note>
yen
</note>
  <anchor x="333.5000304122056" y="-1.0" name="bottom"/>
  <anchor x="333.99993917558874" y="700.0" name="top"/>
  <anchor x="67.49984793897185" y="700.0" name="topleft"/>
  <outline>
    <contour>
      <point x="490.5013685492533" y="141.99890516059736" type="line"/>
      <point x="153.49984793897187" y="140.99896598500862" type="line"/>
      <point x="153.49984793897187" y="170.00012164882253" type="line"/>
      <point x="490.5013685492533" y="171.00006082441126" type="line"/>
    </contour>
    <contour>
      <point x="490.5013685492533" y="287.99878351177483" type="line"/>
      <point x="153.49984793897187" y="286.9988443361861" type="line"/>
      <point x="153.49984793897187" y="316.0" type="line"/>
      <point x="490.5013685492533" y="316.99993917558874" type="line"/>
    </contour>
    <contour>
      <point x="566.4991788704481" y="700.0" type="line"/>
      <point x="591.5011860760195" y="700.0" type="line"/>
      <point x="320.5011860760195" y="289.0" type="line"/>
      <point x="335.5011860760195" y="357.0" type="line"/>
      <point x="335.5011860760195" y="0.0" type="line"/>
      <point x="315.9993917558874" y="0.0" type="line"/>
      <point x="315.9993917558874" y="349.0" type="line"/>
      <point x="322.9993917558874" y="300.0" type="line"/>
      <point x="39.99939175588743" y="700.0" type="line"/>
      <point x="68.00145978587018" y="700.0" type="line"/>
      <point x="332.00048659529006" y="327.0012773126364" type="line"/>
      <point x="319.00024329764506" y="325.5013685492533" type="line"/>
    </contour>
  </outline>
</glyph>
<glyph name="copyright" format="2">
  <advance width="786"/>
  <unicode hex="00A9"/>
  <note>
copyright
</note>
  <outline>
    <contour>
      <point x="750.0" y="350.0" type="qcurve" smooth="yes"/>
      <point x="750.0" y="201.0"/>
      <point x="541.0" y="-7.0"/>
      <point x="393.0" y="-7.0" type="qcurve" smooth="yes"/>
      <point x="244.0" y="-7.0"/>
      <point x="36.0" y="201.0"/>
      <point x="36.0" y="350.0" type="qcurve" smooth="yes"/>
      <point x="36.0" y="499.0"/>
      <point x="244.0" y="707.0"/>
      <point x="393.0" y="707.0" type="qcurve" smooth="yes"/>
      <point x="541.0" y="707.0"/>
      <point x="750.0" y="499.0"/>
    </contour>
    <contour>
      <point x="71.00079071734635" y="350.0" type="qcurve" smooth="yes"/>
      <point x="71.00079071734635" y="215.01152655357495"/>
      <point x="258.5003345342619" y="28.000790717346348"/>
      <point x="393.0" y="28.000790717346348" type="qcurve" smooth="yes"/>
      <point x="527.988473446425" y="28.000790717346348"/>
      <point x="714.9992092826536" y="215.50033453426192"/>
      <point x="714.9992092826536" y="350.0" type="qcurve" smooth="yes"/>
      <point x="714.9992092826536" y="485.4996654657381"/>
      <point x="527.4996654657381" y="671.9992092826536"/>
      <point x="393.0" y="671.9992092826536" type="qcurve" smooth="yes"/>
      <point x="258.5003345342619" y="671.9992092826536"/>
      <point x="71.00079071734635" y="485.9693045060059"/>
    </contour>
    <contour>
      <point x="399.00024329764506" y="142.0" type="qcurve" smooth="yes"/>
      <point x="309.00024329764506" y="142.0"/>
      <point x="185.00024329764503" y="260.0"/>
      <point x="185.00024329764503" y="350.0" type="qcurve" smooth="yes"/>
      <point x="185.00024329764503" y="436.0"/>
      <point x="309.00024329764506" y="557.0"/>
      <point x="399.00024329764506" y="557.0" type="qcurve" smooth="yes"/>
      <point x="433.00024329764506" y="557.0"/>
      <point x="499.00024329764506" y="534.0"/>
      <point x="528.000243297645" y="512.0" type="qcurve"/>
      <point x="514.999756702355" y="493.9988443361861" type="line"/>
      <point x="505.4993613436818" y="504.4990572216255"/>
      <point x="439.9998175267662" y="529.9989051605974"/>
      <point x="399.00024329764506" y="529.9989051605974" type="qcurve" smooth="yes"/>
      <point x="323.00066906852385" y="529.9989051605974"/>
      <point x="214.0013989614589" y="420.9996350535325"/>
      <point x="214.0013989614589" y="350.0" type="qcurve" smooth="yes"/>
      <point x="214.0013989614589" y="274.5003953586732"/>
      <point x="321.50069948072945" y="169.00109483940264"/>
      <point x="399.00024329764506" y="169.00109483940264" type="qcurve" smooth="yes"/>
      <point x="436.99993917558874" y="169.00109483940264"/>
      <point x="493.99975670235494" y="183.5011860760195"/>
      <point x="520.4997262901494" y="201.00121648822514" type="qcurve"/>
      <point x="532.000243297645" y="185.0" type="line"/>
      <point x="502.00024329764506" y="164.0"/>
      <point x="434.00024329764506" y="142.0"/>
    </contour>
  </outline>
</glyph>
<glyph name="logicalnot" format="2">
  <advance width="670"/>
  <unicode hex="00AC"/>
  <note>
logicalnot
</note>
  <outline>
    <contour>
      <point x="605.0003041220563" y="117.0" type="line"/>
      <point x="585.4985706263354" y="117.0" type="line"/>
      <point x="585.4985706263354" y="378.99878351177483" type="line"/>
      <point x="604.4985706263354" y="366.99878351177483" type="line"/>
      <point x="64.99969587794371" y="366.99878351177483" type="line"/>
      <point x="64.99969587794371" y="389.00030412205626" type="line"/>
      <point x="605.0003041220563" y="389.00030412205626" type="line"/>
    </contour>
  </outline>
</glyph>
<glyph name="registered" format="2">
  <advance width="525"/>
  <unicode hex="00AE"/>
  <note>
registered
</note>
  <outline>
    <contour>
      <point x="490" y="483" type="qcurve" smooth="yes"/>
      <point x="490" y="389"/>
      <point x="355" y="257"/>
      <point x="259" y="257" type="qcurve" smooth="yes"/>
      <point x="164" y="257"/>
      <point x="28" y="389"/>
      <point x="28" y="483" type="qcurve" smooth="yes"/>
      <point x="28" y="577"/>
      <point x="165" y="709"/>
      <point x="259" y="709" type="qcurve" smooth="yes"/>
      <point x="355" y="709"/>
      <point x="490" y="577"/>
    </contour>
    <contour>
      <point x="345" y="532.0" type="qcurve" smooth="yes"/>
      <point x="345.0" y="502"/>
      <point x="301.0" y="464"/>
      <point x="268" y="464" type="qcurve" smooth="yes"/>
      <point x="204" y="464" type="line"/>
      <point x="211" y="469.0" type="line"/>
      <point x="211" y="367.0" type="line"/>
      <point x="191" y="367.0" type="line"/>
      <point x="191" y="606" type="line"/>
      <point x="268" y="606" type="line" smooth="yes"/>
      <point x="303" y="606"/>
      <point x="345.0" y="565.0"/>
    </contour>
    <contour>
      <point x="204" y="484" type="line"/>
      <point x="263" y="484" type="line" smooth="yes"/>
      <point x="290" y="484"/>
      <point x="324.0" y="512.0"/>
      <point x="324" y="533" type="qcurve"/>
      <point x="324.0" y="558"/>
      <point x="295.0" y="586"/>
      <point x="265" y="586" type="qcurve" smooth="yes"/>
      <point x="200" y="586" type="line"/>
      <point x="211" y="594" type="line"/>
      <point x="211" y="478" type="line"/>
    </contour>
    <contour>
      <point x="49" y="483" type="qcurve" smooth="yes"/>
      <point x="49" y="397"/>
      <point x="173" y="278"/>
      <point x="259" y="278" type="qcurve" smooth="yes"/>
      <point x="346" y="278"/>
      <point x="469" y="397"/>
      <point x="469" y="483" type="qcurve" smooth="yes"/>
      <point x="469" y="570"/>
      <point x="346" y="688"/>
      <point x="259" y="688" type="qcurve" smooth="yes"/>
      <point x="173" y="688"/>
      <point x="49" y="570"/>
    </contour>
    <contour>
      <point x="314" y="367.0" type="line"/>
      <point x="273" y="471.0" type="line"/>
      <point x="292" y="479.0" type="line"/>
      <point x="337" y="367.0" type="line"/>
    </contour>
  </outline>
</glyph>
<glyph name="degree" format="2">
  <advance width="532"/>
  <unicode hex="00B0"/>
  <note>
degree
</note>
  <outline>
    <contour>
      <point x="422.0" y="554.0" type="qcurve"/>
      <point x="422.0" y="489.0"/>
      <point x="332.0" y="399.0"/>
      <point x="266.0" y="399.0" type="qcurve"/>
      <point x="200.0" y="399.0"/>
      <point x="110.0" y="489.0"/>
      <point x="110.0" y="553.0" type="qcurve"/>
      <point x="110.0" y="619.0"/>
      <point x="199.0" y="709.0"/>
      <point x="266.0" y="709.0" type="qcurve"/>
      <point x="333.0" y="709.0"/>
      <point x="422.0" y="619.0"/>
    </contour>
    <contour>
      <point x="141.50088195396324" y="553.0" type="qcurve"/>
      <point x="141.50088195396324" y="499.8819260199958"/>
      <point x="215.50033453426192" y="424.0008515417576"/>
      <point x="266.0" y="424.0008515417576" type="qcurve"/>
      <point x="317.11891896528624" y="424.0008515417576"/>
      <point x="390.49911804603676" y="501.5003345342619"/>
      <point x="390.49911804603676" y="554.0" type="qcurve"/>
      <point x="390.49911804603676" y="607.1126965146628"/>
      <point x="316.4996654657381" y="684.4991180460368"/>
      <point x="266.0" y="684.4991180460368" type="qcurve"/>
      <point x="214.50033453426192" y="684.4991180460368"/>
      <point x="141.50088195396324" y="607.1203425365495"/>
    </contour>
  </outline>
</glyph>
<glyph name="plusminus" format="2">
  <advance width="582"/>
  <unicode hex="00B1"/>
  <note>
plusminus
</note>
  <outline>
    <contour>
      <point x="529.0000608244112" y="346.4987530995692" type="line"/>
      <point x="52.99993917558874" y="346.4987530995692" type="line"/>
      <point x="52.99993917558874" y="373.5000304122056" type="line"/>
      <point x="529.0000608244112" y="373.5000304122056" type="line"/>
    </contour>
    <contour>
      <point x="302.0008515417576" y="178.99927010706492" type="line"/>
      <point x="278.9992092826536" y="178.99927010706492" type="line"/>
      <point x="278.9992092826536" y="520.5002737098506" type="line"/>
      <point x="302.0008515417576" y="520.5002737098506" type="line"/>
    </contour>
    <contour>
      <point x="529.0000608244112" y="63.498692275157964" type="line"/>
      <point x="52.99993917558874" y="63.498692275157964" type="line"/>
      <point x="52.99993917558874" y="89.50003041220563" type="line"/>
      <point x="529.0000608244112" y="89.50003041220563" type="line"/>
    </contour>
  </outline>
</glyph>
<glyph name="acute" format="2">
  <advance width="269"/>
  <unicode hex="00B4"/>
  <anchor x="167.99854021412983" y="495.5014901980758" name="_top"/>
  <outline>
    <contour>
      <point x="208.50076030514072" y="701.4993005192705" type="line"/>
      <point x="64.50015206102815" y="596.9995134047099" type="line"/>
      <point x="53" y="614" type="line"/>
      <point x="195" y="722" type="line"/>
    </contour>
  </outline>
</glyph>
<glyph name="micro" format="2">
  <advance width="549"/>
  <unicode hex="00B5"/>
  <note>
uni00B5
</note>
  <outline>
    <contour>
      <point x="447.4994221680931" y="517.5001520610282" type="line"/>
      <point x="474.0008515417576" y="517.5001520610282" type="line"/>
      <point x="474.0008515417576" y="0.0" type="line"/>
      <point x="450.4993613436818" y="0.0" type="line"/>
      <point x="442.99951340470994" y="140.49911804603676" type="line"/>
      <point x="462.9991484582424" y="139.99896598500862" type="line"/>
      <point x="418.99975670235494" y="52.0"/>
      <point x="311.0001824732338" y="-10.0"/>
      <point x="257.00024329764506" y="-10.0" type="qcurve"/>
      <point x="193.00091236616885" y="-10.0"/>
      <point x="108.50142937366455" y="39.49966546573808"/>
      <point x="68.00206802998275" y="107.49881392398048" type="qcurve"/>
      <point x="93.00170308351521" y="102.49917887044802" type="line"/>
      <point x="94.50167267130958" y="-157.0" type="line"/>
      <point x="69.5002128854394" y="-157.0" type="line"/>
      <point x="69.5002128854394" y="517.5001520610282" type="line"/>
      <point x="96.00164225910395" y="517.5001520610282" type="line"/>
      <point x="96.00164225910395" y="193.50057783190695" type="line" smooth="yes"/>
      <point x="96.00164225910395" y="101.50100360278574"/>
      <point x="168.0012773126364" y="17.001277312636404"/>
      <point x="245.00079071734635" y="17.001277312636404" type="qcurve"/>
      <point x="330.5002128854394" y="17.001277312636404"/>
      <point x="447.4994221680931" y="124.00079071734635"/>
      <point x="447.4994221680931" y="192.00060824411258" type="qcurve"/>
    </contour>
  </outline>
</glyph>
<glyph name="paragraph" format="2">
  <advance width="594"/>
  <unicode hex="00B6"/>
  <note>
paragraph
</note>
  <outline>
    <contour>
      <point x="482" y="0.0" type="line"/>
      <point x="460" y="0.0" type="line"/>
      <point x="460" y="690" type="line"/>
      <point x="471" y="678" type="line"/>
      <point x="331" y="678" type="line"/>
      <point x="342" y="690" type="line"/>
      <point x="342" y="0.0" type="line"/>
      <point x="320" y="0.0" type="line"/>
      <point x="320" y="291.0" type="line"/>
      <point x="331" y="279.0" type="line"/>
      <point x="265.9993917558874" y="279.0" type="line" smooth="yes"/>
      <point x="185" y="279"/>
      <point x="77.99939175588743" y="396.0"/>
      <point x="77.99939175588743" y="486.0" type="qcurve" smooth="yes"/>
      <point x="77.99939175588743" y="583.0"/>
      <point x="200.99939175588742" y="700.0"/>
      <point x="302.9993917558874" y="700.0" type="qcurve"/>
      <point x="482" y="700.0" type="line"/>
    </contour>
  </outline>
</glyph>
<glyph name="cedilla" format="2">
  <advance width="267"/>
  <unicode hex="00B8"/>
  <anchor x="141.0" y="0" name="_bottom"/>
  <outline>
    <contour>
      <point x="94.00012164882251" y="-91.00012164882251" type="line"/>
      <point x="62.999574229121194" y="-84.00012164882251" type="line"/>
      <point x="116.99993917558874" y="-2.9994525802986836" type="line"/>
      <point x="153.5003953586732" y="-2.9994525802986836" type="line"/>
    </contour>
    <contour>
      <point x="200.00060824411258" y="-133.00012164882253" type="qcurve" smooth="yes"/>
      <point x="200.00060824411258" y="-151.5002128854394"/>
      <point x="176.50027370985066" y="-195.0003041220563"/>
      <point x="156.0" y="-204.0004257708788" type="qcurve" smooth="yes"/>
      <point x="132.0" y="-214.0004257708788"/>
      <point x="87.99969587794371" y="-222.50045618308442"/>
      <point x="54.999695877943715" y="-223.0004257708788" type="qcurve"/>
      <point x="47.999695877943715" y="-199.99981752676624" type="line"/>
      <point x="97.49942216809305" y="-196.99987835117747"/>
      <point x="170.4994829925043" y="-173.49966546573808"/>
      <point x="170.4994829925043" y="-140.99993917558874" type="qcurve"/>
      <point x="170.4994829925043" y="-121.00006082441126"/>
      <point x="128.49930051927055" y="-93.50015206102815"/>
      <point x="75.9995742291212" y="-94.00012164882251" type="qcurve"/>
      <point x="62.499604641326826" y="-83.50015206102815" type="line"/>
      <point x="62.999574229121194" y="-84.00012164882251" type="line"/>
      <point x="92.00018247323378" y="-64.99951340470994" type="line"/>
      <point x="145.5003953586732" y="-69.9995742291212"/>
      <point x="200.00060824411258" y="-104.99987835117749"/>
    </contour>
  </outline>
</glyph>
<glyph name="ordmasculine" format="2">
  <advance width="354"/>
  <unicode hex="00BA"/>
  <note>
ordmasculine
</note>
  <outline>
    <contour>
      <point x="176.0" y="710.0" type="qcurve"/>
      <point x="236.63936946947953" y="710.0"/>
      <point x="319.00030412205626" y="617.0"/>
      <point x="319.00030412205626" y="549.0" type="qcurve"/>
      <point x="319.00030412205626" y="482.0"/>
      <point x="237.54443468544196" y="392.0"/>
      <point x="176.0" y="392.0" type="qcurve"/>
      <point x="115.44217707578352" y="392.0"/>
      <point x="34.999695877943715" y="481.0"/>
      <point x="34.999695877943715" y="549.0" type="qcurve"/>
      <point x="34.999695877943715" y="618.0"/>
      <point x="115.44217707578352" y="710.0"/>
    </contour>
    <contour>
      <point x="21.50313245717976" y="591.9973845503159" type="qcurve"/>
      <point x="6.0040752355542395" y="513.9989659850087"/>
      <point x="73.14065262678116" y="392.5024025642447"/>
      <point x="141.50209844218838" y="373.5035582280585" type="qcurve"/>
      <point x="212.26153334466198" y="353.5047747162837"/>
      <point x="317.99774949678346" y="426.00431853319924"/>
      <point x="333.49680671840895" y="504.0027370985066" type="qcurve"/>
      <point x="348.9958639400345" y="585.0010948394026"/>
      <point x="280.7573668724908" y="710.4975366113441"/>
      <point x="209.99793197001725" y="730.496320123119" type="qcurve"/>
      <point x="138.90202832199375" y="749.495164459305"/>
      <point x="36.5022200910109" y="672.995742291212"/>
    </contour>
  </outline>
</glyph>
<glyph name="Thorn" format="2">
  <advance width="567"/>
  <unicode hex="00DE"/>
  <note>
Thorn
</note>
  <anchor x="265.0006082441126" y="0" name="bottom"/>
  <anchor x="265.0006082441126" y="700.0" name="top"/>
  <outline>
    <contour>
      <point x="112.99969587794371" y="700.0" type="line"/>
      <point x="134.00145978587017" y="700.0" type="line"/>
      <point x="134.00145978587017" y="0.0" type="line"/>
      <point x="112.99969587794371" y="0.0" type="line"/>
    </contour>
    <contour>
      <point x="105.00188555674897" y="170.99939175588742" type="line"/>
      <point x="104.00188555674897" y="200.00091236616885" type="line"/>
      <point x="330.0010340149914" y="200.00091236616885" type="line" smooth="yes"/>
      <point x="409.00024329764506" y="200.00091236616885"/>
      <point x="489.4997871145606" y="294.0003649464675"/>
      <point x="489.4997871145606" y="358.0" type="qcurve" smooth="yes"/>
      <point x="489.4997871145606" y="423.4996046413268"/>
      <point x="406.00030412205626" y="513.9990876338311"/>
      <point x="330.0010340149914" y="513.9990876338311" type="qcurve"/>
      <point x="132.0003041220563" y="513.9990876338311" type="line"/>
      <point x="146.49942216809305" y="543.0006082441125" type="line"/>
      <point x="332.0010340149914" y="543.0006082441125" type="line"/>
      <point x="411.0011556638139" y="543.0006082441125"/>
      <point x="514.0015206102814" y="436.00024329764506"/>
      <point x="514.0015206102814" y="358.0" type="qcurve" smooth="yes"/>
      <point x="514.0015206102814" y="279.99975670235494"/>
      <point x="411.0011556638139" y="170.99939175588742"/>
      <point x="330.501064427197" y="170.99939175588742" type="qcurve"/>
    </contour>
  </outline>
</glyph>
<glyph name="germandbls" format="2">
  <advance width="580"/>
  <unicode hex="00DF"/>
  <note>
germandbls
</note>
  <outline>
    <contour>
      <point x="96.00170308351521" y="451.9990268094199" type="line"/>
      <point x="4.500821129551973" y="451.9990268094199" type="line"/>
      <point x="4.500821129551973" y="476.0004257708788" type="line"/>
      <point x="96.00170308351521" y="476.0004257708788" type="line"/>
    </contour>
    <contour>
      <point x="97.00261544968407" y="0.0" type="line"/>
      <point x="70.50118607601952" y="0.0" type="line"/>
      <point x="70.50118607601952" y="499.0" type="line" smooth="yes"/>
      <point x="70.50118607601952" y="601.0000608244112"/>
      <point x="185.00133813704767" y="728.0001216488225"/>
      <point x="285.0013989614589" y="728.0001216488225" type="qcurve"/>
      <point x="368.5015510224871" y="728.0001216488225"/>
      <point x="467.5017334957208" y="637.5001520610282"/>
      <point x="467.5017334957208" y="576.9999391755888" type="qcurve"/>
      <point x="467.5017334957208" y="498.50069948072945"/>
      <point x="352.00291957174034" y="400.00121648822517"/>
      <point x="272.0035886402642" y="400.0007907173464" type="qcurve"/>
      <point x="282.0033453426191" y="425.0003649464675" type="line"/>
      <point x="426.0020072055715" y="386.5006386563182"/>
      <point x="542.5016118468983" y="268.0004257708788"/>
      <point x="542.5016118468983" y="186.50033453426192" type="qcurve"/>
      <point x="542.5016118468983" y="104.50015206102815"/>
      <point x="438.50142937366456" y="-10.0"/>
      <point x="341.00164225910396" y="-10.0" type="qcurve"/>
      <point x="279.5019159689546" y="-10.0"/>
      <point x="186.5023417398334" y="40.99963505353246"/>
      <point x="159.5023417398334" y="74.99963505353246" type="qcurve"/>
      <point x="187.50282833512347" y="98.50027370985066" type="line"/>
      <point x="210.00291957174036" y="68.50039535867317"/>
      <point x="290.5022200910109" y="21.500942778374487"/>
      <point x="346.0015814346927" y="21.500942778374487" type="qcurve"/>
      <point x="422.0009731905801" y="21.500942778374487"/>
      <point x="514.5002128854394" y="115.0004257708788"/>
      <point x="514.5002128854394" y="191.99993917558874" type="qcurve"/>
      <point x="514.5002128854394" y="268.4999695877944"/>
      <point x="391.5009427783745" y="376.99969587794374"/>
      <point x="258.5017334957208" y="411.9994525802987" type="qcurve"/>
      <point x="258.5017334957208" y="432.0003649464675" type="line"/>
      <point x="347.00109483940264" y="437.5007603051407"/>
      <point x="436.0004257708788" y="512.5003953586731"/>
      <point x="436.0004257708788" y="570.9998783511775" type="qcurve"/>
      <point x="436.0004257708788" y="625.9995134047099"/>
      <point x="356.50088195396324" y="700.9988443361862"/>
      <point x="290.00121648822517" y="700.9988443361862" type="qcurve"/>
      <point x="198.50191596895462" y="700.9988443361862"/>
      <point x="97.00261544968407" y="589.9995134047099"/>
      <point x="97.00261544968407" y="503.4999695877944" type="qcurve"/>
    </contour>
  </outline>
</glyph>
<glyph name="ae" format="2">
  <advance width="883"/>
  <unicode hex="00E6"/>
  <note>
ae
</note>
  <anchor x="410.0" y="0" name="bottom"/>
  <anchor x="452.0" y="515.0" name="top"/>
  <outline>
    <contour>
      <point x="249.0003041220563" y="528.5001520610282" type="qcurve"/>
      <point x="333.00048659529006" y="528.5001520610282"/>
      <point x="433.00066906852385" y="444.00030412205626"/>
      <point x="433.00066906852385" y="367.0004257708788" type="qcurve"/>
      <point x="433.00066906852385" y="301.9992092826536" type="line"/>
      <point x="413.499178870448" y="304.9990268094199" type="line"/>
      <point x="413.499178870448" y="367.99975670235494" type="line"/>
      <point x="413.499178870448" y="427.49930051927055"/>
      <point x="340.49930051927055" y="500.99878351177483"/>
      <point x="247.0003041220563" y="500.99878351177483" type="qcurve"/>
      <point x="188.00060824411258" y="500.99878351177483"/>
      <point x="96.00103401499138" y="452.9990268094199"/>
      <point x="55.001277312636404" y="408.499178870448" type="qcurve"/>
      <point x="34.50033453426192" y="427.50015206102813" type="line"/>
      <point x="83.5002128854394" y="479.50009123661687"/>
      <point x="187.0003041220563" y="528.5001520610282"/>
    </contour>
    <contour>
      <point x="446.5003953586732" y="264.0" type="qcurve"/>
      <point x="446.5003953586732" y="150.50069948072945"/>
      <point x="554.5003953586731" y="18.001338137047668"/>
      <point x="665.999756702355" y="18.001338137047668" type="qcurve"/>
      <point x="700.4998479389718" y="18.001338137047668"/>
      <point x="779.4996046413269" y="42.501368549253286"/>
      <point x="831.9993309314762" y="84.00121648822514" type="qcurve"/>
      <point x="846.0000608244112" y="66.00006082441126" type="line"/>
      <point x="814.4999695877943" y="35.49996958779437"/>
      <point x="724.4994829925043" y="-10.0"/>
      <point x="657.4997262901494" y="-10.0" type="qcurve"/>
      <point x="551.499422168093" y="-10.0"/>
      <point x="413.499178870448" y="140.99993917558874"/>
      <point x="413.499178870448" y="262.9998783511775" type="qcurve"/>
      <point x="413.499178870448" y="393.99969587794374"/>
      <point x="539.9995134047099" y="528.5001520610282"/>
      <point x="650.9993917558875" y="528.5001520610282" type="qcurve"/>
      <point x="755.9993309314762" y="529.0001216488225"/>
      <point x="860.4999695877943" y="393.99993917558874"/>
      <point x="860.4999695877943" y="283.99993917558874" type="qcurve"/>
      <point x="859.4999695877943" y="266.9993917558874" type="line"/>
      <point x="261.0" y="266.9993917558874" type="line" smooth="yes"/>
      <point x="168.5006386563182" y="266.9993917558874"/>
      <point x="69.00133813704767" y="205.49972629014934"/>
      <point x="69.00133813704767" y="151.0" type="qcurve"/>
      <point x="69.00133813704767" y="92.50051700749569"/>
      <point x="154.50057783190695" y="21.00115566381389"/>
      <point x="220.0" y="21.00115566381389" type="qcurve"/>
      <point x="290.57247952339793" y="21.00115566381389"/>
      <point x="406.12535584485715" y="95.20841773942101"/>
      <point x="436.9989659850086" y="154.5003953586732" type="qcurve"/>
      <point x="462.99933093147615" y="132.4994829925043" type="line"/>
      <point x="427.99933093147615" y="66.99975670235497"/>
      <point x="289.8972352288654" y="-10.0"/>
      <point x="216.0" y="-10.0" type="qcurve"/>
      <point x="140.0" y="-10.0"/>
      <point x="38.0" y="77.0"/>
      <point x="38.0" y="149.0" type="qcurve"/>
      <point x="38.0" y="222.5002128854394"/>
      <point x="156.50003041220563" y="296.00048659529006"/>
      <point x="274.0" y="296.50045618308445" type="qcurve"/>
      <point x="863.4980840310454" y="296.50045618308445" type="line"/>
      <point x="837.9982969164848" y="275.0005474197013" type="line"/>
      <point x="837.9982969164848" y="297.5005778319069" type="line"/>
      <point x="841.998114443251" y="363.00024329764506"/>
      <point x="754.4983273286904" y="500.99878351177483"/>
      <point x="649.499422168093" y="500.99878351177483" type="qcurve"/>
      <point x="565.4996046413269" y="500.99878351177483"/>
      <point x="446.5003953586732" y="379.4994221680931"/>
    </contour>
  </outline>
</glyph>
<glyph name="divide" format="2">
  <advance width="588"/>
  <unicode hex="00F7"/>
  <note>
divide
</note>
  <outline>
    <contour>
      <point x="530" y="286" type="line"/>
      <point x="56" y="286" type="line"/>
      <point x="56" y="308" type="line"/>
      <point x="530" y="308" type="line"/>
    </contour>
    <contour>
      <point x="326" y="448" type="qcurve" smooth="yes"/>
      <point x="326" y="436"/>
      <point x="308" y="417"/>
      <point x="293" y="417" type="qcurve" smooth="yes"/>
      <point x="278" y="417.0"/>
      <point x="260.0" y="435.0"/>
      <point x="260" y="448" type="qcurve" smooth="yes"/>
      <point x="260.0" y="459.0"/>
      <point x="278" y="479.0"/>
      <point x="293" y="479" type="qcurve" smooth="yes"/>
      <point x="308" y="479"/>
      <point x="326" y="459"/>
    </contour>
    <contour>
      <point x="326" y="146" type="qcurve" smooth="yes"/>
      <point x="326" y="134"/>
      <point x="308" y="115"/>
      <point x="293" y="115" type="qcurve" smooth="yes"/>
      <point x="278" y="115.0"/>
      <point x="260.0" y="133.0"/>
      <point x="260" y="146" type="qcurve" smooth="yes"/>
      <point x="260.0" y="157.0"/>
      <point x="278" y="177.0"/>
      <point x="293" y="177" type="qcurve" smooth="yes"/>
      <point x="308" y="177"/>
      <point x="326" y="157"/>
    </contour>
  </outline>
</glyph>
<glyph name="oslash" format="2">
  <advance width="591"/>
  <unicode hex="00F8"/>
  <outline>
    <contour>
      <point x="74.00066906852383" y="-18.500334534261917" type="line"/>
      <point x="55.999695877943715" y="-4.9996350535324545" type="line"/>
      <point x="523.9993917558875" y="545.0" type="line"/>
      <point x="543.0003649464676" y="530.4993005192705" type="line"/>
    </contour>
    <contour>
      <point x="296.00024329764506" y="528.5001520610282" type="qcurve"/>
      <point x="414.50015206102813" y="528.5001520610282"/>
      <point x="563.000243297645" y="379.5000304122056"/>
      <point x="563.000243297645" y="263.0" type="qcurve"/>
      <point x="563.000243297645" y="143.50003041220563"/>
      <point x="414.50015206102813" y="-10.0"/>
      <point x="296.00024329764506" y="-10.0" type="qcurve"/>
      <point x="178.0003041220563" y="-10.0"/>
      <point x="28.000243297645028" y="143.50003041220563"/>
      <point x="28.000243297645028" y="263.0" type="qcurve"/>
      <point x="28.000243297645028" y="379.5000304122056"/>
      <point x="178.0003041220563" y="528.5001520610282"/>
    </contour>
    <contour>
      <point x="296.00024329764506" y="18.001338137047668" type="qcurve"/>
      <point x="399.9995742291212" y="18.001338137047668"/>
      <point x="535.498692275158" y="156.00060824411258"/>
      <point x="535.9986618629523" y="263.0" type="qcurve" smooth="yes"/>
      <point x="535.498692275158" y="366.49948299250434"/>
      <point x="399.9995742291212" y="500.4988139239805"/>
      <point x="296.00024329764506" y="500.4988139239805" type="qcurve"/>
      <point x="190.50094277837448" y="500.4988139239805"/>
      <point x="55.50179432013209" y="366.9994525802987"/>
      <point x="55.001824732337724" y="263.0" type="qcurve" smooth="yes"/>
      <point x="55.50179432013209" y="156.00060824411258"/>
      <point x="190.50094277837448" y="18.001338137047668"/>
    </contour>
  </outline>
</glyph>
<glyph name="thorn" format="2">
  <advance width="607"/>
  <unicode hex="00FE"/>
  <note>
thorn
</note>
  <anchor x="279.50009123661687" y="0" name="bottom"/>
  <anchor x="279.50009123661687" y="499.0" name="top"/>
  <outline>
    <contour>
      <point x="328.0003649464675" y="529.5000912366169" type="qcurve"/>
      <point x="431.0004257708788" y="529.5000912366169"/>
      <point x="579.000243297645" y="376.50009123661687"/>
      <point x="579.000243297645" y="258.50009123661687" type="qcurve"/>
      <point x="579.000243297645" y="141.5000912366169"/>
      <point x="435.0003649464675" y="-10.499969587794372"/>
      <point x="326.50045618308445" y="-10.499969587794372" type="qcurve"/>
      <point x="242.50076030514072" y="-10.499969587794372"/>
      <point x="120.50082112955198" y="85.99969587794371"/>
      <point x="97.50106442719701" y="163.49905722162552" type="qcurve"/>
      <point x="99.50155102248706" y="136.99987835117747" type="line"/>
      <point x="99.50155102248706" y="-220.0" type="line"/>
      <point x="76.49990876338312" y="-220.0" type="line"/>
      <point x="76.49990876338312" y="740.0" type="line"/>
      <point x="99.50155102248706" y="740.0" type="line"/>
      <point x="99.50155102248706" y="375.0006082441126" type="line"/>
      <point x="92.50136854925329" y="352.5012469004308" type="line"/>
      <point x="116.50106442719701" y="430.5005778319069"/>
      <point x="241.50082112955198" y="529.5000912366169"/>
    </contour>
    <contour>
      <point x="548.9988443361862" y="258.50009123661687" type="qcurve"/>
      <point x="548.9988443361862" y="364.49948299250434"/>
      <point x="421.4996046413268" y="501.9987226873636"/>
      <point x="323.0001824732338" y="501.9987226873636" type="qcurve"/>
      <point x="224.50076030514072" y="501.9987226873636"/>
      <point x="96.00152061028143" y="365.49948299250434"/>
      <point x="96.00152061028143" y="260.00006082441126" type="qcurve"/>
      <point x="96.00152061028143" y="152.50069948072945"/>
      <point x="226.00072989293508" y="17.001398961458918"/>
      <point x="323.0001824732338" y="17.001398961458918" type="qcurve"/>
      <point x="423.49954381691555" y="17.001398961458918"/>
      <point x="548.9988443361862" y="154.00066906852385"/>
    </contour>
  </outline>
</glyph>
<glyph name="Hbar" format="2">
  <advance width="688"/>
  <unicode hex="0126"/>
  <outline>
    <contour>
      <point x="80.50167267130958" y="569.9979319700172" type="line"/>
      <point x="13.50088195396323" y="569.9979319700172" type="line"/>
      <point x="13.50088195396323" y="586.9996958779437" type="line"/>
      <point x="75.50197679336587" y="586.9996958779437" type="line"/>
      <point x="219.0" y="591.9993917558875" type="line"/>
      <point x="448.0033453426191" y="591.9993917558875" type="line"/>
      <point x="629.5003953586731" y="586.9996958779437" type="line"/>
      <point x="674.0025546252728" y="586.9996958779437" type="line"/>
      <point x="674.0025546252728" y="569.9979319700172" type="line"/>
      <point x="626.0006082441125" y="569.9979319700172" type="line"/>
      <point x="460.0033453426191" y="564.9982360920735" type="line"/>
      <point x="209.0" y="564.9982360920735" type="line"/>
    </contour>
    <contour>
      <point x="89.00115566381389" y="700.0" type="line"/>
      <point x="110.00291957174036" y="700.0" type="line"/>
      <point x="110.00291957174036" y="0.0" type="line"/>
      <point x="89.00115566381389" y="0.0" type="line"/>
    </contour>
    <contour>
      <point x="577.5005170074957" y="700.0" type="line"/>
      <point x="598.5022809154221" y="700.0" type="line"/>
      <point x="598.5022809154221" y="0.0" type="line"/>
      <point x="577.5005170074957" y="0.0" type="line"/>
    </contour>
    <contour>
      <point x="109.00170308351521" y="337.499178870448" type="line"/>
      <point x="109.00170308351521" y="360.500821129552" type="line"/>
      <point x="580.5014293736646" y="360.500821129552" type="line"/>
      <point x="580.5014293736646" y="337.499178870448" type="line"/>
    </contour>
  </outline>
</glyph>
<glyph name="idotless" format="2">
  <advance width="182"/>
  <unicode hex="0131"/>
  <note>
dotlessi
</note>
  <anchor x="91" y="0" name="bottom"/>
  <anchor x="49" y="10.0" name="ogonek"/>
  <anchor x="91" y="518" name="top"/>
  <outline>
    <contour>
      <point x="102" y="518" type="line"/>
      <point x="102" y="0" type="line"/>
      <point x="80" y="0" type="line"/>
      <point x="80" y="518" type="line"/>
    </contour>
  </outline>
</glyph>
<glyph name="Eng" format="2">
  <advance width="775"/>
  <unicode hex="014A"/>
  <note>
Eng
</note>
  <outline>
    <contour>
      <point x="640.9989051605974" y="11.501307724842036" type="line"/>
      <point x="663.4986314507468" y="-31.499361343681798" type="line"/>
      <point x="113.50124690043077" y="691.4971716648765" type="line"/>
      <point x="133.501064427197" y="693.4974149625216" type="line"/>
      <point x="135.501064427197" y="622.4983881531017"/>
      <point x="134.0012773126364" y="498.9990268094199"/>
      <point x="134.50130772484204" y="444.4996654657381" type="qcurve" smooth="yes"/>
      <point x="134.0013989614589" y="410.99951340470994"/>
      <point x="134.00145978587017" y="367.9990268094199"/>
      <point x="134.00145978587017" y="370.4983881531017" type="qcurve"/>
      <point x="134.00145978587017" y="0.0" type="line"/>
      <point x="112.99969587794371" y="0.0" type="line"/>
      <point x="112.99969587794371" y="700.0" type="line"/>
      <point x="133.50124690043077" y="700.0" type="line"/>
      <point x="654.4993613436818" y="23.502098442188384" type="line"/>
      <point x="636.9993917558875" y="19.002007205571502" type="line"/>
      <point x="637.4991788704481" y="118.50124690043077"/>
      <point x="642.4988747483917" y="306.00109483940264"/>
      <point x="640.9989051605974" y="390.5016118468983" type="qcurve"/>
      <point x="640.9989051605974" y="700.0" type="line"/>
      <point x="662.0006690685238" y="700.0" type="line"/>
      <point x="662.0006690685238" y="-24.498327328690422" type="line"/>
      <point x="662.0006690685238" y="-50.99945258029868" type="line" smooth="yes"/>
      <point x="662.0006690685238" y="-110.99981752676622"/>
      <point x="594.4999695877943" y="-194.00006082441126"/>
      <point x="538.499422168093" y="-194.00006082441126" type="qcurve"/>
      <point x="526.4988747483917" y="-168.99896598500862" type="line"/>
      <point x="593.498692275158" y="-168.99896598500862"/>
      <point x="640.9989051605974" y="-105.99902680941989"/>
      <point x="640.9989051605974" y="-42.49911804603677" type="qcurve"/>
    </contour>
  </outline>
</glyph>
<glyph name="eng" format="2">
  <advance width="595"/>
  <unicode hex="014B"/>
  <note>
eng
</note>
  <anchor x="286.0" y="0" name="bottom"/>
  <anchor x="295.0" y="510.0" name="top"/>
  <outline>
    <contour>
      <point x="299.0009731905801" y="528.5001520610282" type="qcurve"/>
      <point x="378.5011860760195" y="528.5001520610282"/>
      <point x="465.5012469004308" y="424.50009123661687"/>
      <point x="465.5012469004308" y="312.50015206102813" type="qcurve"/>
      <point x="465.5012469004308" y="-65.99914845824239" type="line" smooth="yes"/>
      <point x="465.5012469004308" y="-123.49954381691558"/>
      <point x="403.00048659529006" y="-194.00006082441126"/>
      <point x="351.49990876338313" y="-194.00006082441126" type="qcurve"/>
      <point x="339.4993613436818" y="-168.99896598500862" type="line"/>
      <point x="400.9992701070649" y="-168.99896598500862"/>
      <point x="442.4996046413268" y="-108.99896598500862"/>
      <point x="441.9996350535325" y="-47.99902680941988" type="qcurve"/>
      <point x="441.9996350535325" y="313.0" type="line"/>
      <point x="441.9996350535325" y="409.4994221680931"/>
      <point x="366.00006082441126" y="501.9988443361861"/>
      <point x="293.5003953586732" y="503.4987530995692" type="qcurve"/>
      <point x="207.50094277837448" y="503.4987530995692"/>
      <point x="97.0015814346927" y="389.4996046413268"/>
      <point x="97.0015814346927" y="318.0" type="qcurve"/>
      <point x="97.0015814346927" y="0.0" type="line"/>
      <point x="73.49996958779437" y="0.0" type="line"/>
      <point x="73.49996958779437" y="517.5001520610282" type="line"/>
      <point x="94.00164225910395" y="517.5001520610282" type="line"/>
      <point x="100.00152061028143" y="414.5005778319069" type="line"/>
      <point x="118.50167267130958" y="461.0004257708788"/>
      <point x="231.50130772484204" y="528.5001520610282"/>
    </contour>
  </outline>
</glyph>
<glyph name="OE" format="2">
  <advance width="1000"/>
  <unicode hex="0152"/>
  <note>
OE
</note>
  <anchor x="480.00024329764506" y="0" name="bottom"/>
  <anchor x="480.00024329764506" y="700.0" name="top"/>
  <outline>
    <contour>
      <point x="50.99993917558874" y="350.0" type="qcurve" smooth="yes"/>
      <point x="50.99993917558874" y="501.50009123661687"/>
      <point x="242.99987835117747" y="700.0"/>
      <point x="366.5005778319069" y="700.0" type="qcurve" smooth="yes"/>
      <point x="932.5003953586731" y="700.0" type="line"/>
      <point x="932.5003953586731" y="676.998357740896" type="line"/>
      <point x="523.0017639079265" y="676.998357740896" type="line"/>
      <point x="563.5011252516083" y="712.9979927944285" type="line"/>
      <point x="563.5011252516083" y="333.0013989614589" type="line"/>
      <point x="523.0017639079265" y="373.5007603051407" type="line"/>
      <point x="874.5004561830845" y="373.5007603051407" type="line"/>
      <point x="874.5004561830845" y="350.49911804603676" type="line"/>
      <point x="521.5018551445434" y="350.49911804603676" type="line"/>
      <point x="563.5011252516083" y="390.99847938971857" type="line"/>
      <point x="563.5011252516083" y="-18.497658260166588" type="line"/>
      <point x="522.0018247323377" y="23.001642259103946" type="line"/>
      <point x="926.5005170074957" y="23.001642259103946" type="line"/>
      <point x="926.5005170074957" y="0.0" type="line"/>
      <point x="376.4999695877944" y="0.0" type="line" smooth="yes"/>
      <point x="248.99951340470994" y="0.0"/>
      <point x="50.99993917558874" y="198.99987835117747"/>
    </contour>
    <contour>
      <point x="566.9996958779437" y="23.001642259103946" type="line"/>
      <point x="542.4993613436818" y="1.501125251608265" type="line"/>
      <point x="542.4993613436818" y="699.4988139239805" type="line"/>
      <point x="566.9996958779437" y="676.998357740896" type="line"/>
      <point x="372.50051700749566" y="676.998357740896" type="line" smooth="yes"/>
      <point x="258.50051700749566" y="676.998357740896"/>
      <point x="75.50167267130958" y="489.49948299250434"/>
      <point x="75.50167267130958" y="350.0" type="qcurve" smooth="yes"/>
      <point x="75.50167267130958" y="211.00048659529006"/>
      <point x="264.0001824732338" y="23.001642259103946"/>
      <point x="382.49990876338313" y="23.001642259103946" type="qcurve" smooth="yes"/>
    </contour>
  </outline>
</glyph>
<glyph name="Uogonek" format="2">
  <advance width="765"/>
  <unicode hex="0172"/>
  <anchor x="354.0" y="0" name="bottom"/>
  <anchor x="637.0" y="10.0" name="ogonek"/>
  <anchor x="354.0" y="700.0" name="top"/>
  <anchor x="688.0" y="700.0" name="topright"/>
  <outline>
    <contour>
      <point x="378.99969587794374" y="-0.00036494646754547944" type="qcurve"/>
      <point x="264.9995742291212" y="-0.00036494646754547944"/>
      <point x="120.99920928265365" y="147.00012164882253"/>
      <point x="120.99920928265365" y="269.0" type="qcurve"/>
      <point x="120.99920928265365" y="701.0" type="line"/>
      <point x="142.0009731905801" y="701.0" type="line"/>
      <point x="142.0009731905801" y="278.0" type="line"/>
      <point x="142.0009731905801" y="165.00066906852385"/>
      <point x="273.5003953586732" y="22.001338137047668"/>
      <point x="378.99969587794374" y="22.001338137047668" type="qcurve"/>
      <point x="486.9990268094199" y="22.001338137047668"/>
      <point x="622.4983881531017" y="165.5006386563182"/>
      <point x="622.4983881531017" y="278.0" type="qcurve"/>
      <point x="622.4983881531017" y="701.0" type="line"/>
      <point x="644.5000304122057" y="701.0" type="line"/>
      <point x="644.5000304122057" y="269.0" type="line"/>
      <point x="644.5000304122057" y="183.92877273529191"/>
      <point x="548.1250360647081" y="17.151272581873354"/>
      <point x="427.0009731905801" y="-6.999695877943713" type="qcurve" smooth="yes"/>
      <point x="404.7817733038559" y="-10.35830529705907"/>
      <point x="325.5013685492533" y="-96.57806381381542"/>
      <point x="325.5013685492533" y="-140.99866186295233" type="qcurve"/>
      <point x="325.5013685492533" y="-166.4986314507467"/>
      <point x="374.500821129552" y="-204.99835774089604"/>
      <point x="407.0006082441126" y="-204.99835774089604" type="qcurve"/>
      <point x="434.50027370985066" y="-204.99835774089604"/>
      <point x="477.99975670235494" y="-184.49850980192417"/>
      <point x="491.9996350535325" y="-169.49857062633544" type="qcurve"/>
      <point x="513.5003345342619" y="-185.49905722162552" type="line"/>
      <point x="490.0006082441126" y="-210.49905722162552"/>
      <point x="445.00024329764506" y="-230.99939175588742"/>
      <point x="412.0001824732338" y="-230.99939175588742" type="qcurve"/>
      <point x="362.50027370985066" y="-230.99939175588742"/>
      <point x="294.0003649464675" y="-176.49917887044802"/>
      <point x="294.0003649464675" y="-137.99896598500862" type="qcurve"/>
      <point x="294.0003649464675" y="-84.99908763383114"/>
      <point x="382.2409702803556" y="-8.559443060804568"/>
      <point x="430.0004257708788" y="19.000669068523834" type="qcurve"/>
      <point x="395.0013989614589" y="-14.999452580298684" type="line"/>
      <point x="352.0020072055715" y="-8.499847938971858"/>
      <point x="374.00024329764506" y="-0.00036494646754547944"/>
    </contour>
  </outline>
</glyph>
<glyph name="Schwa" format="2">
  <advance width="787"/>
  <unicode hex="018F"/>
  <outline>
    <contour>
      <point x="736.4999087633831" y="344.0001216488225" type="qcurve"/>
      <point x="736.4999087633831" y="195.00012164882253"/>
      <point x="533.9999391755888" y="-10.0"/>
      <point x="385.50009123661687" y="-10.0" type="qcurve"/>
      <point x="237.50033453426192" y="-10.0"/>
      <point x="47.500152061028146" y="199.4994829925043"/>
      <point x="50.99993917558874" y="353.499178870448" type="qcurve"/>
      <point x="50.99993917558874" y="364.5005778319069" type="line"/>
      <point x="714.499422168093" y="364.5005778319069" type="line"/>
      <point x="709.9996958779437" y="337.9991484582424" type="line"/>
      <point x="78.50149019807581" y="337.9991484582424" type="line"/>
      <point x="72.50721582836759" y="206.87988603647602"/>
      <point x="256.7818558107176" y="16.50142937366455"/>
      <point x="387.00006082441126" y="16.50142937366455" type="qcurve"/>
      <point x="516.2324259451166" y="16.50142937366455"/>
      <point x="708.4983881531017" y="215.00036494646756"/>
      <point x="708.4983881531017" y="348.00006082441126" type="qcurve"/>
      <point x="708.4983881531017" y="480.9998175267662"/>
      <point x="504.7506369112043" y="675.9987226873636"/>
      <point x="366.0004257708788" y="675.9987226873636" type="qcurve"/>
      <point x="301.50045618308445" y="675.9987226873636"/>
      <point x="182.84561818281202" y="624.8269162246559"/>
      <point x="142.0008515417576" y="585.4989963972142" type="qcurve"/>
      <point x="123.49984793897185" y="608.9999391755888" type="line"/>
      <point x="166.5000912366169" y="651.0001824732337"/>
      <point x="300.0" y="702.5001520610282"/>
      <point x="367.5003953586732" y="702.5001520610282" type="qcurve"/>
      <point x="524.5000912366169" y="702.5001520610282"/>
      <point x="736.4999087633831" y="497.5000304122056"/>
    </contour>
  </outline>
</glyph>
<glyph name="Nhookleft" format="2">
  <advance width="783"/>
  <unicode hex="019D"/>
  <outline>
    <contour>
      <point x="142.0009731905801" y="370.4983881531017" type="qcurve"/>
      <point x="142.0009731905801" y="-59.99927010706491" type="line" smooth="yes"/>
      <point x="142.0009731905801" y="-119.99963505353246"/>
      <point x="74.50027370985066" y="-194.00006082441126"/>
      <point x="18.49972629014934" y="-194.00006082441126" type="qcurve"/>
      <point x="6.499178870448027" y="-168.99896598500862" type="line"/>
      <point x="73.49899639721426" y="-168.99896598500862"/>
      <point x="120.99920928265365" y="-105.99902680941989"/>
      <point x="120.99920928265365" y="-42.49911804603677" type="qcurve"/>
      <point x="120.99920928265365" y="700.0" type="line"/>
      <point x="141.50076030514072" y="700.0" type="line"/>
      <point x="656.4989963972142" y="31.001946381160238" type="line"/>
      <point x="646.4988747483917" y="-3.4975366113440742" type="line"/>
      <point x="645.498692275158" y="28.503071632768496"/>
      <point x="650.4983881531017" y="271.5017943201321"/>
      <point x="648.9984185653072" y="390.5016118468983" type="qcurve"/>
      <point x="648.9984185653072" y="700.0" type="line"/>
      <point x="670.0001824732337" y="700.0" type="line"/>
      <point x="670.0001824732337" y="0.0" type="line"/>
      <point x="647.4986314507468" y="0.0" type="line"/>
      <point x="124.50069948072945" y="685.4972933136991" type="line"/>
      <point x="140.00060824411258" y="720.4968675428203" type="line"/>
      <point x="140.5006386563182" y="700.496806718409"/>
      <point x="139.0008515417576" y="621.9965330085583"/>
      <point x="139.50088195396324" y="565.9972020770822" type="qcurve" smooth="yes"/>
      <point x="140.50094277837448" y="497.99774949678346"/>
      <point x="142.0009731905801" y="373.99890516059736"/>
    </contour>
  </outline>
</glyph>
<glyph name="jdotless" format="2">
  <advance width="226"/>
  <unicode hex="0237"/>
  <note>
dotlessj
</note>
  <anchor x="151" y="0" name="bottom"/>
  <anchor x="138" y="516" name="top"/>
  <outline>
    <contour>
      <point x="150" y="518" type="line"/>
      <point x="150" y="-60" type="line" smooth="yes"/>
      <point x="150" y="-120"/>
      <point x="81" y="-194"/>
      <point x="24" y="-194" type="qcurve"/>
      <point x="12" y="-169" type="line"/>
      <point x="80" y="-169"/>
      <point x="128" y="-106"/>
      <point x="128" y="-42" type="qcurve"/>
      <point x="128" y="518" type="line"/>
    </contour>
  </outline>
</glyph>
<glyph name="nhookleft" format="2">
  <advance width="610"/>
  <unicode hex="0272"/>
  <anchor x="318.0" y="0" name="bottom"/>
  <anchor x="318.0" y="510.0" name="top"/>
  <outline>
    <contour>
      <point x="314.0009731905801" y="528.5001520610282" type="qcurve"/>
      <point x="393.5011860760195" y="528.5001520610282"/>
      <point x="480.5012469004308" y="424.50009123661687"/>
      <point x="480.5012469004308" y="312.50015206102813" type="qcurve"/>
      <point x="480.5012469004308" y="0.0" type="line"/>
      <point x="456.9996350535325" y="0.0" type="line"/>
      <point x="456.9996350535325" y="313.0" type="line"/>
      <point x="456.9996350535325" y="409.4994221680931"/>
      <point x="381.00006082441126" y="501.9988443361861"/>
      <point x="308.5003953586732" y="503.4987530995692" type="qcurve"/>
      <point x="222.50094277837448" y="503.4987530995692"/>
      <point x="112.0015814346927" y="389.4996046413268"/>
      <point x="112.0015814346927" y="318.0" type="qcurve"/>
      <point x="112.0015814346927" y="0.0" type="line"/>
      <point x="86.0015814346927" y="0.0"/>
      <point x="114.49996958779437" y="0.0"/>
      <point x="88.49996958779437" y="0.0" type="qcurve"/>
      <point x="88.49996958779437" y="517.5001520610282" type="line"/>
      <point x="109.00164225910395" y="517.5001520610282" type="line"/>
      <point x="116.50149019807581" y="406.5002128854394" type="line"/>
      <point x="116.50112525160827" y="412.49984793897187" type="line"/>
      <point x="133.00109483940264" y="459.99993917558874"/>
      <point x="245.00109483940264" y="528.5001520610282"/>
    </contour>
    <contour>
      <point x="88.49996958779437" y="-0.4999695877943713" type="qcurve"/>
      <point x="112.0015814346927" y="5.500395358673174" type="line"/>
      <point x="112.0015814346927" y="-65.99914845824239" type="line" smooth="yes"/>
      <point x="112.0015814346927" y="-123.49954381691558"/>
      <point x="58.5006386563182" y="-194.00006082441126"/>
      <point x="-1.9997567023549703" y="-194.00006082441126" type="qcurve"/>
      <point x="-14.000304122056287" y="-168.99896598500862" type="line"/>
      <point x="60.4993613436818" y="-168.99896598500862"/>
      <point x="88.49996958779437" y="-96.99920928265365"/>
    </contour>
  </outline>
</glyph>
<glyph name="ringhalfright" format="2">
  <advance width="212"/>
  <unicode hex="02BE"/>
  <outline>
    <contour>
      <point x="51.5002128854394" y="543.4997262901494" type="qcurve"/>
      <point x="51.5002128854394" y="571.5003953586731" type="line"/>
      <point x="82.0" y="571.5003953586731"/>
      <point x="125.49966546573808" y="613.0000608244112"/>
      <point x="125.49966546573808" y="640.9998783511775" type="qcurve"/>
      <point x="125.49966546573808" y="672.9996350535324"/>
      <point x="81.50003041220563" y="711.9993309314762"/>
      <point x="51.5002128854394" y="711.9993309314762" type="qcurve"/>
      <point x="51.00024329764503" y="739.5000304122057" type="line"/>
      <point x="92.00030412205629" y="740.0"/>
      <point x="154.50033453426192" y="680.9999391755888"/>
      <point x="154.50033453426192" y="640.9998783511775" type="qcurve"/>
      <point x="154.50033453426192" y="601.9998175267663"/>
      <point x="93.00024329764503" y="543.4997262901494"/>
    </contour>
  </outline>
</glyph>
<glyph name="ringhalfleft" format="2">
  <advance width="254"/>
  <unicode hex="02BF"/>
  <outline>
    <contour>
      <point x="168.99945258029868" y="571.5003953586731" type="qcurve"/>
      <point x="168.99945258029868" y="543.4997262901494" type="line"/>
      <point x="126.49948299250431" y="543.4997262901494"/>
      <point x="66.49930051927055" y="602.4997871145606"/>
      <point x="66.49930051927055" y="640.9998783511775" type="qcurve"/>
      <point x="66.49930051927055" y="680.9999391755888"/>
      <point x="128.99933093147615" y="740.0"/>
      <point x="169.99939175588742" y="739.5000304122057" type="qcurve"/>
      <point x="168.99945258029868" y="711.9993309314762" type="line"/>
      <point x="138.99963505353244" y="711.9993309314762"/>
      <point x="95.49996958779437" y="672.4996654657381"/>
      <point x="95.49996958779437" y="640.9998783511775" type="qcurve"/>
      <point x="95.49996958779437" y="613.0000608244112"/>
      <point x="138.99963505353244" y="571.5003953586731"/>
    </contour>
  </outline>
</glyph>
<glyph name="verticallinelowmod" format="2">
  <advance width="230"/>
  <unicode hex="02CC"/>
  <outline>
    <contour>
      <point x="128.00072989293508" y="197.0" type="line"/>
      <point x="128.00072989293508" y="-147.0" type="line"/>
      <point x="101.49930051927055" y="-147.0" type="line"/>
      <point x="101.49930051927055" y="197.0" type="line"/>
    </contour>
  </outline>
</glyph>
<glyph name="ogonek" format="2">
  <advance width="295"/>
  <unicode hex="02DB"/>
  <outline>
    <contour>
      <point x="153.9996958779437" y="-230.99939175588742" type="qcurve" smooth="yes"/>
      <point x="109.49972629014934" y="-230.99939175588742"/>
      <point x="55.49948299250431" y="-180.49917887044802"/>
      <point x="55.49948299250431" y="-136.99920928265365" type="qcurve"/>
      <point x="55.49948299250431" y="-88.49917887044802"/>
      <point x="133.9995742291212" y="-13.49911804603677"/>
      <point x="210.4994829925043" y="14.000729892935091" type="qcurve"/>
      <point x="206.50045618308442" y="4.000790717346348" type="line"/>
      <point x="206.50045618308442" y="0.4999695877943713" type="line"/>
      <point x="144.50082112955198" y="-25.999695877943715"/>
      <point x="79.00085154175761" y="-98.49923969485928"/>
      <point x="79.00085154175761" y="-132.99908763383115" type="qcurve"/>
      <point x="79.00085154175761" y="-163.99878351177486"/>
      <point x="116.00048659529006" y="-206.49832732869044"/>
      <point x="153.50003041220563" y="-206.49832732869044" type="qcurve" smooth="yes"/>
      <point x="174.99981752676624" y="-206.49832732869044"/>
      <point x="212.49942216809305" y="-188.9984185653073"/>
      <point x="232.49917887044802" y="-164.99866186295233" type="qcurve"/>
      <point x="253.99987835117747" y="-180.9991484582424" type="line"/>
      <point x="230.50015206102813" y="-208.99908763383115"/>
      <point x="189.9996958779437" y="-230.99939175588742"/>
    </contour>
  </outline>
</glyph>
<glyph name="dotaccentcomb" format="2">
  <advance width="222"/>
  <unicode hex="0307"/>
  <outline>
    <contour>
      <point x="142" y="644" type="qcurve" smooth="yes"/>
      <point x="142" y="630"/>
      <point x="127" y="613"/>
      <point x="111" y="613" type="qcurve" smooth="yes"/>
      <point x="96" y="613"/>
      <point x="80" y="630"/>
      <point x="80" y="644" type="qcurve" smooth="yes"/>
      <point x="80" y="657"/>
      <point x="95" y="675"/>
      <point x="111" y="675" type="qcurve" smooth="yes"/>
      <point x="125" y="675"/>
      <point x="142" y="658"/>
    </contour>
  </outline>
</glyph>
<glyph name="horncomb" format="2">
  <unicode hex="031B"/>
  <anchor x="0" y="524.9996958779437" name="_topright"/>
  <anchor x="0" y="524.9996958779437" name="topright"/>
  <outline>
    <contour>
      <point x="-36.99774949678347" y="515.9980536188398" type="qcurve"/>
      <point x="-36.99774949678347" y="528.9994525802987" type="line"/>
      <point x="11.502159266599634" y="528.9994525802987"/>
      <point x="58.502098442188384" y="578.4996046413269"/>
      <point x="58.502098442188384" y="627.999756702355" type="qcurve"/>
      <point x="89.50313245717976" y="627.999756702355" type="line"/>
      <point x="89.50313245717976" y="575.9989659850087"/>
      <point x="23.502645861889704" y="515.9980536188398"/>
    </contour>
  </outline>
</glyph>
<glyph name="commaaccentcomb" format="2">
  <unicode hex="0326"/>
  <anchor x="124.0" y="0" name="_bottom"/>
  <anchor x="123.0" y="-276.0" name="bottom"/>
  <outline>
    <contour>
      <point x="84.50009123661688" y="-158.00170308351522" type="qcurve"/>
      <point x="65.0" y="-143.0011556638139" type="line"/>
      <point x="90.49990876338312" y="-123.00145978587018"/>
      <point x="108.5002128854394" y="-107.50112525160827"/>
      <point x="108.5002128854394" y="-95.50106442719701" type="qcurve"/>
      <point x="108.5002128854394" y="-89.50106442719701"/>
      <point x="101.5002128854394" y="-77.00115566381389"/>
      <point x="85.00030412205629" y="-69.50124690043077" type="qcurve" smooth="yes"/>
      <point x="79.00006082441126" y="-66.00121648822514"/>
      <point x="67.00006082441126" y="-48.00121648822515"/>
      <point x="67.00006082441126" y="-39.00109483940263" type="qcurve"/>
      <point x="67.00006082441126" y="-29.000851541757605"/>
      <point x="80.50051700749569" y="-14.000608244112573"/>
      <point x="88.50094277837448" y="-14.000608244112573" type="qcurve"/>
      <point x="114.00109483940264" y="-14.000608244112573"/>
      <point x="138.00152061028143" y="-42.50088195396323"/>
      <point x="138.00152061028143" y="-67.00109483940264" type="qcurve"/>
      <point x="138.00152061028143" y="-97.50124690043077"/>
      <point x="116.50057783190695" y="-133.00182473233772"/>
    </contour>
  </outline>
</glyph>
<glyph name="pi" format="2">
  <advance width="614"/>
  <unicode hex="03C0"/>
  <note>
pi
</note>
  <outline>
    <contour>
      <point x="143.50124690043077" y="0.0" type="line"/>
      <point x="114.0" y="0.0" type="line"/>
      <point x="114.0" y="525.4989963972142" type="line"/>
      <point x="131.0" y="498.4985098019242" type="line"/>
      <point x="40.0" y="498.4985098019242" type="line"/>
      <point x="40.0" y="517.0001824732337" type="line"/>
      <point x="574.0" y="517.0001824732337" type="line"/>
      <point x="574.0" y="498.4985098019242" type="line"/>
      <point x="479.00024329764506" y="498.4985098019242" type="line"/>
      <point x="500.0" y="544.4978407334004" type="line"/>
      <point x="500.0" y="0.0" type="line"/>
      <point x="470.4987530995692" y="0.0" type="line"/>
      <point x="470.4987530995692" y="501.9991484582424" type="line"/>
      <point x="486.4986314507467" y="498.4985098019242" type="line"/>
      <point x="130.50124690043077" y="498.4985098019242" type="line"/>
      <point x="143.50124690043077" y="511.4985098019242" type="line"/>
    </contour>
  </outline>
</glyph>
<glyph name="Germandbls" format="2">
  <advance width="725"/>
  <unicode hex="1E9E"/>
  <outline>
    <contour>
      <point x="606.5006994807295" y="609.0" type="line"/>
      <point x="512.5006994807295" y="594.0"/>
      <point x="410.50069948072945" y="529.0"/>
      <point x="410.50069948072945" y="486.0" type="qcurve" smooth="yes"/>
      <point x="410.50069948072945" y="456.0"/>
      <point x="460.50069948072945" y="405.0"/>
      <point x="510.50069948072945" y="384.0" type="qcurve" smooth="yes"/>
      <point x="535.0012773126364" y="373.99975670235494"/>
      <point x="586.0012164882252" y="348.4996654657381"/>
      <point x="606.0011556638138" y="333.9995742291212" type="qcurve" smooth="yes"/>
      <point x="652.0006690685238" y="297.9998175267662"/>
      <point x="683.0004865952901" y="235.4997871145606"/>
      <point x="683.0004865952901" y="188.4999087633831" type="qcurve"/>
      <point x="683.0004865952901" y="90.00030412205629"/>
      <point x="558.5971675901438" y="-10.0"/>
      <point x="455.50069948072945" y="-10.0" type="qcurve" smooth="yes"/>
      <point x="397.50069948072945" y="-10.0"/>
      <point x="290.50069948072945" y="36.0"/>
      <point x="260.50069948072945" y="75.0" type="qcurve"/>
      <point x="278.0017030835152" y="98.00115566381389" type="line"/>
      <point x="316.50142937366456" y="53.00145978587018"/>
      <point x="410.5009427783745" y="16.50142937366455"/>
      <point x="454.50069948072945" y="16.50142937366455" type="qcurve" smooth="yes"/>
      <point x="547.3362351678343" y="16.50142937366455"/>
      <point x="655.9989051605974" y="106.50051700749569"/>
      <point x="655.9989051605974" y="184.49972629014934" type="qcurve"/>
      <point x="655.9989051605974" y="232.49923969485928"/>
      <point x="619.837355679043" y="292.57100197159366"/>
      <point x="578.9995134047099" y="322.99847938971857" type="qcurve" smooth="yes"/>
      <point x="556.4998479389718" y="338.9982360920735"/>
      <point x="503.00006082441126" y="362.4982056798679"/>
      <point x="473.49990876338313" y="376.4982665042792" type="qcurve" smooth="yes"/>
      <point x="424.4994221680931" y="399.4985098019242"/>
      <point x="384.4990572216255" y="450.4990572216255"/>
      <point x="384.4990572216255" y="485.49948299250434" type="qcurve"/>
      <point x="384.4990572216255" y="548.4997871145606"/>
      <point x="481.4993613436818" y="630.5000912366169"/>
      <point x="561.9995742291212" y="644.4999695877943" type="qcurve"/>
      <point x="552.0007907173464" y="630.4994829925043" type="line"/>
      <point x="515.5008819539632" y="651.4993005192705"/>
      <point x="454.0001216488225" y="666.4993005192705"/>
      <point x="405.00024329764506" y="666.4993005192705" type="qcurve"/>
      <point x="271.0010340149914" y="665.4993613436818"/>
      <point x="128.00164225910396" y="528.9989659850087"/>
      <point x="128.50161184689833" y="389.4990572216255" type="qcurve"/>
      <point x="129.50155102248706" y="-0.4999695877943713" type="line"/>
      <point x="106.99981752676622" y="-0.4999695877943713" type="line"/>
      <point x="106.49984793897185" y="394.99908763383115" type="line" smooth="yes"/>
      <point x="105.99987835117749" y="547.499422168093"/>
      <point x="254.50027370985066" y="694.5006386563182"/>
      <point x="412.9998783511775" y="694.5006386563182" type="qcurve" smooth="yes"/>
      <point x="464.50009123661687" y="694.5006386563182"/>
      <point x="549.000729892935" y="669.5006994807295"/>
      <point x="603.0006690685238" y="646.000729892935" type="qcurve"/>
    </contour>
  </outline>
</glyph>
<glyph name="dagger" format="2">
  <advance width="440"/>
  <unicode hex="2020"/>
  <note>
dagger
</note>
  <outline>
    <contour>
      <point x="208.49923969485928" y="216.0" type="line"/>
      <point x="208.49923969485928" y="721.0" type="line"/>
      <point x="232.00072989293508" y="721.0" type="line"/>
      <point x="232.00072989293508" y="216.0" type="line"/>
    </contour>
    <contour>
      <point x="379.50027370985066" y="554.4988139239805" type="line"/>
      <point x="60.999695877943715" y="554.4988139239805" type="line"/>
      <point x="60.999695877943715" y="579.0" type="line"/>
      <point x="379.50027370985066" y="579.0" type="line"/>
    </contour>
  </outline>
</glyph>
<glyph name="bullet" format="2">
  <advance width="347"/>
  <unicode hex="2022"/>
  <note>
bullet
</note>
  <outline>
    <contour>
      <point x="260.5010036027858" y="343.50015206102813" type="qcurve" smooth="yes"/>
      <point x="260.5010036027858" y="308.49972629014934"/>
      <point x="209.0004257708788" y="257.9991484582424"/>
      <point x="171.50003041220563" y="257.9991484582424" type="qcurve" smooth="yes"/>
      <point x="137.9995742291212" y="257.9991484582424"/>
      <point x="86.49899639721426" y="308.49972629014934"/>
      <point x="86.49899639721426" y="343.50015206102813" type="qcurve" smooth="yes"/>
      <point x="86.49899639721426" y="379.5005778319069"/>
      <point x="136.9995742291212" y="431.0011556638139"/>
      <point x="171.50003041220563" y="431.0011556638139" type="qcurve" smooth="yes"/>
      <point x="209.0004257708788" y="431.0011556638139"/>
      <point x="260.5010036027858" y="379.5005778319069"/>
    </contour>
  </outline>
</glyph>
<glyph name="perthousand" format="2">
  <advance width="1199"/>
  <unicode hex="2030"/>
  <note>
perthousand
</note>
  <outline>
    <contour>
      <point x="357.4997871145606" y="518.0" type="qcurve"/>
      <point x="357.4997871145606" y="438.0"/>
      <point x="269.4997871145606" y="329.0"/>
      <point x="203.4997871145606" y="329.0" type="qcurve"/>
      <point x="135.4997871145606" y="329.0"/>
      <point x="50.4997871145606" y="436.0"/>
      <point x="50.4997871145606" y="518.0" type="qcurve"/>
      <point x="50.4997871145606" y="601.0"/>
      <point x="136.4997871145606" y="709.0"/>
      <point x="204.4997871145606" y="709.0" type="qcurve"/>
      <point x="272.4997871145606" y="709.0"/>
      <point x="357.4997871145606" y="601.0"/>
    </contour>
    <contour>
      <point x="82.50082112955198" y="518.0" type="qcurve"/>
      <point x="82.50082112955198" y="443.50045618308445"/>
      <point x="146.0003041220563" y="360.50088195396324"/>
      <point x="204.4997871145606" y="360.50088195396324" type="qcurve"/>
      <point x="261.9992701070649" y="360.50088195396324"/>
      <point x="325.9987226873636" y="442.50045618308445"/>
      <point x="325.9987226873636" y="518.0" type="qcurve"/>
      <point x="325.9987226873636" y="594.9995134047099"/>
      <point x="261.9992701070649" y="677.9990876338311"/>
      <point x="203.4997871145606" y="677.9990876338311" type="qcurve"/>
      <point x="147.50027370985066" y="677.9990876338311"/>
      <point x="82.50082112955198" y="592.4995438169155"/>
    </contour>
    <contour>
      <point x="800.999756702355" y="180.0" type="qcurve"/>
      <point x="800.999756702355" y="100.0"/>
      <point x="712.4997871145606" y="-9.0"/>
      <point x="646.4997871145606" y="-9.0" type="qcurve"/>
      <point x="577.9998175267663" y="-9.0"/>
      <point x="493.99975670235494" y="97.50003041220563"/>
      <point x="493.99975670235494" y="180.0" type="qcurve"/>
      <point x="493.99975670235494" y="263.0"/>
      <point x="579.999756702355" y="371.0"/>
      <point x="647.999756702355" y="371.0" type="qcurve"/>
      <point x="715.999756702355" y="371.0"/>
      <point x="800.999756702355" y="263.0"/>
    </contour>
    <contour>
      <point x="526.0007907173464" y="180.0" type="qcurve"/>
      <point x="526.0007907173464" y="105.50045618308442"/>
      <point x="589.5002737098506" y="23.000851541757605"/>
      <point x="647.999756702355" y="23.000851541757605" type="qcurve"/>
      <point x="705.4992396948593" y="23.000851541757605"/>
      <point x="768.9987226873636" y="104.00048659529006"/>
      <point x="768.9987226873636" y="180.0" type="qcurve"/>
      <point x="768.9987226873636" y="257.49948299250434"/>
      <point x="705.4992396948593" y="339.99908763383115"/>
      <point x="646.4997871145606" y="339.99908763383115" type="qcurve"/>
      <point x="591.000243297645" y="339.99908763383115"/>
      <point x="526.0007907173464" y="253.9995742291212"/>
    </contour>
    <contour>
      <point x="1150.4997871145606" y="180.0" type="qcurve"/>
      <point x="1150.4997871145606" y="100.0"/>
      <point x="1061.9998175267663" y="-9.0"/>
      <point x="995.9998175267663" y="-9.0" type="qcurve"/>
      <point x="927.4998479389718" y="-9.0"/>
      <point x="843.4997871145606" y="97.50003041220563"/>
      <point x="843.4997871145606" y="180.0" type="qcurve"/>
      <point x="843.4997871145606" y="263.0"/>
      <point x="929.4997871145606" y="371.0"/>
      <point x="997.4997871145606" y="371.0" type="qcurve"/>
      <point x="1065.4997871145606" y="371.0"/>
      <point x="1150.4997871145606" y="262.5000304122056"/>
    </contour>
    <contour>
      <point x="875.5008211295519" y="180.0" type="qcurve"/>
      <point x="875.5008211295519" y="105.50045618308442"/>
      <point x="939.0003041220563" y="23.000851541757605"/>
      <point x="997.4997871145606" y="23.000851541757605" type="qcurve"/>
      <point x="1054.4993005192705" y="23.000851541757605"/>
      <point x="1118.4987530995693" y="104.50045618308442"/>
      <point x="1118.4987530995693" y="180.0" type="qcurve"/>
      <point x="1118.4987530995693" y="256.99951340470994"/>
      <point x="1054.4993005192705" y="339.99908763383115"/>
      <point x="995.9998175267663" y="339.99908763383115" type="qcurve"/>
      <point x="940.5002737098506" y="339.99908763383115"/>
      <point x="875.5008211295519" y="253.9995742291212"/>
    </contour>
    <contour>
      <point x="215.0004257708788" y="0.0" type="line"/>
      <point x="176.99920928265365" y="0.0" type="line"/>
      <point x="469.99774949678346" y="439.997871145606" type="line"/>
      <point x="644.4991180460368" y="700.0" type="line"/>
      <point x="680.0004865952901" y="700.0" type="line"/>
      <point x="475.49930051927055" y="392.4982665042792" type="line"/>
    </contour>
  </outline>
</glyph>
<glyph name="colonsign" format="2">
  <advance width="637"/>
  <unicode hex="20A1"/>
  <anchor x="377.0" y="0" name="bottom"/>
  <anchor x="372.0" y="700.0" name="top"/>
  <outline>
    <contour>
      <point x="109.49990876338312" y="-37.00139896145892" type="line"/>
      <point x="84.99884433618611" y="-28.000851541757605" type="line"/>
      <point x="471.99975670235494" y="768.5006994807295" type="line"/>
      <point x="506.0005474197013" y="756.5003345342619" type="line"/>
    </contour>
    <contour>
      <point x="254.5002128854394" y="-58.001642259103946" type="line"/>
      <point x="229.9991484582424" y="-49.00109483940263" type="line"/>
      <point x="617.0000608244112" y="747.5004561830845" type="line"/>
      <point x="651.0008515417576" y="735.5000912366169" type="line"/>
    </contour>
    <contour>
      <point x="619.4991180460368" y="108.00133813704767" type="qcurve"/>
      <point x="632.9999391755888" y="86.0" type="line"/>
      <point x="596.4999695877943" y="43.50003041220563"/>
      <point x="472.4996654657381" y="-10.0"/>
      <point x="413.4993613436818" y="-10.0" type="qcurve"/>
      <point x="255.4996046413268" y="-10.0"/>
      <point x="50.99993917558874" y="193.99993917558874"/>
      <point x="50.99993917558874" y="350.0" type="qcurve"/>
      <point x="50.99993917558874" y="507.49984793897187"/>
      <point x="240.50015206102813" y="704.5000304122057"/>
      <point x="393.99993917558874" y="704.5000304122057" type="qcurve"/>
      <point x="461.0001216488225" y="704.5000304122057"/>
      <point x="604.5000304122057" y="636.5000304122057"/>
      <point x="645.9999391755888" y="585.0" type="qcurve"/>
      <point x="626.4988747483917" y="563.9989051605974" type="line"/>
      <point x="598.4985706263354" y="613.9987835117748"/>
      <point x="461.99951340470994" y="683.4982665042792"/>
      <point x="393.99993917558874" y="683.4982665042792" type="qcurve" smooth="yes"/>
      <point x="252.50082112955198" y="683.4982665042792"/>
      <point x="75.50167267130958" y="495.4992396948593"/>
      <point x="75.50167267130958" y="350.0" type="qcurve"/>
      <point x="75.50167267130958" y="205.00060824411258"/>
      <point x="262.0006082441126" y="10.501794320132092"/>
      <point x="404.49990876338313" y="10.501794320132092" type="qcurve" smooth="yes"/>
      <point x="469.4996046413268" y="10.501794320132092"/>
      <point x="594.498935572803" y="67.00145978587018"/>
    </contour>
  </outline>
</glyph>
<glyph name="naira" format="2">
  <advance width="795"/>
  <unicode hex="20A6"/>
  <anchor x="393.0" y="0" name="bottom"/>
  <anchor x="393.0" y="700.0" name="top"/>
  <outline>
    <contour>
      <point x="131.99939175588742" y="322.9998175267662" type="line"/>
      <point x="10.0" y="322.9998175267662" type="line"/>
      <point x="10.0" y="348.5011860760195" type="line"/>
      <point x="133.99939175588742" y="348.5011860760195" type="line"/>
      <point x="152.9996958779437" y="349.0010340149914" type="line"/>
      <point x="624.5005170074957" y="349.0010340149914" type="line"/>
      <point x="647.0009123661689" y="348.5011860760195" type="line"/>
      <point x="785.0" y="348.5011860760195" type="line"/>
      <point x="785.0" y="322.9998175267662" type="line"/>
      <point x="642.0009123661689" y="322.9998175267662" type="line"/>
      <point x="626.5003953586731" y="322.4999695877944" type="line"/>
      <point x="155.99951340470994" y="322.4999695877944" type="line"/>
    </contour>
    <contour>
      <point x="640.9989051605974" y="390.5016118468983" type="qcurve"/>
      <point x="640.9989051605974" y="700.0" type="line"/>
      <point x="667.9989051605974" y="700.0"/>
      <point x="635.0006690685238" y="700.0"/>
      <point x="662.0006690685238" y="700.0" type="qcurve"/>
      <point x="662.0006690685238" y="0.0" type="line"/>
      <point x="639.4991180460368" y="0.0" type="line"/>
      <point x="116.50118607601952" y="685.4972933136991" type="line"/>
      <point x="132.00109483940264" y="720.4968675428203" type="line"/>
      <point x="132.00121648822514" y="678.9964113597358"/>
      <point x="134.00145978587017" y="379.49911804603676"/>
      <point x="134.00145978587017" y="370.4983881531017" type="qcurve" smooth="yes"/>
      <point x="134.00145978587017" y="0.0" type="line"/>
      <point x="112.99969587794371" y="0.0" type="line"/>
      <point x="112.99969587794371" y="700.0" type="line"/>
      <point x="133.50124690043077" y="700.0" type="line"/>
      <point x="648.4994829925043" y="31.001946381160238" type="line"/>
      <point x="638.4993613436818" y="-3.4975366113440742" type="line"/>
      <point x="637.4991788704481" y="28.503071632768496"/>
      <point x="642.4988747483917" y="271.5017943201321"/>
    </contour>
  </outline>
</glyph>
<glyph name="peseta" format="2">
  <advance width="791"/>
  <unicode hex="20A7"/>
  <anchor x="401.0" y="0" name="bottom"/>
  <anchor x="401.0" y="700.0" name="top"/>
  <outline>
    <contour>
      <point x="728" y="496" type="line"/>
      <point x="93" y="496" type="line"/>
      <point x="93" y="518" type="line"/>
      <point x="728" y="518" type="line"/>
    </contour>
    <component base="P" xOffset="83"/>
  </outline>
</glyph>
<glyph name="won" format="2">
  <advance width="951"/>
  <unicode hex="20A9"/>
  <anchor x="476.00048659529006" y="0" name="bottom"/>
  <anchor x="476.00048659529006" y="700.0" name="top"/>
  <outline>
    <contour>
      <point x="174.99963505353244" y="330.9998175267662" type="line"/>
      <point x="71.99902680941989" y="330.9998175267662" type="line"/>
      <point x="71.99902680941989" y="356.5011860760195" type="line"/>
      <point x="171.49942216809305" y="356.5011860760195" type="line"/>
      <point x="190.9996958779437" y="360.500821129552" type="line"/>
      <point x="777.5000304122057" y="360.500821129552" type="line"/>
      <point x="803.000243297645" y="356.5011860760195" type="line"/>
      <point x="911.5003345342619" y="356.5011860760195" type="line"/>
      <point x="911.5003345342619" y="330.9998175267662" type="line"/>
      <point x="806.9996958779437" y="330.9998175267662" type="line"/>
      <point x="795.498935572803" y="327.0001824732338" type="line"/>
      <point x="190.0003041220563" y="327.0001824732338" type="line"/>
    </contour>
    <contour>
      <point x="251.49996958779437" y="0.0" type="line"/>
      <point x="61.49930051927054" y="700.0" type="line"/>
      <point x="88.00109483940264" y="700.0" type="line"/>
      <point x="223.00109483940264" y="193.0013989614589" type="line" smooth="yes"/>
      <point x="244.50088195396324" y="114.50234173983341"/>
      <point x="258.0009731905801" y="79.00103401499138"/>
      <point x="272.0007907173464" y="2.5021592665996337" type="qcurve"/>
      <point x="277.50009123661687" y="2.0021896788052658" type="line"/>
      <point x="299.4997871145606" y="77.50112525160827"/>
      <point x="321.9998783511775" y="124.50215926659963"/>
      <point x="351.99951340470994" y="201.50124690043077" type="qcurve" smooth="yes"/>
      <point x="454.0" y="463.5023417398334" type="line"/>
      <point x="482.0013989614589" y="463.5023417398334" type="line"/>
      <point x="596.5015510224871" y="192.50142937366456" type="line" smooth="yes"/>
      <point x="632.5010036027858" y="106.00273709850657"/>
      <point x="663.0006690685238" y="44.50313245717976"/>
      <point x="672.0009123661689" y="-2.4975366113440742" type="qcurve"/>
      <point x="676.0003041220563" y="1.0022505032165299" type="line"/>
      <point x="686.0004257708788" y="45.503071632768496"/>
      <point x="699.5003953586731" y="107.50270668630097"/>
      <point x="726.0" y="200.50130772484204" type="qcurve" smooth="yes"/>
      <point x="864.9998783511775" y="700.0" type="line"/>
      <point x="888.0017639079265" y="700.0" type="line"/>
      <point x="695.0011556638138" y="0.0" type="line"/>
      <point x="650.0005474197013" y="0.0" type="line"/>
      <point x="453.0007907173464" y="472.49930051927055" type="line"/>
      <point x="487.50027370985066" y="472.9992092826536" type="line"/>
      <point x="297.50051700749566" y="0.0" type="line"/>
    </contour>
  </outline>
</glyph>
<glyph name="kip" format="2">
  <advance width="759"/>
  <unicode hex="20AD"/>
  <anchor x="363.0" y="0" name="bottom"/>
  <anchor x="375.0" y="700.0" name="top"/>
  <outline>
    <contour>
      <point x="351.50051700749566" y="381.4987530995692" type="line"/>
      <point x="351.50051700749566" y="406.0001824732338" type="line"/>
      <point x="618.5002737098506" y="406.0001824732338" type="line"/>
      <point x="618.5002737098506" y="381.4987530995692" type="line"/>
    </contour>
    <contour>
      <point x="129.50149019807583" y="406.0001824732338" type="line"/>
      <point x="131.5013685492533" y="381.4987530995692" type="line"/>
      <point x="44.999695877943715" y="381.4987530995692" type="line"/>
      <point x="44.999695877943715" y="406.0001824732338" type="line"/>
    </contour>
    <contour>
      <point x="139.9996958779437" y="0.0" type="line"/>
      <point x="139.9996958779437" y="700.0" type="line"/>
      <point x="161.00145978587017" y="700.0" type="line"/>
      <point x="161.00145978587017" y="0.0" type="line"/>
    </contour>
    <contour>
      <point x="138.50155102248706" y="219.49984793897187" type="line"/>
      <point x="141.5013685492533" y="259.5014901980758" type="line"/>
      <point x="593.9996350535324" y="700.0" type="line"/>
      <point x="628.0018247323377" y="700.0" type="line"/>
    </contour>
    <contour>
      <point x="617.499422168093" y="0.0" type="line"/>
      <point x="312.0001824732338" y="402.99908763383115" type="line"/>
      <point x="326.00152061028143" y="419.50015206102813" type="line"/>
      <point x="644.5016118468983" y="0.0" type="line"/>
    </contour>
  </outline>
</glyph>
<glyph name="rupeeIndian" format="2">
  <advance width="571"/>
  <unicode hex="20B9"/>
  <outline>
    <contour>
      <point x="347.4993613436818" y="682.9982360920735" type="line"/>
      <point x="396.99635053532455" y="673.4997262901494" type="line"/>
      <point x="437.49735413811027" y="603.0011556638138"/>
      <point x="429.0001824732338" y="529.5005170074957"/>
      <point x="429.0001824732338" y="494.9996350535325" type="qcurve" smooth="yes"/>
      <point x="429.0001824732338" y="404.49972629014934"/>
      <point x="319.99975670235494" y="303.499178870448"/>
      <point x="231.9996958779437" y="303.499178870448" type="qcurve"/>
      <point x="224.49869227515796" y="303.499178870448" type="line"/>
      <point x="138.4996046413268" y="332.99969587794374" type="line"/>
      <point x="138.4996046413268" y="323.50088195396324" type="line"/>
      <point x="235.99981752676624" y="323.50088195396324" type="line"/>
      <point x="309.9992092826536" y="323.50088195396324"/>
      <point x="404.4984489775129" y="417.50027370985066"/>
      <point x="404.4984489775129" y="491.49972629014934" type="qcurve" smooth="yes"/>
      <point x="404.4984489775129" y="574.9990876338311"/>
      <point x="301.4990572216255" y="682.9982360920735"/>
      <point x="221.49954381691558" y="682.9982360920735" type="qcurve"/>
      <point x="100.99933093147617" y="682.9982360920735" type="line"/>
      <point x="100.99933093147617" y="700.0" type="line"/>
      <point x="538.9993309314762" y="700.0" type="line"/>
      <point x="538.9993309314762" y="682.9982360920735" type="line"/>
    </contour>
    <contour>
      <point x="136.9996958779437" y="333.9996350535325" type="line"/>
      <point x="182.00103401499138" y="321.5003953586732" type="line"/>
      <point x="434.50088195396324" y="0.4999695877943713" type="line"/>
      <point x="399.498935572803" y="0.0" type="line"/>
    </contour>
    <contour>
      <point x="541.4993613436818" y="479.4990572216255" type="line"/>
      <point x="273.4993613436818" y="479.4990572216255" type="line"/>
      <point x="273.4993613436818" y="503.5003953586732" type="line"/>
      <point x="541.4993613436818" y="503.5003953586732" type="line"/>
    </contour>
  </outline>
</glyph>
<glyph name="liraTurkish" format="2">
  <advance width="609"/>
  <unicode hex="20BA"/>
  <outline>
    <contour>
      <point x="193.50088195396324" y="-10.0" type="qcurve"/>
      <point x="199.00012164882253" y="-10.0"/>
      <point x="198.4993613436818" y="-3.5000304122056285"/>
      <point x="194.99920928265365" y="0.0" type="qcurve"/>
      <point x="194.99920928265365" y="700.0" type="line"/>
      <point x="221.00066906852385" y="700.0" type="line"/>
      <point x="220.50069948072945" y="-9.498753099569221" type="line"/>
      <point x="199.00091236616885" y="16.50142937366455" type="line"/>
      <point x="308.4831102197432" y="16.50142937366455"/>
      <point x="498.498935572803" y="111.50094277837448"/>
      <point x="521.9989051605974" y="198.0004257708788" type="qcurve"/>
      <point x="545.0003041220563" y="193.0" type="line"/>
      <point x="535.7881217973214" y="114.68463192061867"/>
      <point x="326.50051700749566" y="-10.0"/>
    </contour>
    <contour>
      <point x="52.000304122056285" y="356.9995742291212" type="line"/>
      <point x="38.4997871145606" y="386.0003649464675" type="line"/>
      <point x="378.4997871145606" y="577.0003649464676" type="line"/>
      <point x="397.00030412205626" y="548.9995742291212" type="line"/>
    </contour>
    <contour>
      <point x="76.5002128854394" y="193.99963505353244" type="line"/>
      <point x="62.999695877943715" y="223.0004257708788" type="line"/>
      <point x="402.99969587794374" y="414.0004257708788" type="line"/>
      <point x="421.5002128854394" y="385.9996350535325" type="line"/>
    </contour>
  </outline>
</glyph>
<glyph name="manat" format="2">
  <advance width="756"/>
  <unicode hex="20BC"/>
  <anchor x="387.49984793897187" y="694.0" name="bottom"/>
  <anchor x="104.49984793897185" y="684.0" name="ogonek"/>
  <anchor x="387.49984793897187" y="-6.0" name="top"/>
  <anchor x="245.49984793897187" y="-14.0" name="topright"/>
  <outline>
    <contour>
      <point x="396.5003953586732" y="801.0" type="line"/>
      <point x="396.5003953586732" y="254.0" type="line"/>
      <point x="369.9989659850086" y="254.0" type="line"/>
      <point x="369.9989659850086" y="801.0" type="line"/>
    </contour>
    <contour>
      <point x="138.0012773126364" y="-7.0" type="line"/>
      <point x="115.99963505353246" y="-7.0" type="line"/>
      <point x="115.99963505353246" y="425.0" type="line"/>
      <point x="115.99963505353246" y="545.4999695877943"/>
      <point x="265.49984793897187" y="700.0"/>
      <point x="381.4999695877944" y="700.0" type="qcurve"/>
      <point x="494.50015206102813" y="700.0"/>
      <point x="639.5004561830845" y="545.4999695877943"/>
      <point x="639.5004561830845" y="425.0" type="qcurve"/>
      <point x="639.5004561830845" y="-7.0" type="line"/>
      <point x="618.498692275158" y="-7.0" type="line"/>
      <point x="618.498692275158" y="416.0" type="line"/>
      <point x="618.498692275158" y="530.9992092826536"/>
      <point x="486.9992701070649" y="676.998357740896"/>
      <point x="381.4999695877944" y="676.998357740896" type="qcurve"/>
      <point x="273.5006386563182" y="676.998357740896"/>
      <point x="138.0012773126364" y="530.9992092826536"/>
      <point x="138.0012773126364" y="416.0" type="qcurve"/>
    </contour>
  </outline>
</glyph>
<glyph name="ruble" format="2">
  <advance width="719"/>
  <unicode hex="20BD"/>
  <anchor x="406.0" y="0" name="bottom"/>
  <anchor x="406.0" y="700.0" name="top"/>
  <outline>
    <contour>
      <point x="201.49984793897187" y="317.5009427783745" type="line"/>
      <point x="201.49984793897187" y="288.9996350535325" type="line"/>
      <point x="91.0" y="288.9996350535325" type="line"/>
      <point x="91.0" y="317.5009427783745" type="line"/>
    </contour>
    <contour>
      <point x="197.9996958779437" y="700.0" type="line"/>
      <point x="459.0001824732338" y="700.0" type="line" smooth="yes"/>
      <point x="536.5003345342619" y="700.0"/>
      <point x="632.0008515417576" y="591.4996654657381"/>
      <point x="632.0008515417576" y="504.4996046413268" type="qcurve" smooth="yes"/>
      <point x="632.0008515417576" y="408.49972629014934"/>
      <point x="536.5003345342619" y="290.49954381691555"/>
      <point x="459.0001824732338" y="290.49954381691555" type="qcurve"/>
      <point x="199.00170308351522" y="290.49954381691555" type="line"/>
      <point x="219.00145978587017" y="316.49930051927055" type="line"/>
      <point x="219.00145978587017" y="0.0" type="line"/>
      <point x="197.9996958779437" y="0.0" type="line"/>
    </contour>
    <contour>
      <point x="198.00170308351522" y="313.5011860760195" type="line"/>
      <point x="473.49984793897187" y="313.5011860760195" type="line" smooth="yes"/>
      <point x="532.9994525802987" y="313.5011860760195"/>
      <point x="607.4991180460368" y="421.0003649464675"/>
      <point x="607.4991180460368" y="507.49954381691555" type="qcurve" smooth="yes"/>
      <point x="607.4991180460368" y="581.9989659850087"/>
      <point x="532.9994525802987" y="676.998357740896"/>
      <point x="473.49984793897187" y="676.998357740896" type="qcurve"/>
      <point x="198.00170308351522" y="676.998357740896" type="line"/>
      <point x="219.00145978587017" y="700.9981752676623" type="line"/>
      <point x="219.00145978587017" y="302.50112525160824" type="line"/>
    </contour>
    <contour>
      <point x="358.0" y="155.99920928265365" type="line"/>
      <point x="90.0" y="155.99920928265365" type="line"/>
      <point x="90.0" y="172.50069948072945" type="line"/>
      <point x="358.0" y="172.50069948072945" type="line"/>
    </contour>
  </outline>
</glyph>
<glyph name="literSign" format="2">
  <advance width="539"/>
  <unicode hex="2113"/>
  <note>
uni2113
</note>
  <outline>
    <contour>
      <point x="306" y="12" type="qcurve"/>
      <point x="344" y="12"/>
      <point x="407" y="39"/>
      <point x="431" y="63" type="qcurve"/>
      <point x="442.0" y="44.0" type="line"/>
      <point x="412" y="15"/>
      <point x="341" y="-10"/>
      <point x="310" y="-10" type="qcurve"/>
      <point x="230" y="-10"/>
      <point x="132" y="135"/>
      <point x="132" y="247.0" type="qcurve" smooth="yes"/>
      <point x="132.0" y="321.1456953642384"/>
      <point x="156.64800583448593" y="488.43073540304283"/>
      <point x="183.0" y="558.0" type="qcurve" smooth="yes"/>
      <point x="216.46887434160323" y="646.9315803934028"/>
      <point x="321.5915492957746" y="748.0"/>
      <point x="388.0" y="748.0" type="qcurve"/>
      <point x="449" y="748.0"/>
      <point x="519.0" y="673.0"/>
      <point x="519.0" y="608.0" type="qcurve" smooth="yes"/>
      <point x="519" y="536"/>
      <point x="433.0" y="357.0"/>
      <point x="341.0" y="264.0" type="qcurve"/>
      <point x="298" y="218"/>
      <point x="147.0" y="109.0"/>
      <point x="57.0" y="67.0" type="qcurve"/>
      <point x="46" y="87" type="line"/>
      <point x="133.93275009183282" y="128.25240127764994"/>
      <point x="284.899217625577" y="236.61049409494933"/>
      <point x="343" y="298" type="qcurve" smooth="yes"/>
      <point x="403.8317233039227" y="362.46346797878374"/>
      <point x="496" y="530"/>
      <point x="496" y="612.0" type="qcurve" smooth="yes"/>
      <point x="496" y="656"/>
      <point x="441" y="726.0"/>
      <point x="387.0" y="726" type="qcurve"/>
      <point x="323.6532663316583" y="726.0"/>
      <point x="222.82864949092885" y="607.3186126857764"/>
      <point x="196" y="523" type="qcurve" smooth="yes"/>
      <point x="172.7204123060092" y="449.9867476870288"/>
      <point x="155.0" y="294.6875"/>
      <point x="155" y="242.0" type="qcurve" smooth="yes"/>
      <point x="155" y="154.0"/>
      <point x="237" y="12"/>
    </contour>
  </outline>
</glyph>
<glyph name="trademark" format="2">
  <advance width="713"/>
  <unicode hex="2122"/>
  <note>
trademark
</note>
  <outline>
    <contour>
      <point x="318.99969587794374" y="670.9990876338311" type="line"/>
      <point x="45.49966546573808" y="670.9990876338311" type="line"/>
      <point x="45.49966546573808" y="700.0" type="line"/>
      <point x="318.99969587794374" y="700.0" type="line"/>
    </contour>
    <contour>
      <point x="199.00006082441126" y="340.0" type="line"/>
      <point x="167.9991484582424" y="340.0" type="line"/>
      <point x="167.9991484582424" y="676.0" type="line"/>
      <point x="199.00006082441126" y="676.0" type="line"/>
    </contour>
    <contour>
      <point x="519.4999087633831" y="454.99993917558874" type="line"/>
      <point x="672.4997871145606" y="700.0" type="line"/>
      <point x="681.5011252516083" y="700.0" type="line"/>
      <point x="681.5011252516083" y="340.0" type="line"/>
      <point x="654.0" y="340.0" type="line"/>
      <point x="654.0" y="646.999756702355" type="line"/>
      <point x="679.5003953586731" y="646.999756702355" type="line"/>
      <point x="539.000729892935" y="429.99975670235494" type="line"/>
      <point x="517.9998175267663" y="429.99975670235494" type="line"/>
      <point x="380.4999695877944" y="643.0" type="line"/>
      <point x="400.0007298929351" y="643.0" type="line"/>
      <point x="400.0007298929351" y="340.0" type="line"/>
      <point x="371.4996654657381" y="340.0" type="line"/>
      <point x="371.4996654657381" y="700.0" type="line"/>
      <point x="383.500821129552" y="700.0" type="line"/>
      <point x="539.5006386563182" y="454.99993917558874" type="line"/>
    </contour>
  </outline>
</glyph>
<glyph name="Ohm" format="2">
  <advance width="675"/>
  <unicode hex="2126"/>
  <note>
Ohm
</note>
  <guideline x="209" y="217" angle="0" identifier="zBdNciGFcs"/>
  <outline>
    <contour>
      <point x="25" y="404" type="qcurve"/>
      <point x="25" y="533"/>
      <point x="204" y="710"/>
      <point x="338" y="710" type="qcurve"/>
      <point x="472" y="710"/>
      <point x="651" y="533"/>
      <point x="651" y="404" type="qcurve"/>
      <point x="651" y="297"/>
      <point x="528" y="92"/>
      <point x="426" y="10" type="qcurve"/>
      <point x="425" y="22" type="line"/>
      <point x="637" y="22" type="line"/>
      <point x="637" y="0" type="line"/>
      <point x="405" y="0" type="line"/>
      <point x="405" y="22" type="line"/>
      <point x="439.43425831314977" y="44.280990673214546"/>
      <point x="536.8390074581564" y="149.7128241145492"/>
      <point x="574" y="216" type="qcurve" smooth="yes"/>
      <point x="598.695990375487" y="260.4527826758765"/>
      <point x="628.0" y="357.0"/>
      <point x="628" y="403" type="qcurve"/>
      <point x="628" y="512"/>
      <point x="471" y="688"/>
      <point x="338" y="688" type="qcurve"/>
      <point x="205" y="688"/>
      <point x="48" y="512"/>
      <point x="48" y="403" type="qcurve"/>
      <point x="48.0" y="358.0"/>
      <point x="77.30957457320741" y="261.44276576822665"/>
      <point x="102" y="217" type="qcurve" smooth="yes"/>
      <point x="139.1600166614893" y="150.71456487410015"/>
      <point x="236.56675845844538" y="44.2803327621824"/>
      <point x="271" y="22" type="qcurve"/>
      <point x="271" y="0" type="line"/>
      <point x="39" y="0" type="line"/>
      <point x="39" y="22" type="line"/>
      <point x="251" y="22" type="line"/>
      <point x="250" y="10" type="line"/>
      <point x="148" y="92"/>
      <point x="25" y="297"/>
    </contour>
  </outline>
</glyph>
<glyph name="emptyset" format="2">
  <advance width="621"/>
  <unicode hex="2205"/>
  <note>
emptyset
</note>
  <anchor x="305.0" y="0" name="bottom"/>
  <anchor x="305.0" y="256.0" name="center"/>
  <anchor x="547.0" y="10.0" name="ogonek"/>
  <anchor x="305.0" y="513.0" name="top"/>
  <anchor x="319.0" y="531.0" name="topright"/>
  <outline>
    <contour>
      <point x="71.00054741970132" y="10.99951340470994" type="line"/>
      <point x="47.49972629014934" y="33.500395358673174" type="line"/>
      <point x="544.4997262901494" y="515.5003953586731" type="line"/>
      <point x="565.0005474197013" y="492.99951340470994" type="line"/>
    </contour>
    <contour>
      <point x="296.00024329764506" y="528.5001520610282" type="qcurve"/>
      <point x="414.50015206102813" y="528.5001520610282"/>
      <point x="563.000243297645" y="379.5000304122056"/>
      <point x="563.000243297645" y="263.0" type="qcurve"/>
      <point x="563.000243297645" y="143.50003041220563"/>
      <point x="414.50015206102813" y="-10.0"/>
      <point x="296.00024329764506" y="-10.0" type="qcurve"/>
      <point x="178.0003041220563" y="-10.0"/>
      <point x="28.000243297645028" y="143.50003041220563"/>
      <point x="28.000243297645028" y="263.0" type="qcurve"/>
      <point x="28.000243297645028" y="379.5000304122056"/>
      <point x="178.0003041220563" y="528.5001520610282"/>
    </contour>
    <contour>
      <point x="296.00024329764506" y="18.001338137047668" type="qcurve"/>
      <point x="399.9995742291212" y="18.001338137047668"/>
      <point x="535.498692275158" y="156.00060824411258"/>
      <point x="535.9986618629523" y="263.0" type="qcurve" smooth="yes"/>
      <point x="535.498692275158" y="366.49948299250434"/>
      <point x="399.9995742291212" y="500.4988139239805"/>
      <point x="296.00024329764506" y="500.4988139239805" type="qcurve"/>
      <point x="190.50094277837448" y="500.4988139239805"/>
      <point x="55.50179432013209" y="366.9994525802987"/>
      <point x="55.001824732337724" y="263.0" type="qcurve" smooth="yes"/>
      <point x="55.50179432013209" y="156.00060824411258"/>
      <point x="190.50094277837448" y="18.001338137047668"/>
    </contour>
  </outline>
</glyph>
<glyph name="product" format="2">
  <advance width="708"/>
  <unicode hex="220F"/>
  <note>
product
</note>
  <outline>
    <contour>
      <point x="150.00164225910396" y="-200.0" type="line"/>
      <point x="127.0" y="-200.0" type="line"/>
      <point x="127.0" y="700.9987835117748" type="line"/>
      <point x="150.00164225910396" y="700.9987835117748" type="line"/>
    </contour>
    <contour>
      <point x="680.0" y="676.4985098019242" type="line"/>
      <point x="28.0" y="676.4985098019242" type="line"/>
      <point x="28.0" y="700.0" type="line"/>
      <point x="680.0" y="700.0" type="line"/>
    </contour>
    <contour>
      <point x="581.0" y="-200.0" type="line"/>
      <point x="558.4983273286904" y="-200.0" type="line"/>
      <point x="558.4983273286904" y="693.4992396948593" type="line"/>
      <point x="581.0" y="693.4992396948593" type="line"/>
    </contour>
  </outline>
</glyph>
<glyph name="summation" format="2">
  <advance width="523"/>
  <unicode hex="2211"/>
  <note>
summation
</note>
  <guideline x="70" y="669" angle="270" identifier="sY6RFlbpFf"/>
  <outline>
    <contour>
      <point x="489" y="0.0" type="line"/>
      <point x="64" y="0.0" type="line"/>
      <point x="59" y="15" type="line"/>
      <point x="351" y="347.0" type="line"/>
      <point x="352" y="330" type="line"/>
      <point x="69" y="663" type="line"/>
      <point x="72" y="676.0" type="line"/>
      <point x="479" y="676.0" type="line"/>
      <point x="479" y="654" type="line"/>
      <point x="98" y="654" type="line"/>
      <point x="96" y="667" type="line"/>
      <point x="370.49984793897187" y="346.0" type="line"/>
      <point x="370.49984793897187" y="331.0" type="line"/>
      <point x="91" y="16" type="line"/>
      <point x="91" y="22" type="line"/>
      <point x="489" y="22" type="line"/>
    </contour>
  </outline>
</glyph>
<glyph name="minus" format="2">
  <advance width="602"/>
  <unicode hex="2212"/>
  <note>
minus
</note>
  <outline>
    <contour>
      <point x="542" y="275" type="line"/>
      <point x="60" y="275" type="line"/>
      <point x="60" y="297" type="line"/>
      <point x="542" y="297" type="line"/>
    </contour>
  </outline>
</glyph>
<glyph name="bulletoperator" format="2">
  <advance width="244"/>
  <unicode hex="2219"/>
  <note>
bulletoperator
</note>
  <outline>
    <contour>
      <point x="149.00091236616885" y="301.0" type="qcurve" smooth="yes"/>
      <point x="149.00091236616885" y="290.4996046413268"/>
      <point x="133.62009096646332" y="273.99908763383115"/>
      <point x="123.0" y="273.99908763383115" type="qcurve" smooth="yes"/>
      <point x="111.49277573993061" y="273.99908763383115"/>
      <point x="94.99908763383114" y="290.4996046413268"/>
      <point x="94.99908763383114" y="301.0" type="qcurve" smooth="yes"/>
      <point x="94.99908763383114" y="312.0003649464675"/>
      <point x="111.49277573993061" y="328.00091236616885"/>
      <point x="123.0" y="328.00091236616885" type="qcurve" smooth="yes"/>
      <point x="133.62009096646332" y="328.00091236616885"/>
      <point x="149.00091236616885" y="312.0003649464675"/>
    </contour>
  </outline>
</glyph>
<glyph name="radical" format="2">
  <advance width="684"/>
  <unicode hex="221A"/>
  <note>
radical
</note>
  <outline>
    <contour>
      <point x="209.00145978587017" y="-130.0" type="line"/>
      <point x="220.99939175588742" y="-130.0" type="line"/>
      <point x="44.99939175588743" y="309.0" type="line"/>
      <point x="74.50100360278574" y="309.0" type="line"/>
      <point x="226.00066906852385" y="-76.00024329764503" type="line"/>
      <point x="208.4999087633831" y="-78.99975670235497" type="line"/>
      <point x="480.49984793897187" y="700.0" type="line"/>
      <point x="664.0" y="700.0" type="line"/>
      <point x="664.0" y="673.4985706263354" type="line"/>
      <point x="480.00024329764506" y="673.4985706263354" type="line"/>
      <point x="512.0008515417576" y="703.9982969164848" type="line"/>
    </contour>
  </outline>
</glyph>
<glyph name="infinity" format="2">
  <advance width="867"/>
  <unicode hex="221E"/>
  <outline>
    <contour>
      <point x="213.0" y="47.0" type="qcurve" smooth="yes"/>
      <point x="138.0" y="47.0"/>
      <point x="45.0" y="152.0"/>
      <point x="45.0" y="242.0" type="qcurve" smooth="yes"/>
      <point x="45.0" y="331.0"/>
      <point x="140.0" y="437.0"/>
      <point x="215.0" y="437.0" type="qcurve" smooth="yes"/>
      <point x="261.0" y="437.0"/>
      <point x="331.0" y="403.0"/>
      <point x="379.0" y="353.0" type="qcurve"/>
      <point x="502.00091236616885" y="177.0" type="line" smooth="yes"/>
      <point x="544.0005474197013" y="120.5006386563182"/>
      <point x="607.0614665461264" y="75.00109483940264"/>
      <point x="645.0" y="75.00109483940264" type="qcurve" smooth="yes"/>
      <point x="710.9995134047099" y="75.00109483940264"/>
      <point x="791.498935572803" y="164.5005170074957"/>
      <point x="791.498935572803" y="242.0" type="qcurve" smooth="yes"/>
      <point x="791.498935572803" y="317.99951340470994"/>
      <point x="708.4995438169155" y="408.99890516059736"/>
      <point x="645.0" y="408.99890516059736" type="qcurve" smooth="yes"/>
      <point x="617.4854676006736" y="408.99890516059736"/>
      <point x="567.0073113355984" y="382.0062773206072"/>
      <point x="536.0001216488225" y="350.99908763383115" type="qcurve"/>
      <point x="371.0" y="132.49984793897187" type="line" smooth="yes"/>
      <point x="332.36409170647505" y="80.82046910739115"/>
      <point x="258.0" y="47.0"/>
    </contour>
    <contour>
      <point x="75.50106442719701" y="242.0" type="qcurve" smooth="yes"/>
      <point x="75.50106442719701" y="164.5005170074957"/>
      <point x="156.00048659529006" y="75.00109483940264"/>
      <point x="222.0" y="75.00109483940264" type="qcurve" smooth="yes"/>
      <point x="250.65302770899788" y="75.00109483940264"/>
      <point x="294.66440439592" y="99.63559462461538"/>
      <point x="325.9998783511775" y="132.00091236616885" type="qcurve"/>
      <point x="488.0" y="345.50015206102813" type="line" smooth="yes"/>
      <point x="530.695410237753" y="401.51686339651314"/>
      <point x="606.0" y="437.0"/>
      <point x="652.0" y="437.0" type="qcurve" smooth="yes"/>
      <point x="727.0" y="437.0"/>
      <point x="822.0" y="331.0"/>
      <point x="822.0" y="242.0" type="qcurve" smooth="yes"/>
      <point x="822.0" y="152.0"/>
      <point x="729.0" y="47.0"/>
      <point x="654.0" y="47.0" type="qcurve" smooth="yes"/>
      <point x="609.0" y="47.0"/>
      <point x="539.0" y="81.0"/>
      <point x="496.0" y="125.0" type="qcurve"/>
      <point x="368.99908763383115" y="306.0" type="line" smooth="yes"/>
      <point x="331.72735560644406" y="356.02930790012556"/>
      <point x="259.79587734090717" y="408.99890516059736"/>
      <point x="221.0" y="408.99890516059736" type="qcurve" smooth="yes"/>
      <point x="157.50045618308442" y="408.99890516059736"/>
      <point x="75.50106442719701" y="319.49948299250434"/>
    </contour>
  </outline>
</glyph>
<glyph name="integral" format="2">
  <advance width="553"/>
  <unicode hex="222B"/>
  <note>
integral
</note>
  <outline>
    <contour>
      <point x="111.0" y="-127.0" type="qcurve" smooth="yes"/>
      <point x="88.0" y="-127.0"/>
      <point x="30.0" y="-103.0"/>
      <point x="0.0" y="-81.0" type="qcurve"/>
      <point x="17.000608244112573" y="-55.498874748391735" type="line"/>
      <point x="56.00006082441126" y="-87.9984185653073"/>
      <point x="88.27288394166536" y="-103.49832732869042"/>
      <point x="113.0" y="-103.49832732869042" type="qcurve" smooth="yes"/>
      <point x="154.62134544591646" y="-103.49832732869042"/>
      <point x="209.9811166726719" y="-13.112182524349656"/>
      <point x="222.99927010706492" y="68.0" type="qcurve"/>
      <point x="303.9992701070649" y="547.0" type="line" smooth="yes"/>
      <point x="320.60362501194845" y="645.9565707200705"/>
      <point x="387.5224328272819" y="745.0"/>
      <point x="444.0" y="745.0" type="qcurve" smooth="yes"/>
      <point x="482.0" y="745.0"/>
      <point x="540.0" y="728.0"/>
      <point x="561.0" y="710.0" type="qcurve"/>
      <point x="549.9996350535324" y="689.9984793897186" type="line"/>
      <point x="525.9335232449924" y="706.0425539287453"/>
      <point x="467.930954781806" y="718.9984793897186"/>
      <point x="445.0" y="718.9984793897186" type="qcurve" smooth="yes"/>
      <point x="402.0802822252682" y="718.9984793897186"/>
      <point x="348.0215105596166" y="634.6246535878836"/>
      <point x="334.0007298929351" y="550.0" type="qcurve"/>
      <point x="254.00072989293508" y="71.0" type="line" smooth="yes"/>
      <point x="237.73613135935366" y="-27.777948945795597"/>
      <point x="169.31873342002382" y="-127.0"/>
    </contour>
  </outline>
</glyph>
<glyph name="approxequal" format="2">
  <advance width="559"/>
  <unicode hex="2248"/>
  <note>
approxequal
</note>
  <outline>
    <contour>
      <point x="374.0004257708788" y="328.99908763383115" type="qcurve"/>
      <point x="360.5003345342619" y="328.99908763383115"/>
      <point x="310.00024329764506" y="340.499178870448"/>
      <point x="257.50009123661687" y="351.9994525802987" type="qcurve" smooth="yes"/>
      <point x="220.49984793897187" y="359.49972629014934"/>
      <point x="189.49966546573808" y="365.49984793897187"/>
      <point x="181.9995742291212" y="365.49984793897187" type="qcurve"/>
      <point x="154.4997871145606" y="365.49984793897187"/>
      <point x="130.49984793897187" y="335.4999695877944"/>
      <point x="129.99987835117747" y="311.00006082441126" type="qcurve"/>
      <point x="100.99896598500862" y="313.49990876338313" type="line"/>
      <point x="100.99896598500862" y="353.33898665739963"/>
      <point x="137.99951340470994" y="397.0007298929351"/>
      <point x="176.4999087633831" y="397.0007298929351" type="qcurve"/>
      <point x="190.0" y="397.0007298929351"/>
      <point x="240.00006082441126" y="385.5006386563182"/>
      <point x="295.0001216488225" y="374.0003649464675" type="qcurve" smooth="yes"/>
      <point x="332.5003345342619" y="366.50009123661687"/>
      <point x="364.00048659529006" y="360.4999695877944"/>
      <point x="371.5005778319069" y="360.4999695877944" type="qcurve"/>
      <point x="398.5003953586732" y="360.4999695877944"/>
      <point x="424.5002128854394" y="391.4997871145606"/>
      <point x="424.5002128854394" y="410.00006082441126" type="qcurve"/>
      <point x="453.50112525160824" y="409.0001216488225" type="line"/>
      <point x="453.50112525160824" y="369.5470329264053"/>
      <point x="414.0007298929351" y="328.99908763383115"/>
    </contour>
    <contour>
      <point x="374.0004257708788" y="150.49899639721426" type="qcurve"/>
      <point x="360.5003345342619" y="150.49899639721426"/>
      <point x="310.00024329764506" y="161.99908763383115"/>
      <point x="257.50009123661687" y="173.4993613436818" type="qcurve" smooth="yes"/>
      <point x="220.49984793897187" y="180.99963505353244"/>
      <point x="189.49966546573808" y="186.99975670235497"/>
      <point x="181.9995742291212" y="186.99975670235497" type="qcurve"/>
      <point x="154.4997871145606" y="186.99975670235497"/>
      <point x="130.49984793897187" y="156.99987835117747"/>
      <point x="129.99987835117747" y="132.49996958779437" type="qcurve"/>
      <point x="100.99896598500862" y="134.99981752676624" type="line"/>
      <point x="100.99896598500862" y="174.8388954207828"/>
      <point x="137.99951340470994" y="218.5006386563182"/>
      <point x="176.4999087633831" y="218.5006386563182" type="qcurve"/>
      <point x="190.0" y="218.5006386563182"/>
      <point x="240.00006082441126" y="207.00054741970132"/>
      <point x="295.0001216488225" y="195.50027370985066" type="qcurve" smooth="yes"/>
      <point x="332.5003345342619" y="188.0"/>
      <point x="364.00048659529006" y="181.99987835117747"/>
      <point x="371.5005778319069" y="181.99987835117747" type="qcurve"/>
      <point x="398.5003953586732" y="181.99987835117747"/>
      <point x="424.5002128854394" y="212.9996958779437"/>
      <point x="424.5002128854394" y="231.49996958779437" type="qcurve"/>
      <point x="453.50112525160824" y="230.50003041220563" type="line"/>
      <point x="453.50112525160824" y="191.04694168978838"/>
      <point x="414.0007298929351" y="150.49899639721426"/>
    </contour>
  </outline>
</glyph>
<glyph name="notequal" format="2">
  <advance width="566"/>
  <unicode hex="2260"/>
  <note>
notequal
</note>
  <outline>
    <contour>
      <point x="125.99945258029868" y="50.49954381691557" type="line"/>
      <point x="384.4996654657381" y="519.5003345342619" type="line"/>
      <point x="425.5005778319069" y="519.0003649464676" type="line"/>
      <point x="169.00024329764503" y="50.49954381691557" type="line"/>
    </contour>
    <contour>
      <point x="501.00030412205626" y="351.9995742291212" type="line"/>
      <point x="64.99969587794371" y="351.9995742291212" type="line"/>
      <point x="64.99969587794371" y="379.0008515417576" type="line"/>
      <point x="501.00030412205626" y="379.0008515417576" type="line"/>
    </contour>
    <contour>
      <point x="64.99969587794371" y="191.49899639721426" type="line"/>
      <point x="64.99969587794371" y="219.00024329764503" type="line"/>
      <point x="501.00030412205626" y="219.00024329764503" type="line"/>
      <point x="501.00030412205626" y="191.49899639721426" type="line"/>
    </contour>
  </outline>
</glyph>
<glyph name="lessequal" format="2">
  <advance width="627"/>
  <unicode hex="2264"/>
  <note>
lessequal
</note>
  <outline>
    <contour>
      <point x="505.50112525160824" y="0.0" type="line"/>
      <point x="77.49972629014934" y="0.0" type="line"/>
      <point x="77.49972629014934" y="27.001277312636404" type="line"/>
      <point x="505.50112525160824" y="27.001277312636404" type="line"/>
    </contour>
    <contour>
      <point x="514.5000912366169" y="198.0004257708788" type="line"/>
      <point x="502.9998783511775" y="164.99945258029868" type="line"/>
      <point x="76.99975670235497" y="306.4997871145606" type="line"/>
      <point x="76.99975670235497" y="353.50015206102813" type="line"/>
      <point x="502.9998783511775" y="495.50045618308445" type="line"/>
      <point x="511.00030412205626" y="458.99969587794374" type="line"/>
      <point x="79.00115566381389" y="324.49948299250434" type="line"/>
      <point x="81.50100360278574" y="338.00048659529006" type="line"/>
    </contour>
  </outline>
</glyph>
<glyph name="greaterequal" format="2">
  <advance width="588"/>
  <unicode hex="2265"/>
  <note>
greaterequal
</note>
  <outline>
    <contour>
      <point x="82" y="0" type="line"/>
      <point x="82" y="22" type="line"/>
      <point x="511" y="22" type="line"/>
      <point x="511" y="0" type="line"/>
    </contour>
    <contour>
      <point x="80" y="186" type="line"/>
      <point x="508" y="328" type="line"/>
      <point x="508" y="318" type="line"/>
      <point x="82" y="460" type="line"/>
      <point x="87" y="482" type="line"/>
      <point x="513" y="340" type="line"/>
      <point x="513" y="306" type="line"/>
      <point x="87" y="165" type="line"/>
    </contour>
  </outline>
</glyph>
<glyph name="lozenge" format="2">
  <advance width="596"/>
  <unicode hex="25CA"/>
  <note>
lozenge
</note>
  <outline>
    <contour>
      <point x="321.4986314507467" y="-8.50197679336587" type="line"/>
      <point x="-118.99057221625509" y="544.9868011027571" type="line"/>
      <point x="56.998722687363596" y="299.5017334957208" type="line"/>
      <point x="446.49102839933954" y="892.4876222323091" type="line"/>
      <point x="290.50051700749566" y="675.5008211295519" type="line"/>
      <point x="705.9911196359565" y="128.01216488225145" type="line"/>
      <point x="544.0009731905801" y="349.9986618629523" type="line"/>
      <point x="150.50903242507172" y="-250.9872268736359" type="line"/>
    </contour>
    <contour>
      <point x="81.00103401499138" y="335.0" type="line"/>
      <point x="323.4996654657381" y="-15.49802320663413" type="line"/>
      <point x="275.00030412205626" y="-14.997992794428498" type="line"/>
      <point x="523.9989051605974" y="343.0" type="line"/>
      <point x="526.9988443361862" y="310.0" type="line"/>
      <point x="279.0001824732338" y="657.998114443251" type="line"/>
      <point x="318.4997871145606" y="657.998114443251" type="line"/>
      <point x="72.00115566381389" y="316.0" type="line"/>
    </contour>
  </outline>
</glyph>
<glyph name="Iogonek.ss01" format="2">
  <advance width="327"/>
  <note>
Iogonek
</note>
  <anchor x="153.0" y="0" name="bottom"/>
  <anchor x="343.0" y="10.0" name="ogonek"/>
  <anchor x="153.0" y="700.0" name="top"/>
  <anchor x="100.0" y="700.0" name="topleft"/>
  <outline>
    <contour>
      <point x="164.50088195396324" y="700.0" type="qcurve"/>
      <point x="164.50088195396324" y="0.0" type="line"/>
      <point x="143.49911804603676" y="0.0" type="line"/>
      <point x="143.49911804603676" y="700.0" type="line"/>
      <point x="149.49954381691558" y="700.0"/>
      <point x="158.50045618308442" y="700.0"/>
    </contour>
    <contour>
      <point x="156.99920928265365" y="-230.99939175588742" type="qcurve" smooth="yes"/>
      <point x="112.49923969485928" y="-230.99939175588742"/>
      <point x="58.49899639721425" y="-180.49917887044802"/>
      <point x="58.49899639721425" y="-136.99920928265365" type="qcurve"/>
      <point x="58.49899639721425" y="-101.99890516059736"/>
      <point x="83.00018247323378" y="-37.498631450746714"/>
      <point x="137.00054741970132" y="11.000790717346348" type="qcurve"/>
      <point x="137.50142937366456" y="-1.999087633831138" type="line"/>
      <point x="164.50088195396324" y="0.4999695877943713" type="line"/>
      <point x="110.00109483940264" y="-37.99945258029868"/>
      <point x="82.00036494646754" y="-102.99914845824239"/>
      <point x="82.00036494646754" y="-131.49911804603676" type="qcurve"/>
      <point x="82.00036494646754" y="-162.4988139239805"/>
      <point x="119.0" y="-204.99835774089604"/>
      <point x="156.49954381691558" y="-204.99835774089604" type="qcurve" smooth="yes"/>
      <point x="177.99933093147615" y="-204.99835774089604"/>
      <point x="212.49899639721426" y="-188.9984185653073"/>
      <point x="235.49869227515796" y="-164.99866186295233" type="qcurve"/>
      <point x="256.9993917558874" y="-180.9991484582424" type="line"/>
      <point x="233.49966546573808" y="-205.9991484582424"/>
      <point x="192.99920928265365" y="-230.99939175588742"/>
    </contour>
  </outline>
</glyph>
<glyph name="a.ss01" format="2">
  <advance width="540"/>
  <note>
a
</note>
  <anchor x="262.00030412205626" y="6.499604641326826" name="bottom"/>
  <anchor x="451.00030412205626" y="10.0" name="ogonek"/>
  <anchor x="264.00030412205626" y="515.0003041220563" name="top"/>
  <outline>
    <contour>
      <point x="265.00030412205626" y="528.5001520610282" type="qcurve"/>
      <point x="355.00030412205626" y="528.5001520610282"/>
      <point x="461.00030412205626" y="443.00006082441126"/>
      <point x="461.00030412205626" y="364.0" type="qcurve"/>
      <point x="461.00030412205626" y="0.0" type="line"/>
      <point x="432.4989963972142" y="0.0" type="line"/>
      <point x="432.4989963972142" y="374.99933093147615" type="line"/>
      <point x="432.4989963972142" y="430.99908763383115"/>
      <point x="357.4992396948593" y="500.99878351177483"/>
      <point x="266.0001216488225" y="500.99878351177483" type="qcurve"/>
      <point x="207.0004257708788" y="500.99878351177483"/>
      <point x="115.00085154175761" y="452.9990268094199"/>
      <point x="74.00109483940264" y="408.499178870448" type="qcurve"/>
      <point x="53.500152061028146" y="427.50015206102813" type="line"/>
      <point x="100.50015206102815" y="478.50015206102813"/>
      <point x="203.50027370985066" y="528.5001520610282"/>
    </contour>
    <contour>
      <point x="269.00030412205626" y="319.0" type="qcurve"/>
      <point x="443.49972629014934" y="319.0" type="line"/>
      <point x="434.49972629014934" y="286.4989963972142" type="line"/>
      <point x="256.00030412205626" y="286.4989963972142" type="line" smooth="yes"/>
      <point x="163.50094277837448" y="286.4989963972142"/>
      <point x="64.00164225910395" y="215.99951340470994"/>
      <point x="64.00164225910395" y="151.0" type="qcurve"/>
      <point x="64.00164225910395" y="92.50051700749569"/>
      <point x="149.50088195396324" y="21.00115566381389"/>
      <point x="215.0003041220563" y="21.00115566381389" type="qcurve"/>
      <point x="288.49990876338313" y="21.00115566381389"/>
      <point x="409.49930051927055" y="97.00072989293508"/>
      <point x="440.99908763383115" y="159.0003041220563" type="qcurve"/>
      <point x="460.499178870448" y="141.49930051927055" type="line"/>
      <point x="422.49930051927055" y="72.99963505353246"/>
      <point x="285.4999695877944" y="-10.0"/>
      <point x="211.0003041220563" y="-10.0" type="qcurve"/>
      <point x="135.0003041220563" y="-10.0"/>
      <point x="33.000304122056285" y="77.0"/>
      <point x="33.000304122056285" y="149.0" type="qcurve"/>
      <point x="33.000304122056285" y="233.0"/>
      <point x="152.0003041220563" y="319.0"/>
    </contour>
  </outline>
</glyph>
